G04 #@! TF.FileFunction,Soldermask,Bot*
%FSLAX46Y46*%
G04 Gerber Fmt 4.6, Leading zero omitted, Abs format (unit mm)*
G04 Created by KiCad (PCBNEW 4.0.2-stable) date 7/12/2016 4:32:10 PM*
%MOMM*%
G01*
G04 APERTURE LIST*
%ADD10C,0.100000*%
%ADD11R,2.400000X2.400000*%
%ADD12C,2.400000*%
%ADD13C,1.797000*%
%ADD14R,2.127200X2.432000*%
%ADD15O,2.127200X2.432000*%
%ADD16C,3.400000*%
%ADD17R,2.127200X2.127200*%
%ADD18O,2.127200X2.127200*%
%ADD19R,2.432000X2.432000*%
%ADD20O,2.432000X2.432000*%
G04 APERTURE END LIST*
D10*
D11*
X122420000Y-122240000D03*
D12*
X119880000Y-122240000D03*
D11*
X122420000Y-130150000D03*
D12*
X119880000Y-130150000D03*
D11*
X190140000Y-79920000D03*
D12*
X192680000Y-79920000D03*
D11*
X125000000Y-80000000D03*
D12*
X122460000Y-80000000D03*
D11*
X176000000Y-80000000D03*
D12*
X173460000Y-80000000D03*
D13*
X179910000Y-124490000D03*
X179910000Y-129570000D03*
X172290000Y-124490000D03*
X172290000Y-129570000D03*
D14*
X186140000Y-83920000D03*
D15*
X188680000Y-83920000D03*
X191220000Y-83920000D03*
X193760000Y-83920000D03*
X196300000Y-83920000D03*
X198840000Y-83920000D03*
X201380000Y-83920000D03*
D14*
X137000000Y-84000000D03*
D15*
X134460000Y-84000000D03*
X131920000Y-84000000D03*
X129380000Y-84000000D03*
X126840000Y-84000000D03*
X124300000Y-84000000D03*
X121760000Y-84000000D03*
X119220000Y-84000000D03*
X116680000Y-84000000D03*
D14*
X174000000Y-84000000D03*
D15*
X171460000Y-84000000D03*
X168920000Y-84000000D03*
X166380000Y-84000000D03*
X163840000Y-84000000D03*
X161300000Y-84000000D03*
X158760000Y-84000000D03*
X156220000Y-84000000D03*
X153680000Y-84000000D03*
X151140000Y-84000000D03*
X148600000Y-84000000D03*
D16*
X107140000Y-80920000D03*
X83140000Y-130920000D03*
X213140000Y-130920000D03*
X213140000Y-80920000D03*
D17*
X97536000Y-93218000D03*
D18*
X94996000Y-93218000D03*
X97536000Y-95758000D03*
X94996000Y-95758000D03*
X97536000Y-98298000D03*
X94996000Y-98298000D03*
X97536000Y-100838000D03*
X94996000Y-100838000D03*
X97536000Y-103378000D03*
X94996000Y-103378000D03*
X97536000Y-105918000D03*
X94996000Y-105918000D03*
X97536000Y-108458000D03*
X94996000Y-108458000D03*
X97536000Y-110998000D03*
X94996000Y-110998000D03*
X97536000Y-113538000D03*
X94996000Y-113538000D03*
X97536000Y-116078000D03*
X94996000Y-116078000D03*
X97536000Y-118618000D03*
X94996000Y-118618000D03*
X97536000Y-121158000D03*
X94996000Y-121158000D03*
X97536000Y-123698000D03*
X94996000Y-123698000D03*
D11*
X165500000Y-129500000D03*
D12*
X162960000Y-129500000D03*
D17*
X188270000Y-127260000D03*
D18*
X188270000Y-124720000D03*
X190810000Y-127260000D03*
X190810000Y-124720000D03*
X193350000Y-127260000D03*
X193350000Y-124720000D03*
X195890000Y-127260000D03*
X195890000Y-124720000D03*
X198430000Y-127260000D03*
X198430000Y-124720000D03*
D19*
X133880000Y-94410000D03*
D20*
X136420000Y-94410000D03*
M02*
