G04 #@! TF.FileFunction,Soldermask,Top*
%FSLAX46Y46*%
G04 Gerber Fmt 4.6, Leading zero omitted, Abs format (unit mm)*
G04 Created by KiCad (PCBNEW 4.0.2-stable) date 7/12/2016 4:32:10 PM*
%MOMM*%
G01*
G04 APERTURE LIST*
%ADD10C,0.100000*%
%ADD11R,1.200000X1.150000*%
%ADD12R,1.400000X2.000000*%
%ADD13R,1.400000X1.650000*%
%ADD14R,1.000000X1.100000*%
%ADD15R,2.400000X2.400000*%
%ADD16C,2.400000*%
%ADD17R,0.900000X1.300000*%
%ADD18R,1.300000X0.900000*%
%ADD19C,1.797000*%
%ADD20R,2.432000X4.057600*%
%ADD21R,2.432000X1.416000*%
%ADD22R,1.460000X1.050000*%
%ADD23O,1.873200X1.009600*%
%ADD24R,2.127200X2.432000*%
%ADD25O,2.127200X2.432000*%
%ADD26R,6.600000X3.100000*%
%ADD27R,3.000000X1.500000*%
%ADD28R,2.500000X2.900000*%
%ADD29C,3.400000*%
%ADD30R,1.400000X0.630000*%
%ADD31R,0.630000X1.400000*%
%ADD32R,2.127200X2.127200*%
%ADD33O,2.127200X2.127200*%
%ADD34R,2.432000X2.432000*%
%ADD35O,2.432000X2.432000*%
G04 APERTURE END LIST*
D10*
D11*
X88430000Y-105350000D03*
X86930000Y-105350000D03*
X104210000Y-93260000D03*
X105710000Y-93260000D03*
X88880000Y-93320000D03*
X87380000Y-93320000D03*
X111190000Y-105340000D03*
X112690000Y-105340000D03*
X110970000Y-93220000D03*
X112470000Y-93220000D03*
X82050000Y-105440000D03*
X80550000Y-105440000D03*
X82150000Y-93280000D03*
X80650000Y-93280000D03*
X104130000Y-111400000D03*
X105630000Y-111400000D03*
X104910000Y-120390000D03*
X106410000Y-120390000D03*
X178190000Y-115650000D03*
X176690000Y-115650000D03*
X166080000Y-115850000D03*
X167580000Y-115850000D03*
X178200000Y-113110000D03*
X176700000Y-113110000D03*
X167370000Y-101300000D03*
X168870000Y-101300000D03*
X155040000Y-96990000D03*
X156540000Y-96990000D03*
D12*
X104920000Y-132270000D03*
X107920000Y-132270000D03*
D11*
X181270000Y-102380000D03*
X179770000Y-102380000D03*
X167370000Y-95250000D03*
X168870000Y-95250000D03*
D13*
X155030000Y-94750000D03*
X157030000Y-94750000D03*
D11*
X104210000Y-99370000D03*
X105710000Y-99370000D03*
X167370000Y-97340000D03*
X168870000Y-97340000D03*
D13*
X155030000Y-92210000D03*
X157030000Y-92210000D03*
D11*
X190910000Y-102360000D03*
X192410000Y-102360000D03*
X167360000Y-99360000D03*
X168860000Y-99360000D03*
X88500000Y-111390000D03*
X87000000Y-111390000D03*
X88520000Y-99140000D03*
X87020000Y-99140000D03*
X137080000Y-111300000D03*
X138580000Y-111300000D03*
X137080000Y-113210000D03*
X138580000Y-113210000D03*
X111170000Y-111470000D03*
X112670000Y-111470000D03*
X111080000Y-99270000D03*
X112580000Y-99270000D03*
X82020000Y-111420000D03*
X80520000Y-111420000D03*
X139660000Y-126230000D03*
X138160000Y-126230000D03*
X155750000Y-128200000D03*
X157250000Y-128200000D03*
X82260000Y-99230000D03*
X80760000Y-99230000D03*
X139670000Y-129310000D03*
X138170000Y-129310000D03*
X104260000Y-105350000D03*
X105760000Y-105350000D03*
X196950000Y-115200000D03*
X198450000Y-115200000D03*
D14*
X90080000Y-106970000D03*
X91480000Y-106970000D03*
X102660000Y-94760000D03*
X101260000Y-94760000D03*
X90340000Y-94830000D03*
X91740000Y-94830000D03*
X109570000Y-106950000D03*
X108170000Y-106950000D03*
X109430000Y-94760000D03*
X108030000Y-94760000D03*
X83610000Y-107030000D03*
X85010000Y-107030000D03*
D15*
X122420000Y-122240000D03*
D16*
X119880000Y-122240000D03*
D14*
X83710000Y-94790000D03*
X85110000Y-94790000D03*
X102630000Y-112970000D03*
X101230000Y-112970000D03*
D15*
X122420000Y-130150000D03*
D16*
X119880000Y-130150000D03*
D14*
X102860000Y-100920000D03*
X101460000Y-100920000D03*
X90020000Y-112980000D03*
X91420000Y-112980000D03*
X90040000Y-100770000D03*
X91440000Y-100770000D03*
X109650000Y-113150000D03*
X108250000Y-113150000D03*
X109570000Y-100870000D03*
X108170000Y-100870000D03*
X83620000Y-113010000D03*
X85020000Y-113010000D03*
X83710000Y-100840000D03*
X85110000Y-100840000D03*
X102700000Y-106990000D03*
X101300000Y-106990000D03*
D15*
X190140000Y-79920000D03*
D16*
X192680000Y-79920000D03*
D15*
X125000000Y-80000000D03*
D16*
X122460000Y-80000000D03*
D15*
X176000000Y-80000000D03*
D16*
X173460000Y-80000000D03*
D17*
X88430000Y-107200000D03*
X86930000Y-107200000D03*
X104210000Y-95010000D03*
X105710000Y-95010000D03*
X91440000Y-105350000D03*
X89940000Y-105350000D03*
X101210000Y-93260000D03*
X102710000Y-93260000D03*
X88950000Y-94980000D03*
X87450000Y-94980000D03*
X111180000Y-107070000D03*
X112680000Y-107070000D03*
X91740000Y-93320000D03*
X90240000Y-93320000D03*
X108170000Y-105310000D03*
X109670000Y-105310000D03*
X110990000Y-94900000D03*
X112490000Y-94900000D03*
X82050000Y-107190000D03*
X80550000Y-107190000D03*
X108000000Y-93240000D03*
X109500000Y-93240000D03*
X85020000Y-105440000D03*
X83520000Y-105440000D03*
X82280000Y-95010000D03*
X80780000Y-95010000D03*
X116360000Y-122210000D03*
X117860000Y-122210000D03*
X85100000Y-93280000D03*
X83600000Y-93280000D03*
X104130000Y-113090000D03*
X105630000Y-113090000D03*
X101220000Y-111400000D03*
X102720000Y-111400000D03*
X162220000Y-118980000D03*
X163720000Y-118980000D03*
X167580000Y-118980000D03*
X166080000Y-118980000D03*
X116360000Y-130150000D03*
X117860000Y-130150000D03*
X104210000Y-101040000D03*
X105710000Y-101040000D03*
X187970000Y-97570000D03*
X186470000Y-97570000D03*
X101370000Y-99370000D03*
X102870000Y-99370000D03*
X127310000Y-113260000D03*
X128810000Y-113260000D03*
X88540000Y-113180000D03*
X87040000Y-113180000D03*
X91420000Y-111390000D03*
X89920000Y-111390000D03*
X88520000Y-100960000D03*
X87020000Y-100960000D03*
X91450000Y-99170000D03*
X89950000Y-99170000D03*
X111140000Y-113210000D03*
X112640000Y-113210000D03*
X108250000Y-111440000D03*
X109750000Y-111440000D03*
X157290000Y-125500000D03*
X158790000Y-125500000D03*
X154200000Y-125500000D03*
X155700000Y-125500000D03*
X111120000Y-101000000D03*
X112620000Y-101000000D03*
X108180000Y-99280000D03*
X109680000Y-99280000D03*
X82040000Y-113250000D03*
X80540000Y-113250000D03*
X85010000Y-111440000D03*
X83510000Y-111440000D03*
X142940000Y-126230000D03*
X141440000Y-126230000D03*
X142930000Y-129320000D03*
X141430000Y-129320000D03*
X82260000Y-101020000D03*
X80760000Y-101020000D03*
X85100000Y-99210000D03*
X83600000Y-99210000D03*
X197940000Y-87750000D03*
X199440000Y-87750000D03*
X104290000Y-107070000D03*
X105790000Y-107070000D03*
X101300000Y-105370000D03*
X102800000Y-105370000D03*
D18*
X196140000Y-79170000D03*
X196140000Y-80670000D03*
D17*
X132770000Y-87130000D03*
X131270000Y-87130000D03*
D18*
X119000000Y-79250000D03*
X119000000Y-80750000D03*
D17*
X196930000Y-119790000D03*
X198430000Y-119790000D03*
X198440000Y-117620000D03*
X196940000Y-117620000D03*
D18*
X171000000Y-80750000D03*
X171000000Y-79250000D03*
D19*
X179910000Y-124490000D03*
X179910000Y-129570000D03*
X172290000Y-124490000D03*
X172290000Y-129570000D03*
D20*
X111502000Y-125970000D03*
D21*
X104898000Y-125970000D03*
X104898000Y-128256000D03*
X104898000Y-123684000D03*
D22*
X131650000Y-111310000D03*
X131650000Y-112260000D03*
X131650000Y-113210000D03*
X133850000Y-113210000D03*
X133850000Y-111310000D03*
X133850000Y-112260000D03*
D23*
X151564000Y-129735000D03*
X151564000Y-128465000D03*
X151564000Y-127195000D03*
X151564000Y-125925000D03*
X145976000Y-125925000D03*
X145976000Y-127195000D03*
X145976000Y-128465000D03*
X145976000Y-129735000D03*
D24*
X186140000Y-83920000D03*
D25*
X188680000Y-83920000D03*
X191220000Y-83920000D03*
X193760000Y-83920000D03*
X196300000Y-83920000D03*
X198840000Y-83920000D03*
X201380000Y-83920000D03*
D24*
X137000000Y-84000000D03*
D25*
X134460000Y-84000000D03*
X131920000Y-84000000D03*
X129380000Y-84000000D03*
X126840000Y-84000000D03*
X124300000Y-84000000D03*
X121760000Y-84000000D03*
X119220000Y-84000000D03*
X116680000Y-84000000D03*
D24*
X174000000Y-84000000D03*
D25*
X171460000Y-84000000D03*
X168920000Y-84000000D03*
X166380000Y-84000000D03*
X163840000Y-84000000D03*
X161300000Y-84000000D03*
X158760000Y-84000000D03*
X156220000Y-84000000D03*
X153680000Y-84000000D03*
X151140000Y-84000000D03*
X148600000Y-84000000D03*
D26*
X187710000Y-114390000D03*
D27*
X181710000Y-113120000D03*
X181710000Y-115660000D03*
D28*
X183940000Y-102370000D03*
X187940000Y-102370000D03*
D29*
X107140000Y-80920000D03*
X83140000Y-130920000D03*
X213140000Y-130920000D03*
X213140000Y-80920000D03*
D30*
X148330000Y-102330000D03*
X148330000Y-102730000D03*
X148330000Y-103130000D03*
X148330000Y-103530000D03*
X148330000Y-103930000D03*
X148330000Y-104330000D03*
X148330000Y-104730000D03*
X148330000Y-105130000D03*
X148330000Y-105530000D03*
X148330000Y-105930000D03*
X148330000Y-106330000D03*
X148330000Y-106730000D03*
X148330000Y-107130000D03*
X148330000Y-107530000D03*
X148330000Y-107930000D03*
X148330000Y-108330000D03*
X148330000Y-108730000D03*
X148330000Y-109130000D03*
X148330000Y-109530000D03*
X148330000Y-109930000D03*
X148330000Y-110330000D03*
X148330000Y-110730000D03*
X148330000Y-111130000D03*
X148330000Y-111530000D03*
X148330000Y-111930000D03*
X148330000Y-112330000D03*
X148330000Y-112730000D03*
X148330000Y-113130000D03*
X148330000Y-113530000D03*
X148330000Y-113930000D03*
X148330000Y-114330000D03*
X148330000Y-114730000D03*
D31*
X149830000Y-116230000D03*
X150230000Y-116230000D03*
X150630000Y-116230000D03*
X151030000Y-116230000D03*
X151430000Y-116230000D03*
X151830000Y-116230000D03*
X152230000Y-116230000D03*
X152630000Y-116230000D03*
X153030000Y-116230000D03*
X153430000Y-116230000D03*
X153830000Y-116230000D03*
X154230000Y-116230000D03*
X154630000Y-116230000D03*
X155030000Y-116230000D03*
X155430000Y-116230000D03*
X155830000Y-116230000D03*
X156230000Y-116230000D03*
X156630000Y-116230000D03*
X157030000Y-116230000D03*
X157430000Y-116230000D03*
X157830000Y-116230000D03*
X158230000Y-116230000D03*
X158630000Y-116230000D03*
X159030000Y-116230000D03*
X159430000Y-116230000D03*
X159830000Y-116230000D03*
X160230000Y-116230000D03*
X160630000Y-116230000D03*
X161030000Y-116230000D03*
X161430000Y-116230000D03*
X161830000Y-116230000D03*
X162230000Y-116230000D03*
D30*
X163730000Y-114730000D03*
X163730000Y-114330000D03*
X163730000Y-113930000D03*
X163730000Y-113530000D03*
X163730000Y-113130000D03*
X163730000Y-112730000D03*
X163730000Y-112330000D03*
X163730000Y-111930000D03*
X163730000Y-111530000D03*
X163730000Y-111130000D03*
X163730000Y-110730000D03*
X163730000Y-110330000D03*
X163730000Y-109930000D03*
X163730000Y-109530000D03*
X163730000Y-109130000D03*
X163730000Y-108730000D03*
X163730000Y-108330000D03*
X163730000Y-107930000D03*
X163730000Y-107530000D03*
X163730000Y-107130000D03*
X163730000Y-106730000D03*
X163730000Y-106330000D03*
X163730000Y-105930000D03*
X163730000Y-105530000D03*
X163730000Y-105130000D03*
X163730000Y-104730000D03*
X163730000Y-104330000D03*
X163730000Y-103930000D03*
X163730000Y-103530000D03*
X163730000Y-103130000D03*
X163730000Y-102730000D03*
X163730000Y-102330000D03*
D31*
X162230000Y-100830000D03*
X161830000Y-100830000D03*
X161430000Y-100830000D03*
X161030000Y-100830000D03*
X160630000Y-100830000D03*
X160230000Y-100830000D03*
X159830000Y-100830000D03*
X159430000Y-100830000D03*
X159030000Y-100830000D03*
X158630000Y-100830000D03*
X158230000Y-100830000D03*
X157830000Y-100830000D03*
X157430000Y-100830000D03*
X157030000Y-100830000D03*
X156630000Y-100830000D03*
X156230000Y-100830000D03*
X155830000Y-100830000D03*
X155430000Y-100830000D03*
X155030000Y-100830000D03*
X154630000Y-100830000D03*
X154230000Y-100830000D03*
X153830000Y-100830000D03*
X153430000Y-100830000D03*
X153030000Y-100830000D03*
X152630000Y-100830000D03*
X152230000Y-100830000D03*
X151830000Y-100830000D03*
X151430000Y-100830000D03*
X151030000Y-100830000D03*
X150630000Y-100830000D03*
X150230000Y-100830000D03*
X149830000Y-100830000D03*
D11*
X167440000Y-105930000D03*
X168940000Y-105930000D03*
D32*
X97536000Y-93218000D03*
D33*
X94996000Y-93218000D03*
X97536000Y-95758000D03*
X94996000Y-95758000D03*
X97536000Y-98298000D03*
X94996000Y-98298000D03*
X97536000Y-100838000D03*
X94996000Y-100838000D03*
X97536000Y-103378000D03*
X94996000Y-103378000D03*
X97536000Y-105918000D03*
X94996000Y-105918000D03*
X97536000Y-108458000D03*
X94996000Y-108458000D03*
X97536000Y-110998000D03*
X94996000Y-110998000D03*
X97536000Y-113538000D03*
X94996000Y-113538000D03*
X97536000Y-116078000D03*
X94996000Y-116078000D03*
X97536000Y-118618000D03*
X94996000Y-118618000D03*
X97536000Y-121158000D03*
X94996000Y-121158000D03*
X97536000Y-123698000D03*
X94996000Y-123698000D03*
D14*
X139580000Y-132210000D03*
X140980000Y-132210000D03*
X147370000Y-123890000D03*
X145970000Y-123890000D03*
D15*
X165500000Y-129500000D03*
D16*
X162960000Y-129500000D03*
D17*
X159250000Y-129500000D03*
X160750000Y-129500000D03*
D32*
X188270000Y-127260000D03*
D33*
X188270000Y-124720000D03*
X190810000Y-127260000D03*
X190810000Y-124720000D03*
X193350000Y-127260000D03*
X193350000Y-124720000D03*
X195890000Y-127260000D03*
X195890000Y-124720000D03*
X198430000Y-127260000D03*
X198430000Y-124720000D03*
D17*
X167850000Y-110870000D03*
X169350000Y-110870000D03*
D34*
X133880000Y-94410000D03*
D35*
X136420000Y-94410000D03*
D17*
X181300000Y-106310000D03*
X182800000Y-106310000D03*
X185030000Y-106940000D03*
X186530000Y-106940000D03*
X205690000Y-110570000D03*
X204190000Y-110570000D03*
M02*
