G04 #@! TF.FileFunction,Copper,L2,Inr,Plane*
%FSLAX46Y46*%
G04 Gerber Fmt 4.6, Leading zero omitted, Abs format (unit mm)*
G04 Created by KiCad (PCBNEW 4.0.2-stable) date 7/12/2016 4:32:09 PM*
%MOMM*%
G01*
G04 APERTURE LIST*
%ADD10C,0.100000*%
%ADD11R,2.000000X2.000000*%
%ADD12C,2.000000*%
%ADD13C,1.397000*%
%ADD14R,1.727200X2.032000*%
%ADD15O,1.727200X2.032000*%
%ADD16C,3.000000*%
%ADD17R,1.727200X1.727200*%
%ADD18O,1.727200X1.727200*%
%ADD19R,2.032000X2.032000*%
%ADD20O,2.032000X2.032000*%
%ADD21C,0.700000*%
%ADD22C,0.254000*%
G04 APERTURE END LIST*
D10*
D11*
X122420000Y-122240000D03*
D12*
X119880000Y-122240000D03*
D11*
X122420000Y-130150000D03*
D12*
X119880000Y-130150000D03*
D11*
X190140000Y-79920000D03*
D12*
X192680000Y-79920000D03*
D11*
X125000000Y-80000000D03*
D12*
X122460000Y-80000000D03*
D11*
X176000000Y-80000000D03*
D12*
X173460000Y-80000000D03*
D13*
X179910000Y-124490000D03*
X179910000Y-129570000D03*
X172290000Y-124490000D03*
X172290000Y-129570000D03*
D14*
X186140000Y-83920000D03*
D15*
X188680000Y-83920000D03*
X191220000Y-83920000D03*
X193760000Y-83920000D03*
X196300000Y-83920000D03*
X198840000Y-83920000D03*
X201380000Y-83920000D03*
D14*
X137000000Y-84000000D03*
D15*
X134460000Y-84000000D03*
X131920000Y-84000000D03*
X129380000Y-84000000D03*
X126840000Y-84000000D03*
X124300000Y-84000000D03*
X121760000Y-84000000D03*
X119220000Y-84000000D03*
X116680000Y-84000000D03*
D14*
X174000000Y-84000000D03*
D15*
X171460000Y-84000000D03*
X168920000Y-84000000D03*
X166380000Y-84000000D03*
X163840000Y-84000000D03*
X161300000Y-84000000D03*
X158760000Y-84000000D03*
X156220000Y-84000000D03*
X153680000Y-84000000D03*
X151140000Y-84000000D03*
X148600000Y-84000000D03*
D16*
X107140000Y-80920000D03*
X83140000Y-130920000D03*
X213140000Y-130920000D03*
X213140000Y-80920000D03*
D17*
X97536000Y-93218000D03*
D18*
X94996000Y-93218000D03*
X97536000Y-95758000D03*
X94996000Y-95758000D03*
X97536000Y-98298000D03*
X94996000Y-98298000D03*
X97536000Y-100838000D03*
X94996000Y-100838000D03*
X97536000Y-103378000D03*
X94996000Y-103378000D03*
X97536000Y-105918000D03*
X94996000Y-105918000D03*
X97536000Y-108458000D03*
X94996000Y-108458000D03*
X97536000Y-110998000D03*
X94996000Y-110998000D03*
X97536000Y-113538000D03*
X94996000Y-113538000D03*
X97536000Y-116078000D03*
X94996000Y-116078000D03*
X97536000Y-118618000D03*
X94996000Y-118618000D03*
X97536000Y-121158000D03*
X94996000Y-121158000D03*
X97536000Y-123698000D03*
X94996000Y-123698000D03*
D11*
X165500000Y-129500000D03*
D12*
X162960000Y-129500000D03*
D17*
X188270000Y-127260000D03*
D18*
X188270000Y-124720000D03*
X190810000Y-127260000D03*
X190810000Y-124720000D03*
X193350000Y-127260000D03*
X193350000Y-124720000D03*
X195890000Y-127260000D03*
X195890000Y-124720000D03*
X198430000Y-127260000D03*
X198430000Y-124720000D03*
D19*
X133880000Y-94410000D03*
D20*
X136420000Y-94410000D03*
D21*
X118260000Y-105340000D03*
X114500000Y-102840000D03*
X169350000Y-109140000D03*
X189730000Y-129760000D03*
X90910000Y-128930000D03*
X181480000Y-132930000D03*
X148910000Y-124430000D03*
X137530000Y-131290000D03*
X100480000Y-128160000D03*
X102630000Y-125970000D03*
X147750000Y-120160000D03*
X86110000Y-108490000D03*
X86050000Y-114160000D03*
X145980000Y-131330000D03*
X83620000Y-114340000D03*
X109570000Y-108630000D03*
X152260000Y-108730000D03*
X129490000Y-111310000D03*
X138580000Y-115090000D03*
X200060000Y-115200000D03*
X170340000Y-105930000D03*
X169240000Y-115850000D03*
X81230000Y-109520000D03*
X80550000Y-103680000D03*
X80760000Y-97520000D03*
X90810000Y-102170000D03*
X80650000Y-91680000D03*
X87380000Y-91680000D03*
X114200000Y-113210000D03*
X106920000Y-114520000D03*
X114370000Y-107070000D03*
X107110000Y-104440000D03*
X106990000Y-98210000D03*
X114210000Y-99270000D03*
X112470000Y-91280000D03*
X105710000Y-91530000D03*
X160380000Y-125500000D03*
X138620000Y-124560000D03*
X114240000Y-125970000D03*
X108050000Y-120390000D03*
X109890000Y-132270000D03*
X162120000Y-108330000D03*
X168870000Y-104120000D03*
X155940000Y-103510000D03*
X158890000Y-92210000D03*
X159830000Y-114760000D03*
X118400000Y-93120000D03*
X116540000Y-89790000D03*
X150330000Y-103970000D03*
X144770000Y-104810000D03*
X121330000Y-108810000D03*
X121330000Y-105370000D03*
X118430000Y-94050000D03*
X110180000Y-91520000D03*
X144790000Y-103880000D03*
X149600000Y-103300000D03*
X85000000Y-103840000D03*
X114480000Y-105750000D03*
X120240000Y-108780000D03*
X120250000Y-104470000D03*
X84940000Y-90120000D03*
X117450000Y-94660000D03*
X149750000Y-127200000D03*
X149280000Y-130980000D03*
X164810000Y-117390000D03*
X168410000Y-117390000D03*
X165200000Y-114410000D03*
X173760000Y-113870000D03*
X179470000Y-106940000D03*
X184340000Y-108460000D03*
X204830000Y-114280000D03*
X188270000Y-129360000D03*
X135730000Y-130120000D03*
X178100000Y-132120000D03*
X111760000Y-131600000D03*
X147710000Y-117960000D03*
X133850000Y-115010000D03*
X150040000Y-107820000D03*
X127310000Y-115410000D03*
X166790000Y-93770000D03*
X162380000Y-92830000D03*
X200010000Y-117620000D03*
X163720000Y-120510000D03*
X161320000Y-104730000D03*
X161970000Y-113130000D03*
X158210000Y-114040000D03*
X152230000Y-105040000D03*
X153390000Y-105050000D03*
X119980000Y-96740000D03*
X143960000Y-111240000D03*
X120140000Y-112550000D03*
X118280000Y-112270000D03*
X92560000Y-110030000D03*
X103120000Y-97430000D03*
X118350000Y-97480000D03*
X142240000Y-102310000D03*
X154400000Y-105060000D03*
X133850000Y-109240000D03*
X141640000Y-105540000D03*
X120170000Y-111500000D03*
X144960000Y-110340000D03*
X92480000Y-97300000D03*
X116050000Y-101160000D03*
X104240000Y-104090000D03*
X117380000Y-105840000D03*
X108170000Y-108300000D03*
X108030000Y-96430000D03*
X85010000Y-108500000D03*
X85110000Y-96350000D03*
X108250000Y-114570000D03*
X108170000Y-102580000D03*
X85020000Y-114670000D03*
X85110000Y-102410000D03*
X170020000Y-103340000D03*
X167850000Y-103340000D03*
X117800000Y-116870000D03*
X144110000Y-118790000D03*
X113450000Y-117670000D03*
X117730000Y-118000000D03*
X142830000Y-127650000D03*
X139900000Y-118880000D03*
X142160000Y-121140000D03*
X201380000Y-89200000D03*
X151550000Y-120590000D03*
X193760000Y-109580000D03*
X153030000Y-121390000D03*
X165680000Y-120510000D03*
X191820000Y-120480000D03*
X193990000Y-120480000D03*
X198840000Y-86130000D03*
X158190000Y-119680000D03*
X188680000Y-86920000D03*
X158740000Y-111980000D03*
X161070000Y-91140000D03*
X163090000Y-87760000D03*
X159740000Y-111940000D03*
X166830000Y-103380000D03*
X167620000Y-90340000D03*
X197990000Y-110570000D03*
X192960000Y-94370000D03*
X195800000Y-116460000D03*
X202900000Y-95720000D03*
X194810000Y-93310000D03*
X192980000Y-93330000D03*
X190400000Y-109420000D03*
X191600000Y-117650000D03*
X190480000Y-91440000D03*
X191410000Y-107450000D03*
X189500000Y-90020000D03*
X192700000Y-111620000D03*
X135780000Y-87110000D03*
X127550000Y-89720000D03*
X166010000Y-110860000D03*
X160900000Y-118630000D03*
X145350000Y-115760000D03*
X133870000Y-97480000D03*
X125150000Y-109130000D03*
X125150000Y-113980000D03*
X145090000Y-116770000D03*
X131520000Y-98560000D03*
X124160000Y-109140000D03*
X124160000Y-115480000D03*
X157610000Y-104780000D03*
X156180000Y-123540000D03*
X157770000Y-103330000D03*
X153230000Y-130530000D03*
D22*
G36*
X166635172Y-90143212D02*
X166634830Y-90535069D01*
X166784471Y-90897229D01*
X167061314Y-91174555D01*
X167423212Y-91324828D01*
X167815069Y-91325170D01*
X168177229Y-91175529D01*
X168454555Y-90898686D01*
X168604828Y-90536788D01*
X168605170Y-90144931D01*
X168597761Y-90127000D01*
X171373000Y-90127000D01*
X171373000Y-121373000D01*
X166170744Y-121373000D01*
X166237229Y-121345529D01*
X166514555Y-121068686D01*
X166664828Y-120706788D01*
X166665170Y-120314931D01*
X166515529Y-119952771D01*
X166238686Y-119675445D01*
X165876788Y-119525172D01*
X165484931Y-119524830D01*
X165122771Y-119674471D01*
X164845445Y-119951314D01*
X164699827Y-120302001D01*
X164555529Y-119952771D01*
X164278686Y-119675445D01*
X163916788Y-119525172D01*
X163524931Y-119524830D01*
X163162771Y-119674471D01*
X162885445Y-119951314D01*
X162735172Y-120313212D01*
X162734830Y-120705069D01*
X162884471Y-121067229D01*
X163161314Y-121344555D01*
X163229817Y-121373000D01*
X154015015Y-121373000D01*
X154015170Y-121194931D01*
X153865529Y-120832771D01*
X153588686Y-120555445D01*
X153226788Y-120405172D01*
X152834931Y-120404830D01*
X152535053Y-120528737D01*
X152535170Y-120394931D01*
X152385529Y-120032771D01*
X152228102Y-119875069D01*
X157204830Y-119875069D01*
X157354471Y-120237229D01*
X157631314Y-120514555D01*
X157993212Y-120664828D01*
X158385069Y-120665170D01*
X158747229Y-120515529D01*
X159024555Y-120238686D01*
X159174828Y-119876788D01*
X159175170Y-119484931D01*
X159025529Y-119122771D01*
X158748686Y-118845445D01*
X158699616Y-118825069D01*
X159914830Y-118825069D01*
X160064471Y-119187229D01*
X160341314Y-119464555D01*
X160703212Y-119614828D01*
X161095069Y-119615170D01*
X161457229Y-119465529D01*
X161734555Y-119188686D01*
X161884828Y-118826788D01*
X161885170Y-118434931D01*
X161735529Y-118072771D01*
X161458686Y-117795445D01*
X161096788Y-117645172D01*
X160704931Y-117644830D01*
X160342771Y-117794471D01*
X160065445Y-118071314D01*
X159915172Y-118433212D01*
X159914830Y-118825069D01*
X158699616Y-118825069D01*
X158386788Y-118695172D01*
X157994931Y-118694830D01*
X157632771Y-118844471D01*
X157355445Y-119121314D01*
X157205172Y-119483212D01*
X157204830Y-119875069D01*
X152228102Y-119875069D01*
X152108686Y-119755445D01*
X151746788Y-119605172D01*
X151354931Y-119604830D01*
X150992771Y-119754471D01*
X150715445Y-120031314D01*
X150565172Y-120393212D01*
X150564830Y-120785069D01*
X150714471Y-121147229D01*
X150939849Y-121373000D01*
X145627000Y-121373000D01*
X145627000Y-118155069D01*
X146724830Y-118155069D01*
X146874471Y-118517229D01*
X147151314Y-118794555D01*
X147513212Y-118944828D01*
X147905069Y-118945170D01*
X148267229Y-118795529D01*
X148544555Y-118518686D01*
X148694828Y-118156788D01*
X148695170Y-117764931D01*
X148620853Y-117585069D01*
X163824830Y-117585069D01*
X163974471Y-117947229D01*
X164251314Y-118224555D01*
X164613212Y-118374828D01*
X165005069Y-118375170D01*
X165367229Y-118225529D01*
X165644555Y-117948686D01*
X165794828Y-117586788D01*
X165794829Y-117585069D01*
X167424830Y-117585069D01*
X167574471Y-117947229D01*
X167851314Y-118224555D01*
X168213212Y-118374828D01*
X168605069Y-118375170D01*
X168967229Y-118225529D01*
X169244555Y-117948686D01*
X169394828Y-117586788D01*
X169395170Y-117194931D01*
X169245529Y-116832771D01*
X168968686Y-116555445D01*
X168606788Y-116405172D01*
X168214931Y-116404830D01*
X167852771Y-116554471D01*
X167575445Y-116831314D01*
X167425172Y-117193212D01*
X167424830Y-117585069D01*
X165794829Y-117585069D01*
X165795170Y-117194931D01*
X165645529Y-116832771D01*
X165368686Y-116555445D01*
X165006788Y-116405172D01*
X164614931Y-116404830D01*
X164252771Y-116554471D01*
X163975445Y-116831314D01*
X163825172Y-117193212D01*
X163824830Y-117585069D01*
X148620853Y-117585069D01*
X148545529Y-117402771D01*
X148268686Y-117125445D01*
X147906788Y-116975172D01*
X147514931Y-116974830D01*
X147152771Y-117124471D01*
X146875445Y-117401314D01*
X146725172Y-117763212D01*
X146724830Y-118155069D01*
X145627000Y-118155069D01*
X145627000Y-117613887D01*
X145647229Y-117605529D01*
X145924555Y-117328686D01*
X146074828Y-116966788D01*
X146075170Y-116574931D01*
X146032153Y-116470822D01*
X146184555Y-116318686D01*
X146334828Y-115956788D01*
X146335170Y-115564931D01*
X146185529Y-115202771D01*
X145908686Y-114925445D01*
X145627000Y-114808479D01*
X145627000Y-114235069D01*
X157224830Y-114235069D01*
X157374471Y-114597229D01*
X157651314Y-114874555D01*
X158013212Y-115024828D01*
X158405069Y-115025170D01*
X158767229Y-114875529D01*
X159038160Y-114605069D01*
X164214830Y-114605069D01*
X164364471Y-114967229D01*
X164641314Y-115244555D01*
X165003212Y-115394828D01*
X165395069Y-115395170D01*
X165757229Y-115245529D01*
X166034555Y-114968686D01*
X166184828Y-114606788D01*
X166185170Y-114214931D01*
X166035529Y-113852771D01*
X165758686Y-113575445D01*
X165396788Y-113425172D01*
X165004931Y-113424830D01*
X164642771Y-113574471D01*
X164365445Y-113851314D01*
X164215172Y-114213212D01*
X164214830Y-114605069D01*
X159038160Y-114605069D01*
X159044555Y-114598686D01*
X159194828Y-114236788D01*
X159195170Y-113844931D01*
X159045529Y-113482771D01*
X158888102Y-113325069D01*
X160984830Y-113325069D01*
X161134471Y-113687229D01*
X161411314Y-113964555D01*
X161773212Y-114114828D01*
X162165069Y-114115170D01*
X162527229Y-113965529D01*
X162804555Y-113688686D01*
X162954828Y-113326788D01*
X162955170Y-112934931D01*
X162805529Y-112572771D01*
X162528686Y-112295445D01*
X162166788Y-112145172D01*
X161774931Y-112144830D01*
X161412771Y-112294471D01*
X161135445Y-112571314D01*
X160985172Y-112933212D01*
X160984830Y-113325069D01*
X158888102Y-113325069D01*
X158768686Y-113205445D01*
X158406788Y-113055172D01*
X158014931Y-113054830D01*
X157652771Y-113204471D01*
X157375445Y-113481314D01*
X157225172Y-113843212D01*
X157224830Y-114235069D01*
X145627000Y-114235069D01*
X145627000Y-112175069D01*
X157754830Y-112175069D01*
X157904471Y-112537229D01*
X158181314Y-112814555D01*
X158543212Y-112964828D01*
X158935069Y-112965170D01*
X159288588Y-112819099D01*
X159543212Y-112924828D01*
X159935069Y-112925170D01*
X160297229Y-112775529D01*
X160574555Y-112498686D01*
X160724828Y-112136788D01*
X160725170Y-111744931D01*
X160575529Y-111382771D01*
X160298686Y-111105445D01*
X160177367Y-111055069D01*
X165024830Y-111055069D01*
X165174471Y-111417229D01*
X165451314Y-111694555D01*
X165813212Y-111844828D01*
X166205069Y-111845170D01*
X166567229Y-111695529D01*
X166844555Y-111418686D01*
X166994828Y-111056788D01*
X166995170Y-110664931D01*
X166845529Y-110302771D01*
X166568686Y-110025445D01*
X166206788Y-109875172D01*
X165814931Y-109874830D01*
X165452771Y-110024471D01*
X165175445Y-110301314D01*
X165025172Y-110663212D01*
X165024830Y-111055069D01*
X160177367Y-111055069D01*
X159936788Y-110955172D01*
X159544931Y-110954830D01*
X159191412Y-111100901D01*
X158936788Y-110995172D01*
X158544931Y-110994830D01*
X158182771Y-111144471D01*
X157905445Y-111421314D01*
X157755172Y-111783212D01*
X157754830Y-112175069D01*
X145627000Y-112175069D01*
X145627000Y-111065949D01*
X145794555Y-110898686D01*
X145944828Y-110536788D01*
X145945170Y-110144931D01*
X145795529Y-109782771D01*
X145627000Y-109613948D01*
X145627000Y-108015069D01*
X149054830Y-108015069D01*
X149204471Y-108377229D01*
X149481314Y-108654555D01*
X149843212Y-108804828D01*
X150235069Y-108805170D01*
X150597229Y-108655529D01*
X150874555Y-108378686D01*
X151024828Y-108016788D01*
X151025170Y-107624931D01*
X150875529Y-107262771D01*
X150598686Y-106985445D01*
X150236788Y-106835172D01*
X149844931Y-106834830D01*
X149482771Y-106984471D01*
X149205445Y-107261314D01*
X149055172Y-107623212D01*
X149054830Y-108015069D01*
X145627000Y-108015069D01*
X145627000Y-105314632D01*
X145660037Y-105235069D01*
X151244830Y-105235069D01*
X151394471Y-105597229D01*
X151671314Y-105874555D01*
X152033212Y-106024828D01*
X152425069Y-106025170D01*
X152787229Y-105875529D01*
X152804797Y-105857992D01*
X152831314Y-105884555D01*
X153193212Y-106034828D01*
X153585069Y-106035170D01*
X153883245Y-105911966D01*
X154203212Y-106044828D01*
X154595069Y-106045170D01*
X154957229Y-105895529D01*
X155234555Y-105618686D01*
X155384828Y-105256788D01*
X155385073Y-104975069D01*
X156624830Y-104975069D01*
X156774471Y-105337229D01*
X157051314Y-105614555D01*
X157413212Y-105764828D01*
X157805069Y-105765170D01*
X158167229Y-105615529D01*
X158444555Y-105338686D01*
X158594828Y-104976788D01*
X158594873Y-104925069D01*
X160334830Y-104925069D01*
X160484471Y-105287229D01*
X160761314Y-105564555D01*
X161123212Y-105714828D01*
X161515069Y-105715170D01*
X161877229Y-105565529D01*
X162154555Y-105288686D01*
X162304828Y-104926788D01*
X162305170Y-104534931D01*
X162155529Y-104172771D01*
X161878686Y-103895445D01*
X161516788Y-103745172D01*
X161124931Y-103744830D01*
X160762771Y-103894471D01*
X160485445Y-104171314D01*
X160335172Y-104533212D01*
X160334830Y-104925069D01*
X158594873Y-104925069D01*
X158595170Y-104584931D01*
X158445529Y-104222771D01*
X158357861Y-104134950D01*
X158604555Y-103888686D01*
X158734780Y-103575069D01*
X165844830Y-103575069D01*
X165994471Y-103937229D01*
X166271314Y-104214555D01*
X166633212Y-104364828D01*
X167025069Y-104365170D01*
X167387229Y-104215529D01*
X167388040Y-104214719D01*
X167653212Y-104324828D01*
X168045069Y-104325170D01*
X168407229Y-104175529D01*
X168684555Y-103898686D01*
X168834828Y-103536788D01*
X168834829Y-103535069D01*
X169034830Y-103535069D01*
X169184471Y-103897229D01*
X169461314Y-104174555D01*
X169823212Y-104324828D01*
X170215069Y-104325170D01*
X170577229Y-104175529D01*
X170854555Y-103898686D01*
X171004828Y-103536788D01*
X171005170Y-103144931D01*
X170855529Y-102782771D01*
X170578686Y-102505445D01*
X170216788Y-102355172D01*
X169824931Y-102354830D01*
X169462771Y-102504471D01*
X169185445Y-102781314D01*
X169035172Y-103143212D01*
X169034830Y-103535069D01*
X168834829Y-103535069D01*
X168835170Y-103144931D01*
X168685529Y-102782771D01*
X168408686Y-102505445D01*
X168046788Y-102355172D01*
X167654931Y-102354830D01*
X167292771Y-102504471D01*
X167291960Y-102505281D01*
X167026788Y-102395172D01*
X166634931Y-102394830D01*
X166272771Y-102544471D01*
X165995445Y-102821314D01*
X165845172Y-103183212D01*
X165844830Y-103575069D01*
X158734780Y-103575069D01*
X158754828Y-103526788D01*
X158755170Y-103134931D01*
X158605529Y-102772771D01*
X158328686Y-102495445D01*
X157966788Y-102345172D01*
X157574931Y-102344830D01*
X157212771Y-102494471D01*
X156935445Y-102771314D01*
X156785172Y-103133212D01*
X156784830Y-103525069D01*
X156934471Y-103887229D01*
X157022139Y-103975050D01*
X156775445Y-104221314D01*
X156625172Y-104583212D01*
X156624830Y-104975069D01*
X155385073Y-104975069D01*
X155385170Y-104864931D01*
X155235529Y-104502771D01*
X154958686Y-104225445D01*
X154596788Y-104075172D01*
X154204931Y-104074830D01*
X153906755Y-104198034D01*
X153586788Y-104065172D01*
X153194931Y-104064830D01*
X152832771Y-104214471D01*
X152815203Y-104232008D01*
X152788686Y-104205445D01*
X152426788Y-104055172D01*
X152034931Y-104054830D01*
X151672771Y-104204471D01*
X151395445Y-104481314D01*
X151245172Y-104843212D01*
X151244830Y-105235069D01*
X145660037Y-105235069D01*
X145754828Y-105006788D01*
X145755170Y-104614931D01*
X145653522Y-104368924D01*
X145774828Y-104076788D01*
X145775170Y-103684931D01*
X145696721Y-103495069D01*
X148614830Y-103495069D01*
X148764471Y-103857229D01*
X149041314Y-104134555D01*
X149392470Y-104280368D01*
X149494471Y-104527229D01*
X149771314Y-104804555D01*
X150133212Y-104954828D01*
X150525069Y-104955170D01*
X150887229Y-104805529D01*
X151164555Y-104528686D01*
X151314828Y-104166788D01*
X151315170Y-103774931D01*
X151165529Y-103412771D01*
X150888686Y-103135445D01*
X150537530Y-102989632D01*
X150435529Y-102742771D01*
X150158686Y-102465445D01*
X149796788Y-102315172D01*
X149404931Y-102314830D01*
X149042771Y-102464471D01*
X148765445Y-102741314D01*
X148615172Y-103103212D01*
X148614830Y-103495069D01*
X145696721Y-103495069D01*
X145627000Y-103326331D01*
X145627000Y-93965069D01*
X165804830Y-93965069D01*
X165954471Y-94327229D01*
X166231314Y-94604555D01*
X166593212Y-94754828D01*
X166985069Y-94755170D01*
X167347229Y-94605529D01*
X167624555Y-94328686D01*
X167774828Y-93966788D01*
X167775170Y-93574931D01*
X167625529Y-93212771D01*
X167348686Y-92935445D01*
X166986788Y-92785172D01*
X166594931Y-92784830D01*
X166232771Y-92934471D01*
X165955445Y-93211314D01*
X165805172Y-93573212D01*
X165804830Y-93965069D01*
X145627000Y-93965069D01*
X145627000Y-93025069D01*
X161394830Y-93025069D01*
X161544471Y-93387229D01*
X161821314Y-93664555D01*
X162183212Y-93814828D01*
X162575069Y-93815170D01*
X162937229Y-93665529D01*
X163214555Y-93388686D01*
X163364828Y-93026788D01*
X163365170Y-92634931D01*
X163215529Y-92272771D01*
X162938686Y-91995445D01*
X162576788Y-91845172D01*
X162184931Y-91844830D01*
X161822771Y-91994471D01*
X161545445Y-92271314D01*
X161395172Y-92633212D01*
X161394830Y-93025069D01*
X145627000Y-93025069D01*
X145627000Y-91335069D01*
X160084830Y-91335069D01*
X160234471Y-91697229D01*
X160511314Y-91974555D01*
X160873212Y-92124828D01*
X161265069Y-92125170D01*
X161627229Y-91975529D01*
X161904555Y-91698686D01*
X162054828Y-91336788D01*
X162055170Y-90944931D01*
X161905529Y-90582771D01*
X161628686Y-90305445D01*
X161266788Y-90155172D01*
X160874931Y-90154830D01*
X160512771Y-90304471D01*
X160235445Y-90581314D01*
X160085172Y-90943212D01*
X160084830Y-91335069D01*
X145627000Y-91335069D01*
X145627000Y-90127000D01*
X166641904Y-90127000D01*
X166635172Y-90143212D01*
X166635172Y-90143212D01*
G37*
X166635172Y-90143212D02*
X166634830Y-90535069D01*
X166784471Y-90897229D01*
X167061314Y-91174555D01*
X167423212Y-91324828D01*
X167815069Y-91325170D01*
X168177229Y-91175529D01*
X168454555Y-90898686D01*
X168604828Y-90536788D01*
X168605170Y-90144931D01*
X168597761Y-90127000D01*
X171373000Y-90127000D01*
X171373000Y-121373000D01*
X166170744Y-121373000D01*
X166237229Y-121345529D01*
X166514555Y-121068686D01*
X166664828Y-120706788D01*
X166665170Y-120314931D01*
X166515529Y-119952771D01*
X166238686Y-119675445D01*
X165876788Y-119525172D01*
X165484931Y-119524830D01*
X165122771Y-119674471D01*
X164845445Y-119951314D01*
X164699827Y-120302001D01*
X164555529Y-119952771D01*
X164278686Y-119675445D01*
X163916788Y-119525172D01*
X163524931Y-119524830D01*
X163162771Y-119674471D01*
X162885445Y-119951314D01*
X162735172Y-120313212D01*
X162734830Y-120705069D01*
X162884471Y-121067229D01*
X163161314Y-121344555D01*
X163229817Y-121373000D01*
X154015015Y-121373000D01*
X154015170Y-121194931D01*
X153865529Y-120832771D01*
X153588686Y-120555445D01*
X153226788Y-120405172D01*
X152834931Y-120404830D01*
X152535053Y-120528737D01*
X152535170Y-120394931D01*
X152385529Y-120032771D01*
X152228102Y-119875069D01*
X157204830Y-119875069D01*
X157354471Y-120237229D01*
X157631314Y-120514555D01*
X157993212Y-120664828D01*
X158385069Y-120665170D01*
X158747229Y-120515529D01*
X159024555Y-120238686D01*
X159174828Y-119876788D01*
X159175170Y-119484931D01*
X159025529Y-119122771D01*
X158748686Y-118845445D01*
X158699616Y-118825069D01*
X159914830Y-118825069D01*
X160064471Y-119187229D01*
X160341314Y-119464555D01*
X160703212Y-119614828D01*
X161095069Y-119615170D01*
X161457229Y-119465529D01*
X161734555Y-119188686D01*
X161884828Y-118826788D01*
X161885170Y-118434931D01*
X161735529Y-118072771D01*
X161458686Y-117795445D01*
X161096788Y-117645172D01*
X160704931Y-117644830D01*
X160342771Y-117794471D01*
X160065445Y-118071314D01*
X159915172Y-118433212D01*
X159914830Y-118825069D01*
X158699616Y-118825069D01*
X158386788Y-118695172D01*
X157994931Y-118694830D01*
X157632771Y-118844471D01*
X157355445Y-119121314D01*
X157205172Y-119483212D01*
X157204830Y-119875069D01*
X152228102Y-119875069D01*
X152108686Y-119755445D01*
X151746788Y-119605172D01*
X151354931Y-119604830D01*
X150992771Y-119754471D01*
X150715445Y-120031314D01*
X150565172Y-120393212D01*
X150564830Y-120785069D01*
X150714471Y-121147229D01*
X150939849Y-121373000D01*
X145627000Y-121373000D01*
X145627000Y-118155069D01*
X146724830Y-118155069D01*
X146874471Y-118517229D01*
X147151314Y-118794555D01*
X147513212Y-118944828D01*
X147905069Y-118945170D01*
X148267229Y-118795529D01*
X148544555Y-118518686D01*
X148694828Y-118156788D01*
X148695170Y-117764931D01*
X148620853Y-117585069D01*
X163824830Y-117585069D01*
X163974471Y-117947229D01*
X164251314Y-118224555D01*
X164613212Y-118374828D01*
X165005069Y-118375170D01*
X165367229Y-118225529D01*
X165644555Y-117948686D01*
X165794828Y-117586788D01*
X165794829Y-117585069D01*
X167424830Y-117585069D01*
X167574471Y-117947229D01*
X167851314Y-118224555D01*
X168213212Y-118374828D01*
X168605069Y-118375170D01*
X168967229Y-118225529D01*
X169244555Y-117948686D01*
X169394828Y-117586788D01*
X169395170Y-117194931D01*
X169245529Y-116832771D01*
X168968686Y-116555445D01*
X168606788Y-116405172D01*
X168214931Y-116404830D01*
X167852771Y-116554471D01*
X167575445Y-116831314D01*
X167425172Y-117193212D01*
X167424830Y-117585069D01*
X165794829Y-117585069D01*
X165795170Y-117194931D01*
X165645529Y-116832771D01*
X165368686Y-116555445D01*
X165006788Y-116405172D01*
X164614931Y-116404830D01*
X164252771Y-116554471D01*
X163975445Y-116831314D01*
X163825172Y-117193212D01*
X163824830Y-117585069D01*
X148620853Y-117585069D01*
X148545529Y-117402771D01*
X148268686Y-117125445D01*
X147906788Y-116975172D01*
X147514931Y-116974830D01*
X147152771Y-117124471D01*
X146875445Y-117401314D01*
X146725172Y-117763212D01*
X146724830Y-118155069D01*
X145627000Y-118155069D01*
X145627000Y-117613887D01*
X145647229Y-117605529D01*
X145924555Y-117328686D01*
X146074828Y-116966788D01*
X146075170Y-116574931D01*
X146032153Y-116470822D01*
X146184555Y-116318686D01*
X146334828Y-115956788D01*
X146335170Y-115564931D01*
X146185529Y-115202771D01*
X145908686Y-114925445D01*
X145627000Y-114808479D01*
X145627000Y-114235069D01*
X157224830Y-114235069D01*
X157374471Y-114597229D01*
X157651314Y-114874555D01*
X158013212Y-115024828D01*
X158405069Y-115025170D01*
X158767229Y-114875529D01*
X159038160Y-114605069D01*
X164214830Y-114605069D01*
X164364471Y-114967229D01*
X164641314Y-115244555D01*
X165003212Y-115394828D01*
X165395069Y-115395170D01*
X165757229Y-115245529D01*
X166034555Y-114968686D01*
X166184828Y-114606788D01*
X166185170Y-114214931D01*
X166035529Y-113852771D01*
X165758686Y-113575445D01*
X165396788Y-113425172D01*
X165004931Y-113424830D01*
X164642771Y-113574471D01*
X164365445Y-113851314D01*
X164215172Y-114213212D01*
X164214830Y-114605069D01*
X159038160Y-114605069D01*
X159044555Y-114598686D01*
X159194828Y-114236788D01*
X159195170Y-113844931D01*
X159045529Y-113482771D01*
X158888102Y-113325069D01*
X160984830Y-113325069D01*
X161134471Y-113687229D01*
X161411314Y-113964555D01*
X161773212Y-114114828D01*
X162165069Y-114115170D01*
X162527229Y-113965529D01*
X162804555Y-113688686D01*
X162954828Y-113326788D01*
X162955170Y-112934931D01*
X162805529Y-112572771D01*
X162528686Y-112295445D01*
X162166788Y-112145172D01*
X161774931Y-112144830D01*
X161412771Y-112294471D01*
X161135445Y-112571314D01*
X160985172Y-112933212D01*
X160984830Y-113325069D01*
X158888102Y-113325069D01*
X158768686Y-113205445D01*
X158406788Y-113055172D01*
X158014931Y-113054830D01*
X157652771Y-113204471D01*
X157375445Y-113481314D01*
X157225172Y-113843212D01*
X157224830Y-114235069D01*
X145627000Y-114235069D01*
X145627000Y-112175069D01*
X157754830Y-112175069D01*
X157904471Y-112537229D01*
X158181314Y-112814555D01*
X158543212Y-112964828D01*
X158935069Y-112965170D01*
X159288588Y-112819099D01*
X159543212Y-112924828D01*
X159935069Y-112925170D01*
X160297229Y-112775529D01*
X160574555Y-112498686D01*
X160724828Y-112136788D01*
X160725170Y-111744931D01*
X160575529Y-111382771D01*
X160298686Y-111105445D01*
X160177367Y-111055069D01*
X165024830Y-111055069D01*
X165174471Y-111417229D01*
X165451314Y-111694555D01*
X165813212Y-111844828D01*
X166205069Y-111845170D01*
X166567229Y-111695529D01*
X166844555Y-111418686D01*
X166994828Y-111056788D01*
X166995170Y-110664931D01*
X166845529Y-110302771D01*
X166568686Y-110025445D01*
X166206788Y-109875172D01*
X165814931Y-109874830D01*
X165452771Y-110024471D01*
X165175445Y-110301314D01*
X165025172Y-110663212D01*
X165024830Y-111055069D01*
X160177367Y-111055069D01*
X159936788Y-110955172D01*
X159544931Y-110954830D01*
X159191412Y-111100901D01*
X158936788Y-110995172D01*
X158544931Y-110994830D01*
X158182771Y-111144471D01*
X157905445Y-111421314D01*
X157755172Y-111783212D01*
X157754830Y-112175069D01*
X145627000Y-112175069D01*
X145627000Y-111065949D01*
X145794555Y-110898686D01*
X145944828Y-110536788D01*
X145945170Y-110144931D01*
X145795529Y-109782771D01*
X145627000Y-109613948D01*
X145627000Y-108015069D01*
X149054830Y-108015069D01*
X149204471Y-108377229D01*
X149481314Y-108654555D01*
X149843212Y-108804828D01*
X150235069Y-108805170D01*
X150597229Y-108655529D01*
X150874555Y-108378686D01*
X151024828Y-108016788D01*
X151025170Y-107624931D01*
X150875529Y-107262771D01*
X150598686Y-106985445D01*
X150236788Y-106835172D01*
X149844931Y-106834830D01*
X149482771Y-106984471D01*
X149205445Y-107261314D01*
X149055172Y-107623212D01*
X149054830Y-108015069D01*
X145627000Y-108015069D01*
X145627000Y-105314632D01*
X145660037Y-105235069D01*
X151244830Y-105235069D01*
X151394471Y-105597229D01*
X151671314Y-105874555D01*
X152033212Y-106024828D01*
X152425069Y-106025170D01*
X152787229Y-105875529D01*
X152804797Y-105857992D01*
X152831314Y-105884555D01*
X153193212Y-106034828D01*
X153585069Y-106035170D01*
X153883245Y-105911966D01*
X154203212Y-106044828D01*
X154595069Y-106045170D01*
X154957229Y-105895529D01*
X155234555Y-105618686D01*
X155384828Y-105256788D01*
X155385073Y-104975069D01*
X156624830Y-104975069D01*
X156774471Y-105337229D01*
X157051314Y-105614555D01*
X157413212Y-105764828D01*
X157805069Y-105765170D01*
X158167229Y-105615529D01*
X158444555Y-105338686D01*
X158594828Y-104976788D01*
X158594873Y-104925069D01*
X160334830Y-104925069D01*
X160484471Y-105287229D01*
X160761314Y-105564555D01*
X161123212Y-105714828D01*
X161515069Y-105715170D01*
X161877229Y-105565529D01*
X162154555Y-105288686D01*
X162304828Y-104926788D01*
X162305170Y-104534931D01*
X162155529Y-104172771D01*
X161878686Y-103895445D01*
X161516788Y-103745172D01*
X161124931Y-103744830D01*
X160762771Y-103894471D01*
X160485445Y-104171314D01*
X160335172Y-104533212D01*
X160334830Y-104925069D01*
X158594873Y-104925069D01*
X158595170Y-104584931D01*
X158445529Y-104222771D01*
X158357861Y-104134950D01*
X158604555Y-103888686D01*
X158734780Y-103575069D01*
X165844830Y-103575069D01*
X165994471Y-103937229D01*
X166271314Y-104214555D01*
X166633212Y-104364828D01*
X167025069Y-104365170D01*
X167387229Y-104215529D01*
X167388040Y-104214719D01*
X167653212Y-104324828D01*
X168045069Y-104325170D01*
X168407229Y-104175529D01*
X168684555Y-103898686D01*
X168834828Y-103536788D01*
X168834829Y-103535069D01*
X169034830Y-103535069D01*
X169184471Y-103897229D01*
X169461314Y-104174555D01*
X169823212Y-104324828D01*
X170215069Y-104325170D01*
X170577229Y-104175529D01*
X170854555Y-103898686D01*
X171004828Y-103536788D01*
X171005170Y-103144931D01*
X170855529Y-102782771D01*
X170578686Y-102505445D01*
X170216788Y-102355172D01*
X169824931Y-102354830D01*
X169462771Y-102504471D01*
X169185445Y-102781314D01*
X169035172Y-103143212D01*
X169034830Y-103535069D01*
X168834829Y-103535069D01*
X168835170Y-103144931D01*
X168685529Y-102782771D01*
X168408686Y-102505445D01*
X168046788Y-102355172D01*
X167654931Y-102354830D01*
X167292771Y-102504471D01*
X167291960Y-102505281D01*
X167026788Y-102395172D01*
X166634931Y-102394830D01*
X166272771Y-102544471D01*
X165995445Y-102821314D01*
X165845172Y-103183212D01*
X165844830Y-103575069D01*
X158734780Y-103575069D01*
X158754828Y-103526788D01*
X158755170Y-103134931D01*
X158605529Y-102772771D01*
X158328686Y-102495445D01*
X157966788Y-102345172D01*
X157574931Y-102344830D01*
X157212771Y-102494471D01*
X156935445Y-102771314D01*
X156785172Y-103133212D01*
X156784830Y-103525069D01*
X156934471Y-103887229D01*
X157022139Y-103975050D01*
X156775445Y-104221314D01*
X156625172Y-104583212D01*
X156624830Y-104975069D01*
X155385073Y-104975069D01*
X155385170Y-104864931D01*
X155235529Y-104502771D01*
X154958686Y-104225445D01*
X154596788Y-104075172D01*
X154204931Y-104074830D01*
X153906755Y-104198034D01*
X153586788Y-104065172D01*
X153194931Y-104064830D01*
X152832771Y-104214471D01*
X152815203Y-104232008D01*
X152788686Y-104205445D01*
X152426788Y-104055172D01*
X152034931Y-104054830D01*
X151672771Y-104204471D01*
X151395445Y-104481314D01*
X151245172Y-104843212D01*
X151244830Y-105235069D01*
X145660037Y-105235069D01*
X145754828Y-105006788D01*
X145755170Y-104614931D01*
X145653522Y-104368924D01*
X145774828Y-104076788D01*
X145775170Y-103684931D01*
X145696721Y-103495069D01*
X148614830Y-103495069D01*
X148764471Y-103857229D01*
X149041314Y-104134555D01*
X149392470Y-104280368D01*
X149494471Y-104527229D01*
X149771314Y-104804555D01*
X150133212Y-104954828D01*
X150525069Y-104955170D01*
X150887229Y-104805529D01*
X151164555Y-104528686D01*
X151314828Y-104166788D01*
X151315170Y-103774931D01*
X151165529Y-103412771D01*
X150888686Y-103135445D01*
X150537530Y-102989632D01*
X150435529Y-102742771D01*
X150158686Y-102465445D01*
X149796788Y-102315172D01*
X149404931Y-102314830D01*
X149042771Y-102464471D01*
X148765445Y-102741314D01*
X148615172Y-103103212D01*
X148614830Y-103495069D01*
X145696721Y-103495069D01*
X145627000Y-103326331D01*
X145627000Y-93965069D01*
X165804830Y-93965069D01*
X165954471Y-94327229D01*
X166231314Y-94604555D01*
X166593212Y-94754828D01*
X166985069Y-94755170D01*
X167347229Y-94605529D01*
X167624555Y-94328686D01*
X167774828Y-93966788D01*
X167775170Y-93574931D01*
X167625529Y-93212771D01*
X167348686Y-92935445D01*
X166986788Y-92785172D01*
X166594931Y-92784830D01*
X166232771Y-92934471D01*
X165955445Y-93211314D01*
X165805172Y-93573212D01*
X165804830Y-93965069D01*
X145627000Y-93965069D01*
X145627000Y-93025069D01*
X161394830Y-93025069D01*
X161544471Y-93387229D01*
X161821314Y-93664555D01*
X162183212Y-93814828D01*
X162575069Y-93815170D01*
X162937229Y-93665529D01*
X163214555Y-93388686D01*
X163364828Y-93026788D01*
X163365170Y-92634931D01*
X163215529Y-92272771D01*
X162938686Y-91995445D01*
X162576788Y-91845172D01*
X162184931Y-91844830D01*
X161822771Y-91994471D01*
X161545445Y-92271314D01*
X161395172Y-92633212D01*
X161394830Y-93025069D01*
X145627000Y-93025069D01*
X145627000Y-91335069D01*
X160084830Y-91335069D01*
X160234471Y-91697229D01*
X160511314Y-91974555D01*
X160873212Y-92124828D01*
X161265069Y-92125170D01*
X161627229Y-91975529D01*
X161904555Y-91698686D01*
X162054828Y-91336788D01*
X162055170Y-90944931D01*
X161905529Y-90582771D01*
X161628686Y-90305445D01*
X161266788Y-90155172D01*
X160874931Y-90154830D01*
X160512771Y-90304471D01*
X160235445Y-90581314D01*
X160085172Y-90943212D01*
X160084830Y-91335069D01*
X145627000Y-91335069D01*
X145627000Y-90127000D01*
X166641904Y-90127000D01*
X166635172Y-90143212D01*
G36*
X155195172Y-123343212D02*
X155194830Y-123735069D01*
X155344471Y-124097229D01*
X155621314Y-124374555D01*
X155983212Y-124524828D01*
X156375069Y-124525170D01*
X156737229Y-124375529D01*
X157014555Y-124098686D01*
X157164828Y-123736788D01*
X157165170Y-123344931D01*
X157075123Y-123127000D01*
X167373000Y-123127000D01*
X167373000Y-132373000D01*
X136627000Y-132373000D01*
X136627000Y-131175069D01*
X148294830Y-131175069D01*
X148444471Y-131537229D01*
X148721314Y-131814555D01*
X149083212Y-131964828D01*
X149475069Y-131965170D01*
X149837229Y-131815529D01*
X150114555Y-131538686D01*
X150264828Y-131176788D01*
X150265170Y-130784931D01*
X150240436Y-130725069D01*
X152244830Y-130725069D01*
X152394471Y-131087229D01*
X152671314Y-131364555D01*
X153033212Y-131514828D01*
X153425069Y-131515170D01*
X153787229Y-131365529D01*
X154064555Y-131088686D01*
X154214828Y-130726788D01*
X154215170Y-130334931D01*
X154065529Y-129972771D01*
X153916813Y-129823795D01*
X161324716Y-129823795D01*
X161573106Y-130424943D01*
X162032637Y-130885278D01*
X162633352Y-131134716D01*
X163283795Y-131135284D01*
X163884943Y-130886894D01*
X163947197Y-130824749D01*
X163961673Y-130859698D01*
X164140301Y-131038327D01*
X164373690Y-131135000D01*
X165214250Y-131135000D01*
X165373000Y-130976250D01*
X165373000Y-129627000D01*
X165627000Y-129627000D01*
X165627000Y-130976250D01*
X165785750Y-131135000D01*
X166626310Y-131135000D01*
X166859699Y-131038327D01*
X167038327Y-130859698D01*
X167135000Y-130626309D01*
X167135000Y-129785750D01*
X166976250Y-129627000D01*
X165627000Y-129627000D01*
X165373000Y-129627000D01*
X165353000Y-129627000D01*
X165353000Y-129373000D01*
X165373000Y-129373000D01*
X165373000Y-128023750D01*
X165627000Y-128023750D01*
X165627000Y-129373000D01*
X166976250Y-129373000D01*
X167135000Y-129214250D01*
X167135000Y-128373691D01*
X167038327Y-128140302D01*
X166859699Y-127961673D01*
X166626310Y-127865000D01*
X165785750Y-127865000D01*
X165627000Y-128023750D01*
X165373000Y-128023750D01*
X165214250Y-127865000D01*
X164373690Y-127865000D01*
X164140301Y-127961673D01*
X163961673Y-128140302D01*
X163947370Y-128174834D01*
X163887363Y-128114722D01*
X163286648Y-127865284D01*
X162636205Y-127864716D01*
X162035057Y-128113106D01*
X161574722Y-128572637D01*
X161325284Y-129173352D01*
X161324716Y-129823795D01*
X153916813Y-129823795D01*
X153788686Y-129695445D01*
X153426788Y-129545172D01*
X153034931Y-129544830D01*
X152672771Y-129694471D01*
X152395445Y-129971314D01*
X152245172Y-130333212D01*
X152244830Y-130725069D01*
X150240436Y-130725069D01*
X150115529Y-130422771D01*
X149838686Y-130145445D01*
X149476788Y-129995172D01*
X149084931Y-129994830D01*
X148722771Y-130144471D01*
X148445445Y-130421314D01*
X148295172Y-130783212D01*
X148294830Y-131175069D01*
X136627000Y-131175069D01*
X136627000Y-130528302D01*
X136714828Y-130316788D01*
X136715170Y-129924931D01*
X136627000Y-129711543D01*
X136627000Y-127845069D01*
X141844830Y-127845069D01*
X141994471Y-128207229D01*
X142271314Y-128484555D01*
X142633212Y-128634828D01*
X143025069Y-128635170D01*
X143387229Y-128485529D01*
X143664555Y-128208686D01*
X143814828Y-127846788D01*
X143815170Y-127454931D01*
X143790436Y-127395069D01*
X148764830Y-127395069D01*
X148914471Y-127757229D01*
X149191314Y-128034555D01*
X149553212Y-128184828D01*
X149945069Y-128185170D01*
X150307229Y-128035529D01*
X150584555Y-127758686D01*
X150734828Y-127396788D01*
X150735170Y-127004931D01*
X150585529Y-126642771D01*
X150308686Y-126365445D01*
X149946788Y-126215172D01*
X149554931Y-126214830D01*
X149192771Y-126364471D01*
X148915445Y-126641314D01*
X148765172Y-127003212D01*
X148764830Y-127395069D01*
X143790436Y-127395069D01*
X143665529Y-127092771D01*
X143388686Y-126815445D01*
X143026788Y-126665172D01*
X142634931Y-126664830D01*
X142272771Y-126814471D01*
X141995445Y-127091314D01*
X141845172Y-127453212D01*
X141844830Y-127845069D01*
X136627000Y-127845069D01*
X136627000Y-123127000D01*
X155284951Y-123127000D01*
X155195172Y-123343212D01*
X155195172Y-123343212D01*
G37*
X155195172Y-123343212D02*
X155194830Y-123735069D01*
X155344471Y-124097229D01*
X155621314Y-124374555D01*
X155983212Y-124524828D01*
X156375069Y-124525170D01*
X156737229Y-124375529D01*
X157014555Y-124098686D01*
X157164828Y-123736788D01*
X157165170Y-123344931D01*
X157075123Y-123127000D01*
X167373000Y-123127000D01*
X167373000Y-132373000D01*
X136627000Y-132373000D01*
X136627000Y-131175069D01*
X148294830Y-131175069D01*
X148444471Y-131537229D01*
X148721314Y-131814555D01*
X149083212Y-131964828D01*
X149475069Y-131965170D01*
X149837229Y-131815529D01*
X150114555Y-131538686D01*
X150264828Y-131176788D01*
X150265170Y-130784931D01*
X150240436Y-130725069D01*
X152244830Y-130725069D01*
X152394471Y-131087229D01*
X152671314Y-131364555D01*
X153033212Y-131514828D01*
X153425069Y-131515170D01*
X153787229Y-131365529D01*
X154064555Y-131088686D01*
X154214828Y-130726788D01*
X154215170Y-130334931D01*
X154065529Y-129972771D01*
X153916813Y-129823795D01*
X161324716Y-129823795D01*
X161573106Y-130424943D01*
X162032637Y-130885278D01*
X162633352Y-131134716D01*
X163283795Y-131135284D01*
X163884943Y-130886894D01*
X163947197Y-130824749D01*
X163961673Y-130859698D01*
X164140301Y-131038327D01*
X164373690Y-131135000D01*
X165214250Y-131135000D01*
X165373000Y-130976250D01*
X165373000Y-129627000D01*
X165627000Y-129627000D01*
X165627000Y-130976250D01*
X165785750Y-131135000D01*
X166626310Y-131135000D01*
X166859699Y-131038327D01*
X167038327Y-130859698D01*
X167135000Y-130626309D01*
X167135000Y-129785750D01*
X166976250Y-129627000D01*
X165627000Y-129627000D01*
X165373000Y-129627000D01*
X165353000Y-129627000D01*
X165353000Y-129373000D01*
X165373000Y-129373000D01*
X165373000Y-128023750D01*
X165627000Y-128023750D01*
X165627000Y-129373000D01*
X166976250Y-129373000D01*
X167135000Y-129214250D01*
X167135000Y-128373691D01*
X167038327Y-128140302D01*
X166859699Y-127961673D01*
X166626310Y-127865000D01*
X165785750Y-127865000D01*
X165627000Y-128023750D01*
X165373000Y-128023750D01*
X165214250Y-127865000D01*
X164373690Y-127865000D01*
X164140301Y-127961673D01*
X163961673Y-128140302D01*
X163947370Y-128174834D01*
X163887363Y-128114722D01*
X163286648Y-127865284D01*
X162636205Y-127864716D01*
X162035057Y-128113106D01*
X161574722Y-128572637D01*
X161325284Y-129173352D01*
X161324716Y-129823795D01*
X153916813Y-129823795D01*
X153788686Y-129695445D01*
X153426788Y-129545172D01*
X153034931Y-129544830D01*
X152672771Y-129694471D01*
X152395445Y-129971314D01*
X152245172Y-130333212D01*
X152244830Y-130725069D01*
X150240436Y-130725069D01*
X150115529Y-130422771D01*
X149838686Y-130145445D01*
X149476788Y-129995172D01*
X149084931Y-129994830D01*
X148722771Y-130144471D01*
X148445445Y-130421314D01*
X148295172Y-130783212D01*
X148294830Y-131175069D01*
X136627000Y-131175069D01*
X136627000Y-130528302D01*
X136714828Y-130316788D01*
X136715170Y-129924931D01*
X136627000Y-129711543D01*
X136627000Y-127845069D01*
X141844830Y-127845069D01*
X141994471Y-128207229D01*
X142271314Y-128484555D01*
X142633212Y-128634828D01*
X143025069Y-128635170D01*
X143387229Y-128485529D01*
X143664555Y-128208686D01*
X143814828Y-127846788D01*
X143815170Y-127454931D01*
X143790436Y-127395069D01*
X148764830Y-127395069D01*
X148914471Y-127757229D01*
X149191314Y-128034555D01*
X149553212Y-128184828D01*
X149945069Y-128185170D01*
X150307229Y-128035529D01*
X150584555Y-127758686D01*
X150734828Y-127396788D01*
X150735170Y-127004931D01*
X150585529Y-126642771D01*
X150308686Y-126365445D01*
X149946788Y-126215172D01*
X149554931Y-126214830D01*
X149192771Y-126364471D01*
X148915445Y-126641314D01*
X148765172Y-127003212D01*
X148764830Y-127395069D01*
X143790436Y-127395069D01*
X143665529Y-127092771D01*
X143388686Y-126815445D01*
X143026788Y-126665172D01*
X142634931Y-126664830D01*
X142272771Y-126814471D01*
X141995445Y-127091314D01*
X141845172Y-127453212D01*
X141844830Y-127845069D01*
X136627000Y-127845069D01*
X136627000Y-123127000D01*
X155284951Y-123127000D01*
X155195172Y-123343212D01*
G36*
X93789179Y-115189510D02*
X93541032Y-115718973D01*
X93661531Y-115951000D01*
X94869000Y-115951000D01*
X94869000Y-115931000D01*
X95123000Y-115931000D01*
X95123000Y-115951000D01*
X95143000Y-115951000D01*
X95143000Y-116205000D01*
X95123000Y-116205000D01*
X95123000Y-118491000D01*
X95143000Y-118491000D01*
X95143000Y-118745000D01*
X95123000Y-118745000D01*
X95123000Y-121031000D01*
X95143000Y-121031000D01*
X95143000Y-121285000D01*
X95123000Y-121285000D01*
X95123000Y-123571000D01*
X95143000Y-123571000D01*
X95143000Y-123825000D01*
X95123000Y-123825000D01*
X95123000Y-125031817D01*
X95355026Y-125152958D01*
X95770947Y-124980688D01*
X96202821Y-124586490D01*
X96260336Y-124463772D01*
X96476330Y-124787029D01*
X96962511Y-125111885D01*
X97536000Y-125225959D01*
X98109489Y-125111885D01*
X98595670Y-124787029D01*
X98920526Y-124300848D01*
X99034600Y-123727359D01*
X99034600Y-123668641D01*
X98920526Y-123095152D01*
X98595670Y-122608971D01*
X98324828Y-122428000D01*
X98595670Y-122247029D01*
X98920526Y-121760848D01*
X99034600Y-121187359D01*
X99034600Y-121128641D01*
X98920526Y-120555152D01*
X98595670Y-120068971D01*
X98324828Y-119888000D01*
X98595670Y-119707029D01*
X98920526Y-119220848D01*
X99034600Y-118647359D01*
X99034600Y-118588641D01*
X98920526Y-118015152D01*
X98595670Y-117528971D01*
X98324828Y-117348000D01*
X98595670Y-117167029D01*
X98920526Y-116680848D01*
X99034600Y-116107359D01*
X99034600Y-116048641D01*
X98920526Y-115475152D01*
X98595670Y-114988971D01*
X98353263Y-114827000D01*
X99873000Y-114827000D01*
X99873000Y-125873000D01*
X92627000Y-125873000D01*
X92627000Y-124057027D01*
X93541032Y-124057027D01*
X93789179Y-124586490D01*
X94221053Y-124980688D01*
X94636974Y-125152958D01*
X94869000Y-125031817D01*
X94869000Y-123825000D01*
X93661531Y-123825000D01*
X93541032Y-124057027D01*
X92627000Y-124057027D01*
X92627000Y-121517027D01*
X93541032Y-121517027D01*
X93789179Y-122046490D01*
X94207152Y-122428000D01*
X93789179Y-122809510D01*
X93541032Y-123338973D01*
X93661531Y-123571000D01*
X94869000Y-123571000D01*
X94869000Y-121285000D01*
X93661531Y-121285000D01*
X93541032Y-121517027D01*
X92627000Y-121517027D01*
X92627000Y-118977027D01*
X93541032Y-118977027D01*
X93789179Y-119506490D01*
X94207152Y-119888000D01*
X93789179Y-120269510D01*
X93541032Y-120798973D01*
X93661531Y-121031000D01*
X94869000Y-121031000D01*
X94869000Y-118745000D01*
X93661531Y-118745000D01*
X93541032Y-118977027D01*
X92627000Y-118977027D01*
X92627000Y-116437027D01*
X93541032Y-116437027D01*
X93789179Y-116966490D01*
X94207152Y-117348000D01*
X93789179Y-117729510D01*
X93541032Y-118258973D01*
X93661531Y-118491000D01*
X94869000Y-118491000D01*
X94869000Y-116205000D01*
X93661531Y-116205000D01*
X93541032Y-116437027D01*
X92627000Y-116437027D01*
X92627000Y-114827000D01*
X94186336Y-114827000D01*
X93789179Y-115189510D01*
X93789179Y-115189510D01*
G37*
X93789179Y-115189510D02*
X93541032Y-115718973D01*
X93661531Y-115951000D01*
X94869000Y-115951000D01*
X94869000Y-115931000D01*
X95123000Y-115931000D01*
X95123000Y-115951000D01*
X95143000Y-115951000D01*
X95143000Y-116205000D01*
X95123000Y-116205000D01*
X95123000Y-118491000D01*
X95143000Y-118491000D01*
X95143000Y-118745000D01*
X95123000Y-118745000D01*
X95123000Y-121031000D01*
X95143000Y-121031000D01*
X95143000Y-121285000D01*
X95123000Y-121285000D01*
X95123000Y-123571000D01*
X95143000Y-123571000D01*
X95143000Y-123825000D01*
X95123000Y-123825000D01*
X95123000Y-125031817D01*
X95355026Y-125152958D01*
X95770947Y-124980688D01*
X96202821Y-124586490D01*
X96260336Y-124463772D01*
X96476330Y-124787029D01*
X96962511Y-125111885D01*
X97536000Y-125225959D01*
X98109489Y-125111885D01*
X98595670Y-124787029D01*
X98920526Y-124300848D01*
X99034600Y-123727359D01*
X99034600Y-123668641D01*
X98920526Y-123095152D01*
X98595670Y-122608971D01*
X98324828Y-122428000D01*
X98595670Y-122247029D01*
X98920526Y-121760848D01*
X99034600Y-121187359D01*
X99034600Y-121128641D01*
X98920526Y-120555152D01*
X98595670Y-120068971D01*
X98324828Y-119888000D01*
X98595670Y-119707029D01*
X98920526Y-119220848D01*
X99034600Y-118647359D01*
X99034600Y-118588641D01*
X98920526Y-118015152D01*
X98595670Y-117528971D01*
X98324828Y-117348000D01*
X98595670Y-117167029D01*
X98920526Y-116680848D01*
X99034600Y-116107359D01*
X99034600Y-116048641D01*
X98920526Y-115475152D01*
X98595670Y-114988971D01*
X98353263Y-114827000D01*
X99873000Y-114827000D01*
X99873000Y-125873000D01*
X92627000Y-125873000D01*
X92627000Y-124057027D01*
X93541032Y-124057027D01*
X93789179Y-124586490D01*
X94221053Y-124980688D01*
X94636974Y-125152958D01*
X94869000Y-125031817D01*
X94869000Y-123825000D01*
X93661531Y-123825000D01*
X93541032Y-124057027D01*
X92627000Y-124057027D01*
X92627000Y-121517027D01*
X93541032Y-121517027D01*
X93789179Y-122046490D01*
X94207152Y-122428000D01*
X93789179Y-122809510D01*
X93541032Y-123338973D01*
X93661531Y-123571000D01*
X94869000Y-123571000D01*
X94869000Y-121285000D01*
X93661531Y-121285000D01*
X93541032Y-121517027D01*
X92627000Y-121517027D01*
X92627000Y-118977027D01*
X93541032Y-118977027D01*
X93789179Y-119506490D01*
X94207152Y-119888000D01*
X93789179Y-120269510D01*
X93541032Y-120798973D01*
X93661531Y-121031000D01*
X94869000Y-121031000D01*
X94869000Y-118745000D01*
X93661531Y-118745000D01*
X93541032Y-118977027D01*
X92627000Y-118977027D01*
X92627000Y-116437027D01*
X93541032Y-116437027D01*
X93789179Y-116966490D01*
X94207152Y-117348000D01*
X93789179Y-117729510D01*
X93541032Y-118258973D01*
X93661531Y-118491000D01*
X94869000Y-118491000D01*
X94869000Y-116205000D01*
X93661531Y-116205000D01*
X93541032Y-116437027D01*
X92627000Y-116437027D01*
X92627000Y-114827000D01*
X94186336Y-114827000D01*
X93789179Y-115189510D01*
G36*
X206873000Y-133873000D02*
X169127000Y-133873000D01*
X169127000Y-132315069D01*
X177114830Y-132315069D01*
X177264471Y-132677229D01*
X177541314Y-132954555D01*
X177903212Y-133104828D01*
X178295069Y-133105170D01*
X178657229Y-132955529D01*
X178934555Y-132678686D01*
X179084828Y-132316788D01*
X179085170Y-131924931D01*
X178935529Y-131562771D01*
X178658686Y-131285445D01*
X178296788Y-131135172D01*
X177904931Y-131134830D01*
X177542771Y-131284471D01*
X177265445Y-131561314D01*
X177115172Y-131923212D01*
X177114830Y-132315069D01*
X169127000Y-132315069D01*
X169127000Y-130504188D01*
X171535417Y-130504188D01*
X171597071Y-130739800D01*
X172097480Y-130915927D01*
X172627199Y-130887148D01*
X172982929Y-130739800D01*
X173044583Y-130504188D01*
X179155417Y-130504188D01*
X179217071Y-130739800D01*
X179717480Y-130915927D01*
X180247199Y-130887148D01*
X180602929Y-130739800D01*
X180664583Y-130504188D01*
X179910000Y-129749605D01*
X179155417Y-130504188D01*
X173044583Y-130504188D01*
X172290000Y-129749605D01*
X171535417Y-130504188D01*
X169127000Y-130504188D01*
X169127000Y-129377480D01*
X170944073Y-129377480D01*
X170972852Y-129907199D01*
X171120200Y-130262929D01*
X171355812Y-130324583D01*
X172110395Y-129570000D01*
X172469605Y-129570000D01*
X173224188Y-130324583D01*
X173459800Y-130262929D01*
X173635927Y-129762520D01*
X173615009Y-129377480D01*
X178564073Y-129377480D01*
X178592852Y-129907199D01*
X178740200Y-130262929D01*
X178975812Y-130324583D01*
X179730395Y-129570000D01*
X180089605Y-129570000D01*
X180844188Y-130324583D01*
X181079800Y-130262929D01*
X181255927Y-129762520D01*
X181227148Y-129232801D01*
X181079800Y-128877071D01*
X180844188Y-128815417D01*
X180089605Y-129570000D01*
X179730395Y-129570000D01*
X178975812Y-128815417D01*
X178740200Y-128877071D01*
X178564073Y-129377480D01*
X173615009Y-129377480D01*
X173607148Y-129232801D01*
X173459800Y-128877071D01*
X173224188Y-128815417D01*
X172469605Y-129570000D01*
X172110395Y-129570000D01*
X171355812Y-128815417D01*
X171120200Y-128877071D01*
X170944073Y-129377480D01*
X169127000Y-129377480D01*
X169127000Y-128635812D01*
X171535417Y-128635812D01*
X172290000Y-129390395D01*
X173044583Y-128635812D01*
X179155417Y-128635812D01*
X179910000Y-129390395D01*
X180664583Y-128635812D01*
X180602929Y-128400200D01*
X180102520Y-128224073D01*
X179572801Y-128252852D01*
X179217071Y-128400200D01*
X179155417Y-128635812D01*
X173044583Y-128635812D01*
X172982929Y-128400200D01*
X172482520Y-128224073D01*
X171952801Y-128252852D01*
X171597071Y-128400200D01*
X171535417Y-128635812D01*
X169127000Y-128635812D01*
X169127000Y-124754086D01*
X170956269Y-124754086D01*
X171158854Y-125244380D01*
X171533647Y-125619827D01*
X172023587Y-125823268D01*
X172554086Y-125823731D01*
X173044380Y-125621146D01*
X173419827Y-125246353D01*
X173623268Y-124756413D01*
X173623270Y-124754086D01*
X178576269Y-124754086D01*
X178778854Y-125244380D01*
X179153647Y-125619827D01*
X179643587Y-125823268D01*
X180174086Y-125823731D01*
X180664380Y-125621146D01*
X181039827Y-125246353D01*
X181243268Y-124756413D01*
X181243299Y-124720000D01*
X186742041Y-124720000D01*
X186856115Y-125293489D01*
X187180971Y-125779670D01*
X187194642Y-125788805D01*
X187171083Y-125793238D01*
X186954959Y-125932310D01*
X186809969Y-126144510D01*
X186758960Y-126396400D01*
X186758960Y-128123600D01*
X186803238Y-128358917D01*
X186942310Y-128575041D01*
X187154510Y-128720031D01*
X187406400Y-128771040D01*
X187465772Y-128771040D01*
X187435445Y-128801314D01*
X187285172Y-129163212D01*
X187284830Y-129555069D01*
X187434471Y-129917229D01*
X187711314Y-130194555D01*
X188073212Y-130344828D01*
X188465069Y-130345170D01*
X188827229Y-130195529D01*
X189104555Y-129918686D01*
X189254828Y-129556788D01*
X189255170Y-129164931D01*
X189105529Y-128802771D01*
X189073853Y-128771040D01*
X189133600Y-128771040D01*
X189368917Y-128726762D01*
X189585041Y-128587690D01*
X189730031Y-128375490D01*
X189749662Y-128278549D01*
X189921510Y-128466821D01*
X190450973Y-128714968D01*
X190683000Y-128594469D01*
X190683000Y-127387000D01*
X190937000Y-127387000D01*
X190937000Y-128594469D01*
X191169027Y-128714968D01*
X191698490Y-128466821D01*
X192080000Y-128048848D01*
X192461510Y-128466821D01*
X192990973Y-128714968D01*
X193223000Y-128594469D01*
X193223000Y-127387000D01*
X190937000Y-127387000D01*
X190683000Y-127387000D01*
X190663000Y-127387000D01*
X190663000Y-127133000D01*
X190683000Y-127133000D01*
X190683000Y-127113000D01*
X190937000Y-127113000D01*
X190937000Y-127133000D01*
X193223000Y-127133000D01*
X193223000Y-127113000D01*
X193477000Y-127113000D01*
X193477000Y-127133000D01*
X193497000Y-127133000D01*
X193497000Y-127387000D01*
X193477000Y-127387000D01*
X193477000Y-128594469D01*
X193709027Y-128714968D01*
X194238490Y-128466821D01*
X194620008Y-128048839D01*
X194800971Y-128319670D01*
X195287152Y-128644526D01*
X195860641Y-128758600D01*
X195919359Y-128758600D01*
X196492848Y-128644526D01*
X196979029Y-128319670D01*
X197159992Y-128048839D01*
X197541510Y-128466821D01*
X198070973Y-128714968D01*
X198303000Y-128594469D01*
X198303000Y-127387000D01*
X198557000Y-127387000D01*
X198557000Y-128594469D01*
X198789027Y-128714968D01*
X199318490Y-128466821D01*
X199712688Y-128034947D01*
X199884958Y-127619026D01*
X199763817Y-127387000D01*
X198557000Y-127387000D01*
X198303000Y-127387000D01*
X198283000Y-127387000D01*
X198283000Y-127133000D01*
X198303000Y-127133000D01*
X198303000Y-127113000D01*
X198557000Y-127113000D01*
X198557000Y-127133000D01*
X199763817Y-127133000D01*
X199884958Y-126900974D01*
X199712688Y-126485053D01*
X199318490Y-126053179D01*
X199195772Y-125995664D01*
X199519029Y-125779670D01*
X199843885Y-125293489D01*
X199957959Y-124720000D01*
X199843885Y-124146511D01*
X199519029Y-123660330D01*
X199032848Y-123335474D01*
X198459359Y-123221400D01*
X198400641Y-123221400D01*
X197827152Y-123335474D01*
X197340971Y-123660330D01*
X197160000Y-123931172D01*
X196979029Y-123660330D01*
X196492848Y-123335474D01*
X195919359Y-123221400D01*
X195860641Y-123221400D01*
X195287152Y-123335474D01*
X194800971Y-123660330D01*
X194620000Y-123931172D01*
X194439029Y-123660330D01*
X193952848Y-123335474D01*
X193379359Y-123221400D01*
X193320641Y-123221400D01*
X192747152Y-123335474D01*
X192260971Y-123660330D01*
X192080000Y-123931172D01*
X191899029Y-123660330D01*
X191412848Y-123335474D01*
X190839359Y-123221400D01*
X190780641Y-123221400D01*
X190207152Y-123335474D01*
X189720971Y-123660330D01*
X189540000Y-123931172D01*
X189359029Y-123660330D01*
X188872848Y-123335474D01*
X188299359Y-123221400D01*
X188240641Y-123221400D01*
X187667152Y-123335474D01*
X187180971Y-123660330D01*
X186856115Y-124146511D01*
X186742041Y-124720000D01*
X181243299Y-124720000D01*
X181243731Y-124225914D01*
X181041146Y-123735620D01*
X180666353Y-123360173D01*
X180176413Y-123156732D01*
X179645914Y-123156269D01*
X179155620Y-123358854D01*
X178780173Y-123733647D01*
X178576732Y-124223587D01*
X178576269Y-124754086D01*
X173623270Y-124754086D01*
X173623731Y-124225914D01*
X173421146Y-123735620D01*
X173046353Y-123360173D01*
X172556413Y-123156732D01*
X172025914Y-123156269D01*
X171535620Y-123358854D01*
X171160173Y-123733647D01*
X170956732Y-124223587D01*
X170956269Y-124754086D01*
X169127000Y-124754086D01*
X169127000Y-123127000D01*
X173000000Y-123127000D01*
X173049410Y-123116994D01*
X173091035Y-123088553D01*
X173118315Y-123046159D01*
X173127000Y-123000000D01*
X173127000Y-120675069D01*
X190834830Y-120675069D01*
X190984471Y-121037229D01*
X191261314Y-121314555D01*
X191623212Y-121464828D01*
X192015069Y-121465170D01*
X192377229Y-121315529D01*
X192654555Y-121038686D01*
X192804828Y-120676788D01*
X192804829Y-120675069D01*
X193004830Y-120675069D01*
X193154471Y-121037229D01*
X193431314Y-121314555D01*
X193793212Y-121464828D01*
X194185069Y-121465170D01*
X194547229Y-121315529D01*
X194824555Y-121038686D01*
X194974828Y-120676788D01*
X194975170Y-120284931D01*
X194825529Y-119922771D01*
X194548686Y-119645445D01*
X194186788Y-119495172D01*
X193794931Y-119494830D01*
X193432771Y-119644471D01*
X193155445Y-119921314D01*
X193005172Y-120283212D01*
X193004830Y-120675069D01*
X192804829Y-120675069D01*
X192805170Y-120284931D01*
X192655529Y-119922771D01*
X192378686Y-119645445D01*
X192016788Y-119495172D01*
X191624931Y-119494830D01*
X191262771Y-119644471D01*
X190985445Y-119921314D01*
X190835172Y-120283212D01*
X190834830Y-120675069D01*
X173127000Y-120675069D01*
X173127000Y-117845069D01*
X190614830Y-117845069D01*
X190764471Y-118207229D01*
X191041314Y-118484555D01*
X191403212Y-118634828D01*
X191795069Y-118635170D01*
X192157229Y-118485529D01*
X192434555Y-118208686D01*
X192584828Y-117846788D01*
X192584855Y-117815069D01*
X199024830Y-117815069D01*
X199174471Y-118177229D01*
X199451314Y-118454555D01*
X199813212Y-118604828D01*
X200205069Y-118605170D01*
X200567229Y-118455529D01*
X200844555Y-118178686D01*
X200994828Y-117816788D01*
X200995170Y-117424931D01*
X200845529Y-117062771D01*
X200568686Y-116785445D01*
X200206788Y-116635172D01*
X199814931Y-116634830D01*
X199452771Y-116784471D01*
X199175445Y-117061314D01*
X199025172Y-117423212D01*
X199024830Y-117815069D01*
X192584855Y-117815069D01*
X192585170Y-117454931D01*
X192435529Y-117092771D01*
X192158686Y-116815445D01*
X191796788Y-116665172D01*
X191404931Y-116664830D01*
X191042771Y-116814471D01*
X190765445Y-117091314D01*
X190615172Y-117453212D01*
X190614830Y-117845069D01*
X173127000Y-117845069D01*
X173127000Y-116655069D01*
X194814830Y-116655069D01*
X194964471Y-117017229D01*
X195241314Y-117294555D01*
X195603212Y-117444828D01*
X195995069Y-117445170D01*
X196357229Y-117295529D01*
X196634555Y-117018686D01*
X196784828Y-116656788D01*
X196785170Y-116264931D01*
X196635529Y-115902771D01*
X196358686Y-115625445D01*
X195996788Y-115475172D01*
X195604931Y-115474830D01*
X195242771Y-115624471D01*
X194965445Y-115901314D01*
X194815172Y-116263212D01*
X194814830Y-116655069D01*
X173127000Y-116655069D01*
X173127000Y-114630111D01*
X173201314Y-114704555D01*
X173563212Y-114854828D01*
X173955069Y-114855170D01*
X174317229Y-114705529D01*
X174548091Y-114475069D01*
X203844830Y-114475069D01*
X203994471Y-114837229D01*
X204271314Y-115114555D01*
X204633212Y-115264828D01*
X205025069Y-115265170D01*
X205387229Y-115115529D01*
X205664555Y-114838686D01*
X205814828Y-114476788D01*
X205815170Y-114084931D01*
X205665529Y-113722771D01*
X205388686Y-113445445D01*
X205026788Y-113295172D01*
X204634931Y-113294830D01*
X204272771Y-113444471D01*
X203995445Y-113721314D01*
X203845172Y-114083212D01*
X203844830Y-114475069D01*
X174548091Y-114475069D01*
X174594555Y-114428686D01*
X174744828Y-114066788D01*
X174745170Y-113674931D01*
X174595529Y-113312771D01*
X174318686Y-113035445D01*
X173956788Y-112885172D01*
X173564931Y-112884830D01*
X173202771Y-113034471D01*
X173127000Y-113110110D01*
X173127000Y-111815069D01*
X191714830Y-111815069D01*
X191864471Y-112177229D01*
X192141314Y-112454555D01*
X192503212Y-112604828D01*
X192895069Y-112605170D01*
X193257229Y-112455529D01*
X193534555Y-112178686D01*
X193684828Y-111816788D01*
X193685170Y-111424931D01*
X193535529Y-111062771D01*
X193258686Y-110785445D01*
X193209616Y-110765069D01*
X197004830Y-110765069D01*
X197154471Y-111127229D01*
X197431314Y-111404555D01*
X197793212Y-111554828D01*
X198185069Y-111555170D01*
X198547229Y-111405529D01*
X198824555Y-111128686D01*
X198974828Y-110766788D01*
X198975170Y-110374931D01*
X198825529Y-110012771D01*
X198548686Y-109735445D01*
X198186788Y-109585172D01*
X197794931Y-109584830D01*
X197432771Y-109734471D01*
X197155445Y-110011314D01*
X197005172Y-110373212D01*
X197004830Y-110765069D01*
X193209616Y-110765069D01*
X192896788Y-110635172D01*
X192504931Y-110634830D01*
X192142771Y-110784471D01*
X191865445Y-111061314D01*
X191715172Y-111423212D01*
X191714830Y-111815069D01*
X173127000Y-111815069D01*
X173127000Y-109615069D01*
X189414830Y-109615069D01*
X189564471Y-109977229D01*
X189841314Y-110254555D01*
X190203212Y-110404828D01*
X190595069Y-110405170D01*
X190957229Y-110255529D01*
X191234555Y-109978686D01*
X191319104Y-109775069D01*
X192774830Y-109775069D01*
X192924471Y-110137229D01*
X193201314Y-110414555D01*
X193563212Y-110564828D01*
X193955069Y-110565170D01*
X194317229Y-110415529D01*
X194594555Y-110138686D01*
X194744828Y-109776788D01*
X194745170Y-109384931D01*
X194595529Y-109022771D01*
X194318686Y-108745445D01*
X193956788Y-108595172D01*
X193564931Y-108594830D01*
X193202771Y-108744471D01*
X192925445Y-109021314D01*
X192775172Y-109383212D01*
X192774830Y-109775069D01*
X191319104Y-109775069D01*
X191384828Y-109616788D01*
X191385170Y-109224931D01*
X191235529Y-108862771D01*
X190958686Y-108585445D01*
X190596788Y-108435172D01*
X190204931Y-108434830D01*
X189842771Y-108584471D01*
X189565445Y-108861314D01*
X189415172Y-109223212D01*
X189414830Y-109615069D01*
X173127000Y-109615069D01*
X173127000Y-108655069D01*
X183354830Y-108655069D01*
X183504471Y-109017229D01*
X183781314Y-109294555D01*
X184143212Y-109444828D01*
X184535069Y-109445170D01*
X184897229Y-109295529D01*
X185174555Y-109018686D01*
X185324828Y-108656788D01*
X185325170Y-108264931D01*
X185175529Y-107902771D01*
X184918276Y-107645069D01*
X190424830Y-107645069D01*
X190574471Y-108007229D01*
X190851314Y-108284555D01*
X191213212Y-108434828D01*
X191605069Y-108435170D01*
X191967229Y-108285529D01*
X192244555Y-108008686D01*
X192394828Y-107646788D01*
X192395170Y-107254931D01*
X192245529Y-106892771D01*
X191968686Y-106615445D01*
X191606788Y-106465172D01*
X191214931Y-106464830D01*
X190852771Y-106614471D01*
X190575445Y-106891314D01*
X190425172Y-107253212D01*
X190424830Y-107645069D01*
X184918276Y-107645069D01*
X184898686Y-107625445D01*
X184536788Y-107475172D01*
X184144931Y-107474830D01*
X183782771Y-107624471D01*
X183505445Y-107901314D01*
X183355172Y-108263212D01*
X183354830Y-108655069D01*
X173127000Y-108655069D01*
X173127000Y-107135069D01*
X178484830Y-107135069D01*
X178634471Y-107497229D01*
X178911314Y-107774555D01*
X179273212Y-107924828D01*
X179665069Y-107925170D01*
X180027229Y-107775529D01*
X180304555Y-107498686D01*
X180454828Y-107136788D01*
X180455170Y-106744931D01*
X180305529Y-106382771D01*
X180028686Y-106105445D01*
X179666788Y-105955172D01*
X179274931Y-105954830D01*
X178912771Y-106104471D01*
X178635445Y-106381314D01*
X178485172Y-106743212D01*
X178484830Y-107135069D01*
X173127000Y-107135069D01*
X173127000Y-95915069D01*
X201914830Y-95915069D01*
X202064471Y-96277229D01*
X202341314Y-96554555D01*
X202703212Y-96704828D01*
X203095069Y-96705170D01*
X203457229Y-96555529D01*
X203734555Y-96278686D01*
X203884828Y-95916788D01*
X203885170Y-95524931D01*
X203735529Y-95162771D01*
X203458686Y-94885445D01*
X203096788Y-94735172D01*
X202704931Y-94734830D01*
X202342771Y-94884471D01*
X202065445Y-95161314D01*
X201915172Y-95523212D01*
X201914830Y-95915069D01*
X173127000Y-95915069D01*
X173127000Y-94565069D01*
X191974830Y-94565069D01*
X192124471Y-94927229D01*
X192401314Y-95204555D01*
X192763212Y-95354828D01*
X193155069Y-95355170D01*
X193517229Y-95205529D01*
X193794555Y-94928686D01*
X193944828Y-94566788D01*
X193945170Y-94174931D01*
X193820741Y-93873789D01*
X193899154Y-93684948D01*
X193974471Y-93867229D01*
X194251314Y-94144555D01*
X194613212Y-94294828D01*
X195005069Y-94295170D01*
X195367229Y-94145529D01*
X195644555Y-93868686D01*
X195794828Y-93506788D01*
X195795170Y-93114931D01*
X195645529Y-92752771D01*
X195368686Y-92475445D01*
X195006788Y-92325172D01*
X194614931Y-92324830D01*
X194252771Y-92474471D01*
X193975445Y-92751314D01*
X193890846Y-92955052D01*
X193815529Y-92772771D01*
X193538686Y-92495445D01*
X193176788Y-92345172D01*
X192784931Y-92344830D01*
X192422771Y-92494471D01*
X192145445Y-92771314D01*
X191995172Y-93133212D01*
X191994830Y-93525069D01*
X192119259Y-93826211D01*
X191975172Y-94173212D01*
X191974830Y-94565069D01*
X173127000Y-94565069D01*
X173127000Y-90215069D01*
X188514830Y-90215069D01*
X188664471Y-90577229D01*
X188941314Y-90854555D01*
X189303212Y-91004828D01*
X189594052Y-91005082D01*
X189495172Y-91243212D01*
X189494830Y-91635069D01*
X189644471Y-91997229D01*
X189921314Y-92274555D01*
X190283212Y-92424828D01*
X190675069Y-92425170D01*
X191037229Y-92275529D01*
X191314555Y-91998686D01*
X191464828Y-91636788D01*
X191465170Y-91244931D01*
X191315529Y-90882771D01*
X191038686Y-90605445D01*
X190676788Y-90455172D01*
X190385948Y-90454918D01*
X190484828Y-90216788D01*
X190485170Y-89824931D01*
X190335529Y-89462771D01*
X190267945Y-89395069D01*
X200394830Y-89395069D01*
X200544471Y-89757229D01*
X200821314Y-90034555D01*
X201183212Y-90184828D01*
X201575069Y-90185170D01*
X201937229Y-90035529D01*
X202214555Y-89758686D01*
X202364828Y-89396788D01*
X202365170Y-89004931D01*
X202215529Y-88642771D01*
X201938686Y-88365445D01*
X201576788Y-88215172D01*
X201184931Y-88214830D01*
X200822771Y-88364471D01*
X200545445Y-88641314D01*
X200395172Y-89003212D01*
X200394830Y-89395069D01*
X190267945Y-89395069D01*
X190058686Y-89185445D01*
X189696788Y-89035172D01*
X189304931Y-89034830D01*
X188942771Y-89184471D01*
X188665445Y-89461314D01*
X188515172Y-89823212D01*
X188514830Y-90215069D01*
X173127000Y-90215069D01*
X173127000Y-89000000D01*
X173116994Y-88950590D01*
X173088553Y-88908965D01*
X173046159Y-88881685D01*
X173000000Y-88873000D01*
X144000000Y-88873000D01*
X143950590Y-88883006D01*
X143908965Y-88911447D01*
X143881685Y-88953841D01*
X143873000Y-89000000D01*
X143873000Y-103519864D01*
X143805172Y-103683212D01*
X143804830Y-104075069D01*
X143873000Y-104240053D01*
X143873000Y-104401700D01*
X143785172Y-104613212D01*
X143784830Y-105005069D01*
X143873000Y-105218457D01*
X143873000Y-110254924D01*
X143764931Y-110254830D01*
X143402771Y-110404471D01*
X143125445Y-110681314D01*
X142975172Y-111043212D01*
X142974830Y-111435069D01*
X143124471Y-111797229D01*
X143401314Y-112074555D01*
X143763212Y-112224828D01*
X143873000Y-112224924D01*
X143873000Y-117822155D01*
X143552771Y-117954471D01*
X143275445Y-118231314D01*
X143125172Y-118593212D01*
X143124830Y-118985069D01*
X143274471Y-119347229D01*
X143551314Y-119624555D01*
X143873000Y-119758131D01*
X143873000Y-121873000D01*
X142819937Y-121873000D01*
X142994555Y-121698686D01*
X143144828Y-121336788D01*
X143145170Y-120944931D01*
X142995529Y-120582771D01*
X142718686Y-120305445D01*
X142356788Y-120155172D01*
X141964931Y-120154830D01*
X141602771Y-120304471D01*
X141325445Y-120581314D01*
X141175172Y-120943212D01*
X141174830Y-121335069D01*
X141324471Y-121697229D01*
X141499936Y-121873000D01*
X135000000Y-121873000D01*
X134950590Y-121883006D01*
X134908965Y-121911447D01*
X134881685Y-121953841D01*
X134873000Y-122000000D01*
X134873000Y-129615368D01*
X134745172Y-129923212D01*
X134744830Y-130315069D01*
X134873000Y-130625265D01*
X134873000Y-133873000D01*
X101127000Y-133873000D01*
X101127000Y-131795069D01*
X110774830Y-131795069D01*
X110924471Y-132157229D01*
X111201314Y-132434555D01*
X111563212Y-132584828D01*
X111955069Y-132585170D01*
X112317229Y-132435529D01*
X112594555Y-132158686D01*
X112744828Y-131796788D01*
X112745170Y-131404931D01*
X112595529Y-131042771D01*
X112318686Y-130765445D01*
X111956788Y-130615172D01*
X111564931Y-130614830D01*
X111202771Y-130764471D01*
X110925445Y-131041314D01*
X110775172Y-131403212D01*
X110774830Y-131795069D01*
X101127000Y-131795069D01*
X101127000Y-130473795D01*
X118244716Y-130473795D01*
X118493106Y-131074943D01*
X118952637Y-131535278D01*
X119553352Y-131784716D01*
X120203795Y-131785284D01*
X120804943Y-131536894D01*
X120867197Y-131474749D01*
X120881673Y-131509698D01*
X121060301Y-131688327D01*
X121293690Y-131785000D01*
X122134250Y-131785000D01*
X122293000Y-131626250D01*
X122293000Y-130277000D01*
X122547000Y-130277000D01*
X122547000Y-131626250D01*
X122705750Y-131785000D01*
X123546310Y-131785000D01*
X123779699Y-131688327D01*
X123958327Y-131509698D01*
X124055000Y-131276309D01*
X124055000Y-130435750D01*
X123896250Y-130277000D01*
X122547000Y-130277000D01*
X122293000Y-130277000D01*
X122273000Y-130277000D01*
X122273000Y-130023000D01*
X122293000Y-130023000D01*
X122293000Y-128673750D01*
X122547000Y-128673750D01*
X122547000Y-130023000D01*
X123896250Y-130023000D01*
X124055000Y-129864250D01*
X124055000Y-129023691D01*
X123958327Y-128790302D01*
X123779699Y-128611673D01*
X123546310Y-128515000D01*
X122705750Y-128515000D01*
X122547000Y-128673750D01*
X122293000Y-128673750D01*
X122134250Y-128515000D01*
X121293690Y-128515000D01*
X121060301Y-128611673D01*
X120881673Y-128790302D01*
X120867370Y-128824834D01*
X120807363Y-128764722D01*
X120206648Y-128515284D01*
X119556205Y-128514716D01*
X118955057Y-128763106D01*
X118494722Y-129222637D01*
X118245284Y-129823352D01*
X118244716Y-130473795D01*
X101127000Y-130473795D01*
X101127000Y-122563795D01*
X118244716Y-122563795D01*
X118493106Y-123164943D01*
X118952637Y-123625278D01*
X119553352Y-123874716D01*
X120203795Y-123875284D01*
X120804943Y-123626894D01*
X120867197Y-123564749D01*
X120881673Y-123599698D01*
X121060301Y-123778327D01*
X121293690Y-123875000D01*
X122134250Y-123875000D01*
X122293000Y-123716250D01*
X122293000Y-122367000D01*
X122547000Y-122367000D01*
X122547000Y-123716250D01*
X122705750Y-123875000D01*
X123546310Y-123875000D01*
X123779699Y-123778327D01*
X123958327Y-123599698D01*
X124055000Y-123366309D01*
X124055000Y-122525750D01*
X123896250Y-122367000D01*
X122547000Y-122367000D01*
X122293000Y-122367000D01*
X122273000Y-122367000D01*
X122273000Y-122113000D01*
X122293000Y-122113000D01*
X122293000Y-120763750D01*
X122547000Y-120763750D01*
X122547000Y-122113000D01*
X123896250Y-122113000D01*
X124055000Y-121954250D01*
X124055000Y-121113691D01*
X123958327Y-120880302D01*
X123779699Y-120701673D01*
X123546310Y-120605000D01*
X122705750Y-120605000D01*
X122547000Y-120763750D01*
X122293000Y-120763750D01*
X122134250Y-120605000D01*
X121293690Y-120605000D01*
X121060301Y-120701673D01*
X120881673Y-120880302D01*
X120867370Y-120914834D01*
X120807363Y-120854722D01*
X120206648Y-120605284D01*
X119556205Y-120604716D01*
X118955057Y-120853106D01*
X118494722Y-121312637D01*
X118245284Y-121913352D01*
X118244716Y-122563795D01*
X101127000Y-122563795D01*
X101127000Y-119075069D01*
X138914830Y-119075069D01*
X139064471Y-119437229D01*
X139341314Y-119714555D01*
X139703212Y-119864828D01*
X140095069Y-119865170D01*
X140457229Y-119715529D01*
X140734555Y-119438686D01*
X140884828Y-119076788D01*
X140885170Y-118684931D01*
X140735529Y-118322771D01*
X140458686Y-118045445D01*
X140096788Y-117895172D01*
X139704931Y-117894830D01*
X139342771Y-118044471D01*
X139065445Y-118321314D01*
X138915172Y-118683212D01*
X138914830Y-119075069D01*
X101127000Y-119075069D01*
X101127000Y-117865069D01*
X112464830Y-117865069D01*
X112614471Y-118227229D01*
X112891314Y-118504555D01*
X113253212Y-118654828D01*
X113645069Y-118655170D01*
X114007229Y-118505529D01*
X114284555Y-118228686D01*
X114298513Y-118195069D01*
X116744830Y-118195069D01*
X116894471Y-118557229D01*
X117171314Y-118834555D01*
X117533212Y-118984828D01*
X117925069Y-118985170D01*
X118287229Y-118835529D01*
X118564555Y-118558686D01*
X118714828Y-118196788D01*
X118715170Y-117804931D01*
X118581566Y-117481583D01*
X118634555Y-117428686D01*
X118784828Y-117066788D01*
X118785170Y-116674931D01*
X118635529Y-116312771D01*
X118358686Y-116035445D01*
X117996788Y-115885172D01*
X117604931Y-115884830D01*
X117242771Y-116034471D01*
X116965445Y-116311314D01*
X116815172Y-116673212D01*
X116814830Y-117065069D01*
X116948434Y-117388417D01*
X116895445Y-117441314D01*
X116745172Y-117803212D01*
X116744830Y-118195069D01*
X114298513Y-118195069D01*
X114434828Y-117866788D01*
X114435170Y-117474931D01*
X114285529Y-117112771D01*
X114008686Y-116835445D01*
X113646788Y-116685172D01*
X113254931Y-116684830D01*
X112892771Y-116834471D01*
X112615445Y-117111314D01*
X112465172Y-117473212D01*
X112464830Y-117865069D01*
X101127000Y-117865069D01*
X101127000Y-115675069D01*
X123174830Y-115675069D01*
X123324471Y-116037229D01*
X123601314Y-116314555D01*
X123963212Y-116464828D01*
X124355069Y-116465170D01*
X124717229Y-116315529D01*
X124994555Y-116038686D01*
X125144828Y-115676788D01*
X125144890Y-115605069D01*
X126324830Y-115605069D01*
X126474471Y-115967229D01*
X126751314Y-116244555D01*
X127113212Y-116394828D01*
X127505069Y-116395170D01*
X127867229Y-116245529D01*
X128144555Y-115968686D01*
X128294828Y-115606788D01*
X128295170Y-115214931D01*
X128291096Y-115205069D01*
X132864830Y-115205069D01*
X133014471Y-115567229D01*
X133291314Y-115844555D01*
X133653212Y-115994828D01*
X134045069Y-115995170D01*
X134407229Y-115845529D01*
X134684555Y-115568686D01*
X134834828Y-115206788D01*
X134835170Y-114814931D01*
X134685529Y-114452771D01*
X134408686Y-114175445D01*
X134046788Y-114025172D01*
X133654931Y-114024830D01*
X133292771Y-114174471D01*
X133015445Y-114451314D01*
X132865172Y-114813212D01*
X132864830Y-115205069D01*
X128291096Y-115205069D01*
X128145529Y-114852771D01*
X127868686Y-114575445D01*
X127506788Y-114425172D01*
X127114931Y-114424830D01*
X126752771Y-114574471D01*
X126475445Y-114851314D01*
X126325172Y-115213212D01*
X126324830Y-115605069D01*
X125144890Y-115605069D01*
X125145170Y-115284931D01*
X125012928Y-114964880D01*
X125345069Y-114965170D01*
X125707229Y-114815529D01*
X125984555Y-114538686D01*
X126134828Y-114176788D01*
X126135170Y-113784931D01*
X125985529Y-113422771D01*
X125708686Y-113145445D01*
X125346788Y-112995172D01*
X124954931Y-112994830D01*
X124592771Y-113144471D01*
X124315445Y-113421314D01*
X124165172Y-113783212D01*
X124164830Y-114175069D01*
X124297072Y-114495120D01*
X123964931Y-114494830D01*
X123602771Y-114644471D01*
X123325445Y-114921314D01*
X123175172Y-115283212D01*
X123174830Y-115675069D01*
X101127000Y-115675069D01*
X101127000Y-114765069D01*
X107264830Y-114765069D01*
X107414471Y-115127229D01*
X107691314Y-115404555D01*
X108053212Y-115554828D01*
X108445069Y-115555170D01*
X108807229Y-115405529D01*
X109084555Y-115128686D01*
X109234828Y-114766788D01*
X109235170Y-114374931D01*
X109085529Y-114012771D01*
X108808686Y-113735445D01*
X108446788Y-113585172D01*
X108054931Y-113584830D01*
X107692771Y-113734471D01*
X107415445Y-114011314D01*
X107265172Y-114373212D01*
X107264830Y-114765069D01*
X101127000Y-114765069D01*
X101127000Y-113000000D01*
X101116994Y-112950590D01*
X101088553Y-112908965D01*
X101046159Y-112881685D01*
X101000000Y-112873000D01*
X98878997Y-112873000D01*
X98606427Y-112465069D01*
X117294830Y-112465069D01*
X117444471Y-112827229D01*
X117721314Y-113104555D01*
X118083212Y-113254828D01*
X118475069Y-113255170D01*
X118837229Y-113105529D01*
X119114555Y-112828686D01*
X119154842Y-112731665D01*
X119154830Y-112745069D01*
X119304471Y-113107229D01*
X119581314Y-113384555D01*
X119943212Y-113534828D01*
X120335069Y-113535170D01*
X120697229Y-113385529D01*
X120974555Y-113108686D01*
X121124828Y-112746788D01*
X121125170Y-112354931D01*
X121003287Y-112059951D01*
X121004555Y-112058686D01*
X121154828Y-111696788D01*
X121155170Y-111304931D01*
X121005529Y-110942771D01*
X120728686Y-110665445D01*
X120366788Y-110515172D01*
X119974931Y-110514830D01*
X119612771Y-110664471D01*
X119335445Y-110941314D01*
X119185172Y-111303212D01*
X119184830Y-111695069D01*
X119306713Y-111990049D01*
X119305445Y-111991314D01*
X119265158Y-112088335D01*
X119265170Y-112074931D01*
X119115529Y-111712771D01*
X118838686Y-111435445D01*
X118476788Y-111285172D01*
X118084931Y-111284830D01*
X117722771Y-111434471D01*
X117445445Y-111711314D01*
X117295172Y-112073212D01*
X117294830Y-112465069D01*
X98606427Y-112465069D01*
X98595670Y-112448971D01*
X98324828Y-112268000D01*
X98595670Y-112087029D01*
X98920526Y-111600848D01*
X99034600Y-111027359D01*
X99034600Y-110968641D01*
X98920526Y-110395152D01*
X98595670Y-109908971D01*
X98324828Y-109728000D01*
X98595670Y-109547029D01*
X98920526Y-109060848D01*
X99033066Y-108495069D01*
X107184830Y-108495069D01*
X107334471Y-108857229D01*
X107611314Y-109134555D01*
X107973212Y-109284828D01*
X108365069Y-109285170D01*
X108727229Y-109135529D01*
X108887968Y-108975069D01*
X119254830Y-108975069D01*
X119404471Y-109337229D01*
X119681314Y-109614555D01*
X120043212Y-109764828D01*
X120435069Y-109765170D01*
X120758368Y-109631586D01*
X120771314Y-109644555D01*
X121133212Y-109794828D01*
X121525069Y-109795170D01*
X121887229Y-109645529D01*
X122164555Y-109368686D01*
X122178513Y-109335069D01*
X123174830Y-109335069D01*
X123324471Y-109697229D01*
X123601314Y-109974555D01*
X123963212Y-110124828D01*
X124355069Y-110125170D01*
X124667363Y-109996133D01*
X124953212Y-110114828D01*
X125345069Y-110115170D01*
X125707229Y-109965529D01*
X125984555Y-109688686D01*
X126089865Y-109435069D01*
X132864830Y-109435069D01*
X133014471Y-109797229D01*
X133291314Y-110074555D01*
X133653212Y-110224828D01*
X134045069Y-110225170D01*
X134407229Y-110075529D01*
X134684555Y-109798686D01*
X134834828Y-109436788D01*
X134835170Y-109044931D01*
X134685529Y-108682771D01*
X134408686Y-108405445D01*
X134046788Y-108255172D01*
X133654931Y-108254830D01*
X133292771Y-108404471D01*
X133015445Y-108681314D01*
X132865172Y-109043212D01*
X132864830Y-109435069D01*
X126089865Y-109435069D01*
X126134828Y-109326788D01*
X126135170Y-108934931D01*
X125985529Y-108572771D01*
X125708686Y-108295445D01*
X125346788Y-108145172D01*
X124954931Y-108144830D01*
X124642637Y-108273867D01*
X124356788Y-108155172D01*
X123964931Y-108154830D01*
X123602771Y-108304471D01*
X123325445Y-108581314D01*
X123175172Y-108943212D01*
X123174830Y-109335069D01*
X122178513Y-109335069D01*
X122314828Y-109006788D01*
X122315170Y-108614931D01*
X122165529Y-108252771D01*
X121888686Y-107975445D01*
X121526788Y-107825172D01*
X121134931Y-107824830D01*
X120811632Y-107958414D01*
X120798686Y-107945445D01*
X120436788Y-107795172D01*
X120044931Y-107794830D01*
X119682771Y-107944471D01*
X119405445Y-108221314D01*
X119255172Y-108583212D01*
X119254830Y-108975069D01*
X108887968Y-108975069D01*
X109004555Y-108858686D01*
X109154828Y-108496788D01*
X109155170Y-108104931D01*
X109005529Y-107742771D01*
X108728686Y-107465445D01*
X108366788Y-107315172D01*
X107974931Y-107314830D01*
X107612771Y-107464471D01*
X107335445Y-107741314D01*
X107185172Y-108103212D01*
X107184830Y-108495069D01*
X99033066Y-108495069D01*
X99034600Y-108487359D01*
X99034600Y-108428641D01*
X98920526Y-107855152D01*
X98595670Y-107368971D01*
X98324828Y-107188000D01*
X98595670Y-107007029D01*
X98920526Y-106520848D01*
X99034600Y-105947359D01*
X99034600Y-105945069D01*
X113494830Y-105945069D01*
X113644471Y-106307229D01*
X113921314Y-106584555D01*
X114283212Y-106734828D01*
X114675069Y-106735170D01*
X115037229Y-106585529D01*
X115314555Y-106308686D01*
X115428170Y-106035069D01*
X116394830Y-106035069D01*
X116544471Y-106397229D01*
X116821314Y-106674555D01*
X117183212Y-106824828D01*
X117575069Y-106825170D01*
X117937229Y-106675529D01*
X118214555Y-106398686D01*
X118245158Y-106324987D01*
X118455069Y-106325170D01*
X118817229Y-106175529D01*
X119094555Y-105898686D01*
X119244828Y-105536788D01*
X119245170Y-105144931D01*
X119095529Y-104782771D01*
X118978032Y-104665069D01*
X119264830Y-104665069D01*
X119414471Y-105027229D01*
X119691314Y-105304555D01*
X120053212Y-105454828D01*
X120344926Y-105455083D01*
X120344830Y-105565069D01*
X120494471Y-105927229D01*
X120771314Y-106204555D01*
X121133212Y-106354828D01*
X121525069Y-106355170D01*
X121887229Y-106205529D01*
X122164555Y-105928686D01*
X122244951Y-105735069D01*
X140654830Y-105735069D01*
X140804471Y-106097229D01*
X141081314Y-106374555D01*
X141443212Y-106524828D01*
X141835069Y-106525170D01*
X142197229Y-106375529D01*
X142474555Y-106098686D01*
X142624828Y-105736788D01*
X142625170Y-105344931D01*
X142475529Y-104982771D01*
X142198686Y-104705445D01*
X141836788Y-104555172D01*
X141444931Y-104554830D01*
X141082771Y-104704471D01*
X140805445Y-104981314D01*
X140655172Y-105343212D01*
X140654830Y-105735069D01*
X122244951Y-105735069D01*
X122314828Y-105566788D01*
X122315170Y-105174931D01*
X122165529Y-104812771D01*
X121888686Y-104535445D01*
X121526788Y-104385172D01*
X121235074Y-104384917D01*
X121235170Y-104274931D01*
X121085529Y-103912771D01*
X120808686Y-103635445D01*
X120446788Y-103485172D01*
X120054931Y-103484830D01*
X119692771Y-103634471D01*
X119415445Y-103911314D01*
X119265172Y-104273212D01*
X119264830Y-104665069D01*
X118978032Y-104665069D01*
X118818686Y-104505445D01*
X118456788Y-104355172D01*
X118064931Y-104354830D01*
X117702771Y-104504471D01*
X117425445Y-104781314D01*
X117394842Y-104855013D01*
X117184931Y-104854830D01*
X116822771Y-105004471D01*
X116545445Y-105281314D01*
X116395172Y-105643212D01*
X116394830Y-106035069D01*
X115428170Y-106035069D01*
X115464828Y-105946788D01*
X115465170Y-105554931D01*
X115315529Y-105192771D01*
X115038686Y-104915445D01*
X114676788Y-104765172D01*
X114284931Y-104764830D01*
X113922771Y-104914471D01*
X113645445Y-105191314D01*
X113495172Y-105553212D01*
X113494830Y-105945069D01*
X99034600Y-105945069D01*
X99034600Y-105888641D01*
X98920526Y-105315152D01*
X98595670Y-104828971D01*
X98324828Y-104648000D01*
X98595670Y-104467029D01*
X98717251Y-104285069D01*
X103254830Y-104285069D01*
X103404471Y-104647229D01*
X103681314Y-104924555D01*
X104043212Y-105074828D01*
X104435069Y-105075170D01*
X104797229Y-104925529D01*
X105074555Y-104648686D01*
X105224828Y-104286788D01*
X105225170Y-103894931D01*
X105075529Y-103532771D01*
X104798686Y-103255445D01*
X104436788Y-103105172D01*
X104044931Y-103104830D01*
X103682771Y-103254471D01*
X103405445Y-103531314D01*
X103255172Y-103893212D01*
X103254830Y-104285069D01*
X98717251Y-104285069D01*
X98920526Y-103980848D01*
X99034600Y-103407359D01*
X99034600Y-103348641D01*
X98920526Y-102775152D01*
X98920471Y-102775069D01*
X107184830Y-102775069D01*
X107334471Y-103137229D01*
X107611314Y-103414555D01*
X107973212Y-103564828D01*
X108365069Y-103565170D01*
X108727229Y-103415529D01*
X109004555Y-103138686D01*
X109047580Y-103035069D01*
X113514830Y-103035069D01*
X113664471Y-103397229D01*
X113941314Y-103674555D01*
X114303212Y-103824828D01*
X114695069Y-103825170D01*
X115057229Y-103675529D01*
X115334555Y-103398686D01*
X115484828Y-103036788D01*
X115485170Y-102644931D01*
X115427381Y-102505069D01*
X141254830Y-102505069D01*
X141404471Y-102867229D01*
X141681314Y-103144555D01*
X142043212Y-103294828D01*
X142435069Y-103295170D01*
X142797229Y-103145529D01*
X143074555Y-102868686D01*
X143224828Y-102506788D01*
X143225170Y-102114931D01*
X143075529Y-101752771D01*
X142798686Y-101475445D01*
X142436788Y-101325172D01*
X142044931Y-101324830D01*
X141682771Y-101474471D01*
X141405445Y-101751314D01*
X141255172Y-102113212D01*
X141254830Y-102505069D01*
X115427381Y-102505069D01*
X115335529Y-102282771D01*
X115058686Y-102005445D01*
X114696788Y-101855172D01*
X114304931Y-101854830D01*
X113942771Y-102004471D01*
X113665445Y-102281314D01*
X113515172Y-102643212D01*
X113514830Y-103035069D01*
X109047580Y-103035069D01*
X109154828Y-102776788D01*
X109155170Y-102384931D01*
X109005529Y-102022771D01*
X108728686Y-101745445D01*
X108366788Y-101595172D01*
X107974931Y-101594830D01*
X107612771Y-101744471D01*
X107335445Y-102021314D01*
X107185172Y-102383212D01*
X107184830Y-102775069D01*
X98920471Y-102775069D01*
X98595670Y-102288971D01*
X98324828Y-102108000D01*
X98595670Y-101927029D01*
X98920526Y-101440848D01*
X98937588Y-101355069D01*
X115064830Y-101355069D01*
X115214471Y-101717229D01*
X115491314Y-101994555D01*
X115853212Y-102144828D01*
X116245069Y-102145170D01*
X116607229Y-101995529D01*
X116884555Y-101718686D01*
X117034828Y-101356788D01*
X117035170Y-100964931D01*
X116885529Y-100602771D01*
X116608686Y-100325445D01*
X116246788Y-100175172D01*
X115854931Y-100174830D01*
X115492771Y-100324471D01*
X115215445Y-100601314D01*
X115065172Y-100963212D01*
X115064830Y-101355069D01*
X98937588Y-101355069D01*
X99034600Y-100867359D01*
X99034600Y-100808641D01*
X98920526Y-100235152D01*
X98595670Y-99748971D01*
X98324828Y-99568000D01*
X98595670Y-99387029D01*
X98920526Y-98900848D01*
X98949523Y-98755069D01*
X130534830Y-98755069D01*
X130684471Y-99117229D01*
X130961314Y-99394555D01*
X131323212Y-99544828D01*
X131715069Y-99545170D01*
X132077229Y-99395529D01*
X132354555Y-99118686D01*
X132504828Y-98756788D01*
X132505170Y-98364931D01*
X132355529Y-98002771D01*
X132078686Y-97725445D01*
X131957367Y-97675069D01*
X132884830Y-97675069D01*
X133034471Y-98037229D01*
X133311314Y-98314555D01*
X133673212Y-98464828D01*
X134065069Y-98465170D01*
X134427229Y-98315529D01*
X134704555Y-98038686D01*
X134854828Y-97676788D01*
X134855170Y-97284931D01*
X134705529Y-96922771D01*
X134428686Y-96645445D01*
X134066788Y-96495172D01*
X133674931Y-96494830D01*
X133312771Y-96644471D01*
X133035445Y-96921314D01*
X132885172Y-97283212D01*
X132884830Y-97675069D01*
X131957367Y-97675069D01*
X131716788Y-97575172D01*
X131324931Y-97574830D01*
X130962771Y-97724471D01*
X130685445Y-98001314D01*
X130535172Y-98363212D01*
X130534830Y-98755069D01*
X98949523Y-98755069D01*
X99034600Y-98327359D01*
X99034600Y-98268641D01*
X98920526Y-97695152D01*
X98873699Y-97625069D01*
X102134830Y-97625069D01*
X102284471Y-97987229D01*
X102561314Y-98264555D01*
X102923212Y-98414828D01*
X103315069Y-98415170D01*
X103677229Y-98265529D01*
X103954555Y-97988686D01*
X104084780Y-97675069D01*
X117364830Y-97675069D01*
X117514471Y-98037229D01*
X117791314Y-98314555D01*
X118153212Y-98464828D01*
X118545069Y-98465170D01*
X118907229Y-98315529D01*
X119184555Y-98038686D01*
X119334828Y-97676788D01*
X119334993Y-97488083D01*
X119421314Y-97574555D01*
X119783212Y-97724828D01*
X120175069Y-97725170D01*
X120537229Y-97575529D01*
X120814555Y-97298686D01*
X120964828Y-96936788D01*
X120965170Y-96544931D01*
X120815529Y-96182771D01*
X120538686Y-95905445D01*
X120176788Y-95755172D01*
X119784931Y-95754830D01*
X119422771Y-95904471D01*
X119145445Y-96181314D01*
X118995172Y-96543212D01*
X118995007Y-96731917D01*
X118908686Y-96645445D01*
X118546788Y-96495172D01*
X118154931Y-96494830D01*
X117792771Y-96644471D01*
X117515445Y-96921314D01*
X117365172Y-97283212D01*
X117364830Y-97675069D01*
X104084780Y-97675069D01*
X104104828Y-97626788D01*
X104105170Y-97234931D01*
X103955529Y-96872771D01*
X103708259Y-96625069D01*
X107044830Y-96625069D01*
X107194471Y-96987229D01*
X107471314Y-97264555D01*
X107833212Y-97414828D01*
X108225069Y-97415170D01*
X108587229Y-97265529D01*
X108864555Y-96988686D01*
X109014828Y-96626788D01*
X109015170Y-96234931D01*
X108865529Y-95872771D01*
X108588686Y-95595445D01*
X108226788Y-95445172D01*
X107834931Y-95444830D01*
X107472771Y-95594471D01*
X107195445Y-95871314D01*
X107045172Y-96233212D01*
X107044830Y-96625069D01*
X103708259Y-96625069D01*
X103678686Y-96595445D01*
X103316788Y-96445172D01*
X102924931Y-96444830D01*
X102562771Y-96594471D01*
X102285445Y-96871314D01*
X102135172Y-97233212D01*
X102134830Y-97625069D01*
X98873699Y-97625069D01*
X98595670Y-97208971D01*
X98324828Y-97028000D01*
X98595670Y-96847029D01*
X98920526Y-96360848D01*
X99034600Y-95787359D01*
X99034600Y-95728641D01*
X98920526Y-95155152D01*
X98720017Y-94855069D01*
X116464830Y-94855069D01*
X116614471Y-95217229D01*
X116891314Y-95494555D01*
X117253212Y-95644828D01*
X117645069Y-95645170D01*
X118007229Y-95495529D01*
X118284555Y-95218686D01*
X118360853Y-95034939D01*
X118625069Y-95035170D01*
X118987229Y-94885529D01*
X119264555Y-94608686D01*
X119414828Y-94246788D01*
X119415170Y-93854931D01*
X119288584Y-93548569D01*
X119352766Y-93394000D01*
X132216560Y-93394000D01*
X132216560Y-95426000D01*
X132260838Y-95661317D01*
X132399910Y-95877441D01*
X132612110Y-96022431D01*
X132864000Y-96073440D01*
X134896000Y-96073440D01*
X135131317Y-96029162D01*
X135347441Y-95890090D01*
X135454233Y-95733794D01*
X135755845Y-95935325D01*
X136387655Y-96061000D01*
X136452345Y-96061000D01*
X137084155Y-95935325D01*
X137619778Y-95577433D01*
X137977670Y-95041810D01*
X138103345Y-94410000D01*
X137977670Y-93778190D01*
X137619778Y-93242567D01*
X137084155Y-92884675D01*
X136452345Y-92759000D01*
X136387655Y-92759000D01*
X135755845Y-92884675D01*
X135453038Y-93087004D01*
X135360090Y-92942559D01*
X135147890Y-92797569D01*
X134896000Y-92746560D01*
X132864000Y-92746560D01*
X132628683Y-92790838D01*
X132412559Y-92929910D01*
X132267569Y-93142110D01*
X132216560Y-93394000D01*
X119352766Y-93394000D01*
X119384828Y-93316788D01*
X119385170Y-92924931D01*
X119235529Y-92562771D01*
X118958686Y-92285445D01*
X118596788Y-92135172D01*
X118204931Y-92134830D01*
X117842771Y-92284471D01*
X117565445Y-92561314D01*
X117415172Y-92923212D01*
X117414830Y-93315069D01*
X117541416Y-93621431D01*
X117519147Y-93675061D01*
X117254931Y-93674830D01*
X116892771Y-93824471D01*
X116615445Y-94101314D01*
X116465172Y-94463212D01*
X116464830Y-94855069D01*
X98720017Y-94855069D01*
X98609426Y-94689558D01*
X98634917Y-94684762D01*
X98851041Y-94545690D01*
X98996031Y-94333490D01*
X99047040Y-94081600D01*
X99047040Y-92354400D01*
X99002762Y-92119083D01*
X98863690Y-91902959D01*
X98651490Y-91757969D01*
X98439644Y-91715069D01*
X109194830Y-91715069D01*
X109344471Y-92077229D01*
X109621314Y-92354555D01*
X109983212Y-92504828D01*
X110375069Y-92505170D01*
X110737229Y-92355529D01*
X111014555Y-92078686D01*
X111164828Y-91716788D01*
X111165170Y-91324931D01*
X111015529Y-90962771D01*
X110738686Y-90685445D01*
X110376788Y-90535172D01*
X109984931Y-90534830D01*
X109622771Y-90684471D01*
X109345445Y-90961314D01*
X109195172Y-91323212D01*
X109194830Y-91715069D01*
X98439644Y-91715069D01*
X98399600Y-91706960D01*
X96672400Y-91706960D01*
X96437083Y-91751238D01*
X96220959Y-91890310D01*
X96075969Y-92102510D01*
X96067136Y-92146131D01*
X96055670Y-92128971D01*
X95569489Y-91804115D01*
X94996000Y-91690041D01*
X94422511Y-91804115D01*
X93936330Y-92128971D01*
X93611474Y-92615152D01*
X93497400Y-93188641D01*
X93497400Y-93247359D01*
X93611474Y-93820848D01*
X93936330Y-94307029D01*
X94207172Y-94488000D01*
X93936330Y-94668971D01*
X93611474Y-95155152D01*
X93497400Y-95728641D01*
X93497400Y-95787359D01*
X93611474Y-96360848D01*
X93936330Y-96847029D01*
X94207172Y-97028000D01*
X93936330Y-97208971D01*
X93611474Y-97695152D01*
X93497400Y-98268641D01*
X93497400Y-98327359D01*
X93611474Y-98900848D01*
X93936330Y-99387029D01*
X94207172Y-99568000D01*
X93936330Y-99748971D01*
X93611474Y-100235152D01*
X93497400Y-100808641D01*
X93497400Y-100867359D01*
X93611474Y-101440848D01*
X93936330Y-101927029D01*
X94207172Y-102108000D01*
X93936330Y-102288971D01*
X93611474Y-102775152D01*
X93497400Y-103348641D01*
X93497400Y-103407359D01*
X93611474Y-103980848D01*
X93936330Y-104467029D01*
X94207172Y-104648000D01*
X93936330Y-104828971D01*
X93611474Y-105315152D01*
X93497400Y-105888641D01*
X93497400Y-105947359D01*
X93611474Y-106520848D01*
X93936330Y-107007029D01*
X94207172Y-107188000D01*
X93936330Y-107368971D01*
X93611474Y-107855152D01*
X93497400Y-108428641D01*
X93497400Y-108487359D01*
X93611474Y-109060848D01*
X93936330Y-109547029D01*
X94207172Y-109728000D01*
X93936330Y-109908971D01*
X93611474Y-110395152D01*
X93497400Y-110968641D01*
X93497400Y-111027359D01*
X93611474Y-111600848D01*
X93936330Y-112087029D01*
X94207172Y-112268000D01*
X93936330Y-112448971D01*
X93653003Y-112873000D01*
X91000000Y-112873000D01*
X90950590Y-112883006D01*
X90908965Y-112911447D01*
X90881685Y-112953841D01*
X90873000Y-113000000D01*
X90873000Y-115873000D01*
X80127000Y-115873000D01*
X80127000Y-114865069D01*
X84034830Y-114865069D01*
X84184471Y-115227229D01*
X84461314Y-115504555D01*
X84823212Y-115654828D01*
X85215069Y-115655170D01*
X85577229Y-115505529D01*
X85854555Y-115228686D01*
X86004828Y-114866788D01*
X86005170Y-114474931D01*
X85855529Y-114112771D01*
X85578686Y-113835445D01*
X85216788Y-113685172D01*
X84824931Y-113684830D01*
X84462771Y-113834471D01*
X84185445Y-114111314D01*
X84035172Y-114473212D01*
X84034830Y-114865069D01*
X80127000Y-114865069D01*
X80127000Y-110225069D01*
X91574830Y-110225069D01*
X91724471Y-110587229D01*
X92001314Y-110864555D01*
X92363212Y-111014828D01*
X92755069Y-111015170D01*
X93117229Y-110865529D01*
X93394555Y-110588686D01*
X93544828Y-110226788D01*
X93545170Y-109834931D01*
X93395529Y-109472771D01*
X93118686Y-109195445D01*
X92756788Y-109045172D01*
X92364931Y-109044830D01*
X92002771Y-109194471D01*
X91725445Y-109471314D01*
X91575172Y-109833212D01*
X91574830Y-110225069D01*
X80127000Y-110225069D01*
X80127000Y-108695069D01*
X84024830Y-108695069D01*
X84174471Y-109057229D01*
X84451314Y-109334555D01*
X84813212Y-109484828D01*
X85205069Y-109485170D01*
X85567229Y-109335529D01*
X85844555Y-109058686D01*
X85994828Y-108696788D01*
X85995170Y-108304931D01*
X85845529Y-107942771D01*
X85568686Y-107665445D01*
X85206788Y-107515172D01*
X84814931Y-107514830D01*
X84452771Y-107664471D01*
X84175445Y-107941314D01*
X84025172Y-108303212D01*
X84024830Y-108695069D01*
X80127000Y-108695069D01*
X80127000Y-104035069D01*
X84014830Y-104035069D01*
X84164471Y-104397229D01*
X84441314Y-104674555D01*
X84803212Y-104824828D01*
X85195069Y-104825170D01*
X85557229Y-104675529D01*
X85834555Y-104398686D01*
X85984828Y-104036788D01*
X85985170Y-103644931D01*
X85835529Y-103282771D01*
X85732905Y-103179968D01*
X85944555Y-102968686D01*
X86094828Y-102606788D01*
X86095170Y-102214931D01*
X85945529Y-101852771D01*
X85668686Y-101575445D01*
X85306788Y-101425172D01*
X84914931Y-101424830D01*
X84552771Y-101574471D01*
X84275445Y-101851314D01*
X84125172Y-102213212D01*
X84124830Y-102605069D01*
X84274471Y-102967229D01*
X84377095Y-103070032D01*
X84165445Y-103281314D01*
X84015172Y-103643212D01*
X84014830Y-104035069D01*
X80127000Y-104035069D01*
X80127000Y-97495069D01*
X91494830Y-97495069D01*
X91644471Y-97857229D01*
X91921314Y-98134555D01*
X92283212Y-98284828D01*
X92675069Y-98285170D01*
X93037229Y-98135529D01*
X93314555Y-97858686D01*
X93464828Y-97496788D01*
X93465170Y-97104931D01*
X93315529Y-96742771D01*
X93038686Y-96465445D01*
X92676788Y-96315172D01*
X92284931Y-96314830D01*
X91922771Y-96464471D01*
X91645445Y-96741314D01*
X91495172Y-97103212D01*
X91494830Y-97495069D01*
X80127000Y-97495069D01*
X80127000Y-96545069D01*
X84124830Y-96545069D01*
X84274471Y-96907229D01*
X84551314Y-97184555D01*
X84913212Y-97334828D01*
X85305069Y-97335170D01*
X85667229Y-97185529D01*
X85944555Y-96908686D01*
X86094828Y-96546788D01*
X86095170Y-96154931D01*
X85945529Y-95792771D01*
X85668686Y-95515445D01*
X85306788Y-95365172D01*
X84914931Y-95364830D01*
X84552771Y-95514471D01*
X84275445Y-95791314D01*
X84125172Y-96153212D01*
X84124830Y-96545069D01*
X80127000Y-96545069D01*
X80127000Y-90315069D01*
X83954830Y-90315069D01*
X84104471Y-90677229D01*
X84381314Y-90954555D01*
X84743212Y-91104828D01*
X85135069Y-91105170D01*
X85497229Y-90955529D01*
X85774555Y-90678686D01*
X85924828Y-90316788D01*
X85925117Y-89985069D01*
X115554830Y-89985069D01*
X115704471Y-90347229D01*
X115981314Y-90624555D01*
X116343212Y-90774828D01*
X116735069Y-90775170D01*
X117097229Y-90625529D01*
X117374555Y-90348686D01*
X117524828Y-89986788D01*
X117524890Y-89915069D01*
X126564830Y-89915069D01*
X126714471Y-90277229D01*
X126991314Y-90554555D01*
X127353212Y-90704828D01*
X127745069Y-90705170D01*
X128107229Y-90555529D01*
X128384555Y-90278686D01*
X128534828Y-89916788D01*
X128535170Y-89524931D01*
X128385529Y-89162771D01*
X128108686Y-88885445D01*
X127746788Y-88735172D01*
X127354931Y-88734830D01*
X126992771Y-88884471D01*
X126715445Y-89161314D01*
X126565172Y-89523212D01*
X126564830Y-89915069D01*
X117524890Y-89915069D01*
X117525170Y-89594931D01*
X117375529Y-89232771D01*
X117098686Y-88955445D01*
X116736788Y-88805172D01*
X116344931Y-88804830D01*
X115982771Y-88954471D01*
X115705445Y-89231314D01*
X115555172Y-89593212D01*
X115554830Y-89985069D01*
X85925117Y-89985069D01*
X85925170Y-89924931D01*
X85775529Y-89562771D01*
X85498686Y-89285445D01*
X85136788Y-89135172D01*
X84744931Y-89134830D01*
X84382771Y-89284471D01*
X84105445Y-89561314D01*
X83955172Y-89923212D01*
X83954830Y-90315069D01*
X80127000Y-90315069D01*
X80127000Y-89127000D01*
X114000000Y-89127000D01*
X114049410Y-89116994D01*
X114091035Y-89088553D01*
X114118315Y-89046159D01*
X114127000Y-89000000D01*
X114127000Y-87305069D01*
X134794830Y-87305069D01*
X134944471Y-87667229D01*
X135221314Y-87944555D01*
X135583212Y-88094828D01*
X135975069Y-88095170D01*
X136314140Y-87955069D01*
X162104830Y-87955069D01*
X162254471Y-88317229D01*
X162531314Y-88594555D01*
X162893212Y-88744828D01*
X163285069Y-88745170D01*
X163647229Y-88595529D01*
X163924555Y-88318686D01*
X164074828Y-87956788D01*
X164075170Y-87564931D01*
X163925529Y-87202771D01*
X163837980Y-87115069D01*
X187694830Y-87115069D01*
X187844471Y-87477229D01*
X188121314Y-87754555D01*
X188483212Y-87904828D01*
X188875069Y-87905170D01*
X189237229Y-87755529D01*
X189514555Y-87478686D01*
X189664828Y-87116788D01*
X189665170Y-86724931D01*
X189515529Y-86362771D01*
X189238686Y-86085445D01*
X188876788Y-85935172D01*
X188484931Y-85934830D01*
X188122771Y-86084471D01*
X187845445Y-86361314D01*
X187695172Y-86723212D01*
X187694830Y-87115069D01*
X163837980Y-87115069D01*
X163648686Y-86925445D01*
X163286788Y-86775172D01*
X162894931Y-86774830D01*
X162532771Y-86924471D01*
X162255445Y-87201314D01*
X162105172Y-87563212D01*
X162104830Y-87955069D01*
X136314140Y-87955069D01*
X136337229Y-87945529D01*
X136614555Y-87668686D01*
X136764828Y-87306788D01*
X136765170Y-86914931D01*
X136615529Y-86552771D01*
X136338686Y-86275445D01*
X135976788Y-86125172D01*
X135584931Y-86124830D01*
X135222771Y-86274471D01*
X134945445Y-86551314D01*
X134795172Y-86913212D01*
X134794830Y-87305069D01*
X114127000Y-87305069D01*
X114127000Y-83815255D01*
X115181400Y-83815255D01*
X115181400Y-84184745D01*
X115295474Y-84758234D01*
X115620330Y-85244415D01*
X116106511Y-85569271D01*
X116680000Y-85683345D01*
X117253489Y-85569271D01*
X117739670Y-85244415D01*
X117950000Y-84929634D01*
X118160330Y-85244415D01*
X118646511Y-85569271D01*
X119220000Y-85683345D01*
X119793489Y-85569271D01*
X120279670Y-85244415D01*
X120486461Y-84934931D01*
X120857964Y-85350732D01*
X121385209Y-85604709D01*
X121400974Y-85607358D01*
X121633000Y-85486217D01*
X121633000Y-84127000D01*
X121613000Y-84127000D01*
X121613000Y-83873000D01*
X121633000Y-83873000D01*
X121633000Y-82513783D01*
X121887000Y-82513783D01*
X121887000Y-83873000D01*
X121907000Y-83873000D01*
X121907000Y-84127000D01*
X121887000Y-84127000D01*
X121887000Y-85486217D01*
X122119026Y-85607358D01*
X122134791Y-85604709D01*
X122662036Y-85350732D01*
X123033539Y-84934931D01*
X123240330Y-85244415D01*
X123726511Y-85569271D01*
X124300000Y-85683345D01*
X124873489Y-85569271D01*
X125359670Y-85244415D01*
X125570000Y-84929634D01*
X125780330Y-85244415D01*
X126266511Y-85569271D01*
X126840000Y-85683345D01*
X127413489Y-85569271D01*
X127899670Y-85244415D01*
X128110000Y-84929634D01*
X128320330Y-85244415D01*
X128806511Y-85569271D01*
X129380000Y-85683345D01*
X129953489Y-85569271D01*
X130439670Y-85244415D01*
X130650000Y-84929634D01*
X130860330Y-85244415D01*
X131346511Y-85569271D01*
X131920000Y-85683345D01*
X132493489Y-85569271D01*
X132979670Y-85244415D01*
X133190000Y-84929634D01*
X133400330Y-85244415D01*
X133886511Y-85569271D01*
X134460000Y-85683345D01*
X135033489Y-85569271D01*
X135519670Y-85244415D01*
X135529243Y-85230087D01*
X135533238Y-85251317D01*
X135672310Y-85467441D01*
X135884510Y-85612431D01*
X136136400Y-85663440D01*
X137863600Y-85663440D01*
X138098917Y-85619162D01*
X138315041Y-85480090D01*
X138460031Y-85267890D01*
X138511040Y-85016000D01*
X138511040Y-83815255D01*
X147101400Y-83815255D01*
X147101400Y-84184745D01*
X147215474Y-84758234D01*
X147540330Y-85244415D01*
X148026511Y-85569271D01*
X148600000Y-85683345D01*
X149173489Y-85569271D01*
X149659670Y-85244415D01*
X149870000Y-84929634D01*
X150080330Y-85244415D01*
X150566511Y-85569271D01*
X151140000Y-85683345D01*
X151713489Y-85569271D01*
X152199670Y-85244415D01*
X152410000Y-84929634D01*
X152620330Y-85244415D01*
X153106511Y-85569271D01*
X153680000Y-85683345D01*
X154253489Y-85569271D01*
X154739670Y-85244415D01*
X154950000Y-84929634D01*
X155160330Y-85244415D01*
X155646511Y-85569271D01*
X156220000Y-85683345D01*
X156793489Y-85569271D01*
X157279670Y-85244415D01*
X157490000Y-84929634D01*
X157700330Y-85244415D01*
X158186511Y-85569271D01*
X158760000Y-85683345D01*
X159333489Y-85569271D01*
X159819670Y-85244415D01*
X160030000Y-84929634D01*
X160240330Y-85244415D01*
X160726511Y-85569271D01*
X161300000Y-85683345D01*
X161873489Y-85569271D01*
X162359670Y-85244415D01*
X162570000Y-84929634D01*
X162780330Y-85244415D01*
X163266511Y-85569271D01*
X163840000Y-85683345D01*
X164413489Y-85569271D01*
X164899670Y-85244415D01*
X165110000Y-84929634D01*
X165320330Y-85244415D01*
X165806511Y-85569271D01*
X166380000Y-85683345D01*
X166953489Y-85569271D01*
X167439670Y-85244415D01*
X167650000Y-84929634D01*
X167860330Y-85244415D01*
X168346511Y-85569271D01*
X168920000Y-85683345D01*
X169493489Y-85569271D01*
X169979670Y-85244415D01*
X170190000Y-84929634D01*
X170400330Y-85244415D01*
X170886511Y-85569271D01*
X171460000Y-85683345D01*
X172033489Y-85569271D01*
X172519670Y-85244415D01*
X172534500Y-85222220D01*
X172598073Y-85375699D01*
X172776702Y-85554327D01*
X173010091Y-85651000D01*
X173714250Y-85651000D01*
X173873000Y-85492250D01*
X173873000Y-84127000D01*
X174127000Y-84127000D01*
X174127000Y-85492250D01*
X174285750Y-85651000D01*
X174989909Y-85651000D01*
X175223298Y-85554327D01*
X175401927Y-85375699D01*
X175498600Y-85142310D01*
X175498600Y-84285750D01*
X175339850Y-84127000D01*
X174127000Y-84127000D01*
X173873000Y-84127000D01*
X173853000Y-84127000D01*
X173853000Y-83873000D01*
X173873000Y-83873000D01*
X173873000Y-82507750D01*
X174127000Y-82507750D01*
X174127000Y-83873000D01*
X175339850Y-83873000D01*
X175498600Y-83714250D01*
X175498600Y-82904000D01*
X184628960Y-82904000D01*
X184628960Y-84936000D01*
X184673238Y-85171317D01*
X184812310Y-85387441D01*
X185024510Y-85532431D01*
X185276400Y-85583440D01*
X187003600Y-85583440D01*
X187238917Y-85539162D01*
X187455041Y-85400090D01*
X187600031Y-85187890D01*
X187608400Y-85146561D01*
X187620330Y-85164415D01*
X188106511Y-85489271D01*
X188680000Y-85603345D01*
X189253489Y-85489271D01*
X189739670Y-85164415D01*
X189946461Y-84854931D01*
X190317964Y-85270732D01*
X190845209Y-85524709D01*
X190860974Y-85527358D01*
X191093000Y-85406217D01*
X191093000Y-84047000D01*
X191073000Y-84047000D01*
X191073000Y-83793000D01*
X191093000Y-83793000D01*
X191093000Y-82433783D01*
X191347000Y-82433783D01*
X191347000Y-83793000D01*
X191367000Y-83793000D01*
X191367000Y-84047000D01*
X191347000Y-84047000D01*
X191347000Y-85406217D01*
X191579026Y-85527358D01*
X191594791Y-85524709D01*
X192122036Y-85270732D01*
X192493539Y-84854931D01*
X192700330Y-85164415D01*
X193186511Y-85489271D01*
X193760000Y-85603345D01*
X194333489Y-85489271D01*
X194819670Y-85164415D01*
X195030000Y-84849634D01*
X195240330Y-85164415D01*
X195726511Y-85489271D01*
X196300000Y-85603345D01*
X196873489Y-85489271D01*
X197359670Y-85164415D01*
X197570000Y-84849634D01*
X197780330Y-85164415D01*
X198159355Y-85417672D01*
X198005445Y-85571314D01*
X197855172Y-85933212D01*
X197854830Y-86325069D01*
X198004471Y-86687229D01*
X198281314Y-86964555D01*
X198643212Y-87114828D01*
X199035069Y-87115170D01*
X199397229Y-86965529D01*
X199674555Y-86688686D01*
X199824828Y-86326788D01*
X199825170Y-85934931D01*
X199675529Y-85572771D01*
X199520678Y-85417650D01*
X199899670Y-85164415D01*
X200110000Y-84849634D01*
X200320330Y-85164415D01*
X200806511Y-85489271D01*
X201380000Y-85603345D01*
X201953489Y-85489271D01*
X202439670Y-85164415D01*
X202764526Y-84678234D01*
X202878600Y-84104745D01*
X202878600Y-83735255D01*
X202764526Y-83161766D01*
X202439670Y-82675585D01*
X201953489Y-82350729D01*
X201380000Y-82236655D01*
X200806511Y-82350729D01*
X200320330Y-82675585D01*
X200110000Y-82990366D01*
X199899670Y-82675585D01*
X199413489Y-82350729D01*
X198840000Y-82236655D01*
X198266511Y-82350729D01*
X197780330Y-82675585D01*
X197570000Y-82990366D01*
X197359670Y-82675585D01*
X196873489Y-82350729D01*
X196300000Y-82236655D01*
X195726511Y-82350729D01*
X195240330Y-82675585D01*
X195030000Y-82990366D01*
X194819670Y-82675585D01*
X194333489Y-82350729D01*
X193760000Y-82236655D01*
X193186511Y-82350729D01*
X192700330Y-82675585D01*
X192493539Y-82985069D01*
X192122036Y-82569268D01*
X191594791Y-82315291D01*
X191579026Y-82312642D01*
X191347000Y-82433783D01*
X191093000Y-82433783D01*
X190860974Y-82312642D01*
X190845209Y-82315291D01*
X190317964Y-82569268D01*
X189946461Y-82985069D01*
X189739670Y-82675585D01*
X189253489Y-82350729D01*
X188680000Y-82236655D01*
X188106511Y-82350729D01*
X187620330Y-82675585D01*
X187610757Y-82689913D01*
X187606762Y-82668683D01*
X187467690Y-82452559D01*
X187255490Y-82307569D01*
X187003600Y-82256560D01*
X185276400Y-82256560D01*
X185041083Y-82300838D01*
X184824959Y-82439910D01*
X184679969Y-82652110D01*
X184628960Y-82904000D01*
X175498600Y-82904000D01*
X175498600Y-82857690D01*
X175401927Y-82624301D01*
X175223298Y-82445673D01*
X174989909Y-82349000D01*
X174285750Y-82349000D01*
X174127000Y-82507750D01*
X173873000Y-82507750D01*
X173714250Y-82349000D01*
X173010091Y-82349000D01*
X172776702Y-82445673D01*
X172598073Y-82624301D01*
X172534500Y-82777780D01*
X172519670Y-82755585D01*
X172033489Y-82430729D01*
X171460000Y-82316655D01*
X170886511Y-82430729D01*
X170400330Y-82755585D01*
X170190000Y-83070366D01*
X169979670Y-82755585D01*
X169493489Y-82430729D01*
X168920000Y-82316655D01*
X168346511Y-82430729D01*
X167860330Y-82755585D01*
X167650000Y-83070366D01*
X167439670Y-82755585D01*
X166953489Y-82430729D01*
X166380000Y-82316655D01*
X165806511Y-82430729D01*
X165320330Y-82755585D01*
X165110000Y-83070366D01*
X164899670Y-82755585D01*
X164413489Y-82430729D01*
X163840000Y-82316655D01*
X163266511Y-82430729D01*
X162780330Y-82755585D01*
X162570000Y-83070366D01*
X162359670Y-82755585D01*
X161873489Y-82430729D01*
X161300000Y-82316655D01*
X160726511Y-82430729D01*
X160240330Y-82755585D01*
X160030000Y-83070366D01*
X159819670Y-82755585D01*
X159333489Y-82430729D01*
X158760000Y-82316655D01*
X158186511Y-82430729D01*
X157700330Y-82755585D01*
X157490000Y-83070366D01*
X157279670Y-82755585D01*
X156793489Y-82430729D01*
X156220000Y-82316655D01*
X155646511Y-82430729D01*
X155160330Y-82755585D01*
X154950000Y-83070366D01*
X154739670Y-82755585D01*
X154253489Y-82430729D01*
X153680000Y-82316655D01*
X153106511Y-82430729D01*
X152620330Y-82755585D01*
X152410000Y-83070366D01*
X152199670Y-82755585D01*
X151713489Y-82430729D01*
X151140000Y-82316655D01*
X150566511Y-82430729D01*
X150080330Y-82755585D01*
X149870000Y-83070366D01*
X149659670Y-82755585D01*
X149173489Y-82430729D01*
X148600000Y-82316655D01*
X148026511Y-82430729D01*
X147540330Y-82755585D01*
X147215474Y-83241766D01*
X147101400Y-83815255D01*
X138511040Y-83815255D01*
X138511040Y-82984000D01*
X138466762Y-82748683D01*
X138327690Y-82532559D01*
X138115490Y-82387569D01*
X137863600Y-82336560D01*
X136136400Y-82336560D01*
X135901083Y-82380838D01*
X135684959Y-82519910D01*
X135539969Y-82732110D01*
X135531600Y-82773439D01*
X135519670Y-82755585D01*
X135033489Y-82430729D01*
X134460000Y-82316655D01*
X133886511Y-82430729D01*
X133400330Y-82755585D01*
X133190000Y-83070366D01*
X132979670Y-82755585D01*
X132493489Y-82430729D01*
X131920000Y-82316655D01*
X131346511Y-82430729D01*
X130860330Y-82755585D01*
X130650000Y-83070366D01*
X130439670Y-82755585D01*
X129953489Y-82430729D01*
X129380000Y-82316655D01*
X128806511Y-82430729D01*
X128320330Y-82755585D01*
X128110000Y-83070366D01*
X127899670Y-82755585D01*
X127413489Y-82430729D01*
X126840000Y-82316655D01*
X126266511Y-82430729D01*
X125780330Y-82755585D01*
X125570000Y-83070366D01*
X125359670Y-82755585D01*
X124873489Y-82430729D01*
X124300000Y-82316655D01*
X123726511Y-82430729D01*
X123240330Y-82755585D01*
X123033539Y-83065069D01*
X122662036Y-82649268D01*
X122134791Y-82395291D01*
X122119026Y-82392642D01*
X121887000Y-82513783D01*
X121633000Y-82513783D01*
X121400974Y-82392642D01*
X121385209Y-82395291D01*
X120857964Y-82649268D01*
X120486461Y-83065069D01*
X120279670Y-82755585D01*
X119793489Y-82430729D01*
X119220000Y-82316655D01*
X118646511Y-82430729D01*
X118160330Y-82755585D01*
X117950000Y-83070366D01*
X117739670Y-82755585D01*
X117253489Y-82430729D01*
X116680000Y-82316655D01*
X116106511Y-82430729D01*
X115620330Y-82755585D01*
X115295474Y-83241766D01*
X115181400Y-83815255D01*
X114127000Y-83815255D01*
X114127000Y-80323795D01*
X120824716Y-80323795D01*
X121073106Y-80924943D01*
X121532637Y-81385278D01*
X122133352Y-81634716D01*
X122783795Y-81635284D01*
X123384943Y-81386894D01*
X123447197Y-81324749D01*
X123461673Y-81359698D01*
X123640301Y-81538327D01*
X123873690Y-81635000D01*
X124714250Y-81635000D01*
X124873000Y-81476250D01*
X124873000Y-80127000D01*
X125127000Y-80127000D01*
X125127000Y-81476250D01*
X125285750Y-81635000D01*
X126126310Y-81635000D01*
X126359699Y-81538327D01*
X126538327Y-81359698D01*
X126635000Y-81126309D01*
X126635000Y-80323795D01*
X171824716Y-80323795D01*
X172073106Y-80924943D01*
X172532637Y-81385278D01*
X173133352Y-81634716D01*
X173783795Y-81635284D01*
X174384943Y-81386894D01*
X174447197Y-81324749D01*
X174461673Y-81359698D01*
X174640301Y-81538327D01*
X174873690Y-81635000D01*
X175714250Y-81635000D01*
X175873000Y-81476250D01*
X175873000Y-80127000D01*
X176127000Y-80127000D01*
X176127000Y-81476250D01*
X176285750Y-81635000D01*
X177126310Y-81635000D01*
X177359699Y-81538327D01*
X177538327Y-81359698D01*
X177635000Y-81126309D01*
X177635000Y-80285750D01*
X177555000Y-80205750D01*
X188505000Y-80205750D01*
X188505000Y-81046309D01*
X188601673Y-81279698D01*
X188780301Y-81458327D01*
X189013690Y-81555000D01*
X189854250Y-81555000D01*
X190013000Y-81396250D01*
X190013000Y-80047000D01*
X188663750Y-80047000D01*
X188505000Y-80205750D01*
X177555000Y-80205750D01*
X177476250Y-80127000D01*
X176127000Y-80127000D01*
X175873000Y-80127000D01*
X175853000Y-80127000D01*
X175853000Y-79873000D01*
X175873000Y-79873000D01*
X175873000Y-78523750D01*
X176127000Y-78523750D01*
X176127000Y-79873000D01*
X177476250Y-79873000D01*
X177635000Y-79714250D01*
X177635000Y-78873691D01*
X177601863Y-78793691D01*
X188505000Y-78793691D01*
X188505000Y-79634250D01*
X188663750Y-79793000D01*
X190013000Y-79793000D01*
X190013000Y-78443750D01*
X190267000Y-78443750D01*
X190267000Y-79793000D01*
X190287000Y-79793000D01*
X190287000Y-80047000D01*
X190267000Y-80047000D01*
X190267000Y-81396250D01*
X190425750Y-81555000D01*
X191266310Y-81555000D01*
X191499699Y-81458327D01*
X191678327Y-81279698D01*
X191692630Y-81245166D01*
X191752637Y-81305278D01*
X192353352Y-81554716D01*
X193003795Y-81555284D01*
X193604943Y-81306894D01*
X194065278Y-80847363D01*
X194314716Y-80246648D01*
X194315284Y-79596205D01*
X194066894Y-78995057D01*
X193607363Y-78534722D01*
X193006648Y-78285284D01*
X192356205Y-78284716D01*
X191755057Y-78533106D01*
X191692803Y-78595251D01*
X191678327Y-78560302D01*
X191499699Y-78381673D01*
X191266310Y-78285000D01*
X190425750Y-78285000D01*
X190267000Y-78443750D01*
X190013000Y-78443750D01*
X189854250Y-78285000D01*
X189013690Y-78285000D01*
X188780301Y-78381673D01*
X188601673Y-78560302D01*
X188505000Y-78793691D01*
X177601863Y-78793691D01*
X177538327Y-78640302D01*
X177359699Y-78461673D01*
X177126310Y-78365000D01*
X176285750Y-78365000D01*
X176127000Y-78523750D01*
X175873000Y-78523750D01*
X175714250Y-78365000D01*
X174873690Y-78365000D01*
X174640301Y-78461673D01*
X174461673Y-78640302D01*
X174447370Y-78674834D01*
X174387363Y-78614722D01*
X173786648Y-78365284D01*
X173136205Y-78364716D01*
X172535057Y-78613106D01*
X172074722Y-79072637D01*
X171825284Y-79673352D01*
X171824716Y-80323795D01*
X126635000Y-80323795D01*
X126635000Y-80285750D01*
X126476250Y-80127000D01*
X125127000Y-80127000D01*
X124873000Y-80127000D01*
X124853000Y-80127000D01*
X124853000Y-79873000D01*
X124873000Y-79873000D01*
X124873000Y-78523750D01*
X125127000Y-78523750D01*
X125127000Y-79873000D01*
X126476250Y-79873000D01*
X126635000Y-79714250D01*
X126635000Y-78873691D01*
X126538327Y-78640302D01*
X126359699Y-78461673D01*
X126126310Y-78365000D01*
X125285750Y-78365000D01*
X125127000Y-78523750D01*
X124873000Y-78523750D01*
X124714250Y-78365000D01*
X123873690Y-78365000D01*
X123640301Y-78461673D01*
X123461673Y-78640302D01*
X123447370Y-78674834D01*
X123387363Y-78614722D01*
X122786648Y-78365284D01*
X122136205Y-78364716D01*
X121535057Y-78613106D01*
X121074722Y-79072637D01*
X120825284Y-79673352D01*
X120824716Y-80323795D01*
X114127000Y-80323795D01*
X114127000Y-78127000D01*
X206873000Y-78127000D01*
X206873000Y-133873000D01*
X206873000Y-133873000D01*
G37*
X206873000Y-133873000D02*
X169127000Y-133873000D01*
X169127000Y-132315069D01*
X177114830Y-132315069D01*
X177264471Y-132677229D01*
X177541314Y-132954555D01*
X177903212Y-133104828D01*
X178295069Y-133105170D01*
X178657229Y-132955529D01*
X178934555Y-132678686D01*
X179084828Y-132316788D01*
X179085170Y-131924931D01*
X178935529Y-131562771D01*
X178658686Y-131285445D01*
X178296788Y-131135172D01*
X177904931Y-131134830D01*
X177542771Y-131284471D01*
X177265445Y-131561314D01*
X177115172Y-131923212D01*
X177114830Y-132315069D01*
X169127000Y-132315069D01*
X169127000Y-130504188D01*
X171535417Y-130504188D01*
X171597071Y-130739800D01*
X172097480Y-130915927D01*
X172627199Y-130887148D01*
X172982929Y-130739800D01*
X173044583Y-130504188D01*
X179155417Y-130504188D01*
X179217071Y-130739800D01*
X179717480Y-130915927D01*
X180247199Y-130887148D01*
X180602929Y-130739800D01*
X180664583Y-130504188D01*
X179910000Y-129749605D01*
X179155417Y-130504188D01*
X173044583Y-130504188D01*
X172290000Y-129749605D01*
X171535417Y-130504188D01*
X169127000Y-130504188D01*
X169127000Y-129377480D01*
X170944073Y-129377480D01*
X170972852Y-129907199D01*
X171120200Y-130262929D01*
X171355812Y-130324583D01*
X172110395Y-129570000D01*
X172469605Y-129570000D01*
X173224188Y-130324583D01*
X173459800Y-130262929D01*
X173635927Y-129762520D01*
X173615009Y-129377480D01*
X178564073Y-129377480D01*
X178592852Y-129907199D01*
X178740200Y-130262929D01*
X178975812Y-130324583D01*
X179730395Y-129570000D01*
X180089605Y-129570000D01*
X180844188Y-130324583D01*
X181079800Y-130262929D01*
X181255927Y-129762520D01*
X181227148Y-129232801D01*
X181079800Y-128877071D01*
X180844188Y-128815417D01*
X180089605Y-129570000D01*
X179730395Y-129570000D01*
X178975812Y-128815417D01*
X178740200Y-128877071D01*
X178564073Y-129377480D01*
X173615009Y-129377480D01*
X173607148Y-129232801D01*
X173459800Y-128877071D01*
X173224188Y-128815417D01*
X172469605Y-129570000D01*
X172110395Y-129570000D01*
X171355812Y-128815417D01*
X171120200Y-128877071D01*
X170944073Y-129377480D01*
X169127000Y-129377480D01*
X169127000Y-128635812D01*
X171535417Y-128635812D01*
X172290000Y-129390395D01*
X173044583Y-128635812D01*
X179155417Y-128635812D01*
X179910000Y-129390395D01*
X180664583Y-128635812D01*
X180602929Y-128400200D01*
X180102520Y-128224073D01*
X179572801Y-128252852D01*
X179217071Y-128400200D01*
X179155417Y-128635812D01*
X173044583Y-128635812D01*
X172982929Y-128400200D01*
X172482520Y-128224073D01*
X171952801Y-128252852D01*
X171597071Y-128400200D01*
X171535417Y-128635812D01*
X169127000Y-128635812D01*
X169127000Y-124754086D01*
X170956269Y-124754086D01*
X171158854Y-125244380D01*
X171533647Y-125619827D01*
X172023587Y-125823268D01*
X172554086Y-125823731D01*
X173044380Y-125621146D01*
X173419827Y-125246353D01*
X173623268Y-124756413D01*
X173623270Y-124754086D01*
X178576269Y-124754086D01*
X178778854Y-125244380D01*
X179153647Y-125619827D01*
X179643587Y-125823268D01*
X180174086Y-125823731D01*
X180664380Y-125621146D01*
X181039827Y-125246353D01*
X181243268Y-124756413D01*
X181243299Y-124720000D01*
X186742041Y-124720000D01*
X186856115Y-125293489D01*
X187180971Y-125779670D01*
X187194642Y-125788805D01*
X187171083Y-125793238D01*
X186954959Y-125932310D01*
X186809969Y-126144510D01*
X186758960Y-126396400D01*
X186758960Y-128123600D01*
X186803238Y-128358917D01*
X186942310Y-128575041D01*
X187154510Y-128720031D01*
X187406400Y-128771040D01*
X187465772Y-128771040D01*
X187435445Y-128801314D01*
X187285172Y-129163212D01*
X187284830Y-129555069D01*
X187434471Y-129917229D01*
X187711314Y-130194555D01*
X188073212Y-130344828D01*
X188465069Y-130345170D01*
X188827229Y-130195529D01*
X189104555Y-129918686D01*
X189254828Y-129556788D01*
X189255170Y-129164931D01*
X189105529Y-128802771D01*
X189073853Y-128771040D01*
X189133600Y-128771040D01*
X189368917Y-128726762D01*
X189585041Y-128587690D01*
X189730031Y-128375490D01*
X189749662Y-128278549D01*
X189921510Y-128466821D01*
X190450973Y-128714968D01*
X190683000Y-128594469D01*
X190683000Y-127387000D01*
X190937000Y-127387000D01*
X190937000Y-128594469D01*
X191169027Y-128714968D01*
X191698490Y-128466821D01*
X192080000Y-128048848D01*
X192461510Y-128466821D01*
X192990973Y-128714968D01*
X193223000Y-128594469D01*
X193223000Y-127387000D01*
X190937000Y-127387000D01*
X190683000Y-127387000D01*
X190663000Y-127387000D01*
X190663000Y-127133000D01*
X190683000Y-127133000D01*
X190683000Y-127113000D01*
X190937000Y-127113000D01*
X190937000Y-127133000D01*
X193223000Y-127133000D01*
X193223000Y-127113000D01*
X193477000Y-127113000D01*
X193477000Y-127133000D01*
X193497000Y-127133000D01*
X193497000Y-127387000D01*
X193477000Y-127387000D01*
X193477000Y-128594469D01*
X193709027Y-128714968D01*
X194238490Y-128466821D01*
X194620008Y-128048839D01*
X194800971Y-128319670D01*
X195287152Y-128644526D01*
X195860641Y-128758600D01*
X195919359Y-128758600D01*
X196492848Y-128644526D01*
X196979029Y-128319670D01*
X197159992Y-128048839D01*
X197541510Y-128466821D01*
X198070973Y-128714968D01*
X198303000Y-128594469D01*
X198303000Y-127387000D01*
X198557000Y-127387000D01*
X198557000Y-128594469D01*
X198789027Y-128714968D01*
X199318490Y-128466821D01*
X199712688Y-128034947D01*
X199884958Y-127619026D01*
X199763817Y-127387000D01*
X198557000Y-127387000D01*
X198303000Y-127387000D01*
X198283000Y-127387000D01*
X198283000Y-127133000D01*
X198303000Y-127133000D01*
X198303000Y-127113000D01*
X198557000Y-127113000D01*
X198557000Y-127133000D01*
X199763817Y-127133000D01*
X199884958Y-126900974D01*
X199712688Y-126485053D01*
X199318490Y-126053179D01*
X199195772Y-125995664D01*
X199519029Y-125779670D01*
X199843885Y-125293489D01*
X199957959Y-124720000D01*
X199843885Y-124146511D01*
X199519029Y-123660330D01*
X199032848Y-123335474D01*
X198459359Y-123221400D01*
X198400641Y-123221400D01*
X197827152Y-123335474D01*
X197340971Y-123660330D01*
X197160000Y-123931172D01*
X196979029Y-123660330D01*
X196492848Y-123335474D01*
X195919359Y-123221400D01*
X195860641Y-123221400D01*
X195287152Y-123335474D01*
X194800971Y-123660330D01*
X194620000Y-123931172D01*
X194439029Y-123660330D01*
X193952848Y-123335474D01*
X193379359Y-123221400D01*
X193320641Y-123221400D01*
X192747152Y-123335474D01*
X192260971Y-123660330D01*
X192080000Y-123931172D01*
X191899029Y-123660330D01*
X191412848Y-123335474D01*
X190839359Y-123221400D01*
X190780641Y-123221400D01*
X190207152Y-123335474D01*
X189720971Y-123660330D01*
X189540000Y-123931172D01*
X189359029Y-123660330D01*
X188872848Y-123335474D01*
X188299359Y-123221400D01*
X188240641Y-123221400D01*
X187667152Y-123335474D01*
X187180971Y-123660330D01*
X186856115Y-124146511D01*
X186742041Y-124720000D01*
X181243299Y-124720000D01*
X181243731Y-124225914D01*
X181041146Y-123735620D01*
X180666353Y-123360173D01*
X180176413Y-123156732D01*
X179645914Y-123156269D01*
X179155620Y-123358854D01*
X178780173Y-123733647D01*
X178576732Y-124223587D01*
X178576269Y-124754086D01*
X173623270Y-124754086D01*
X173623731Y-124225914D01*
X173421146Y-123735620D01*
X173046353Y-123360173D01*
X172556413Y-123156732D01*
X172025914Y-123156269D01*
X171535620Y-123358854D01*
X171160173Y-123733647D01*
X170956732Y-124223587D01*
X170956269Y-124754086D01*
X169127000Y-124754086D01*
X169127000Y-123127000D01*
X173000000Y-123127000D01*
X173049410Y-123116994D01*
X173091035Y-123088553D01*
X173118315Y-123046159D01*
X173127000Y-123000000D01*
X173127000Y-120675069D01*
X190834830Y-120675069D01*
X190984471Y-121037229D01*
X191261314Y-121314555D01*
X191623212Y-121464828D01*
X192015069Y-121465170D01*
X192377229Y-121315529D01*
X192654555Y-121038686D01*
X192804828Y-120676788D01*
X192804829Y-120675069D01*
X193004830Y-120675069D01*
X193154471Y-121037229D01*
X193431314Y-121314555D01*
X193793212Y-121464828D01*
X194185069Y-121465170D01*
X194547229Y-121315529D01*
X194824555Y-121038686D01*
X194974828Y-120676788D01*
X194975170Y-120284931D01*
X194825529Y-119922771D01*
X194548686Y-119645445D01*
X194186788Y-119495172D01*
X193794931Y-119494830D01*
X193432771Y-119644471D01*
X193155445Y-119921314D01*
X193005172Y-120283212D01*
X193004830Y-120675069D01*
X192804829Y-120675069D01*
X192805170Y-120284931D01*
X192655529Y-119922771D01*
X192378686Y-119645445D01*
X192016788Y-119495172D01*
X191624931Y-119494830D01*
X191262771Y-119644471D01*
X190985445Y-119921314D01*
X190835172Y-120283212D01*
X190834830Y-120675069D01*
X173127000Y-120675069D01*
X173127000Y-117845069D01*
X190614830Y-117845069D01*
X190764471Y-118207229D01*
X191041314Y-118484555D01*
X191403212Y-118634828D01*
X191795069Y-118635170D01*
X192157229Y-118485529D01*
X192434555Y-118208686D01*
X192584828Y-117846788D01*
X192584855Y-117815069D01*
X199024830Y-117815069D01*
X199174471Y-118177229D01*
X199451314Y-118454555D01*
X199813212Y-118604828D01*
X200205069Y-118605170D01*
X200567229Y-118455529D01*
X200844555Y-118178686D01*
X200994828Y-117816788D01*
X200995170Y-117424931D01*
X200845529Y-117062771D01*
X200568686Y-116785445D01*
X200206788Y-116635172D01*
X199814931Y-116634830D01*
X199452771Y-116784471D01*
X199175445Y-117061314D01*
X199025172Y-117423212D01*
X199024830Y-117815069D01*
X192584855Y-117815069D01*
X192585170Y-117454931D01*
X192435529Y-117092771D01*
X192158686Y-116815445D01*
X191796788Y-116665172D01*
X191404931Y-116664830D01*
X191042771Y-116814471D01*
X190765445Y-117091314D01*
X190615172Y-117453212D01*
X190614830Y-117845069D01*
X173127000Y-117845069D01*
X173127000Y-116655069D01*
X194814830Y-116655069D01*
X194964471Y-117017229D01*
X195241314Y-117294555D01*
X195603212Y-117444828D01*
X195995069Y-117445170D01*
X196357229Y-117295529D01*
X196634555Y-117018686D01*
X196784828Y-116656788D01*
X196785170Y-116264931D01*
X196635529Y-115902771D01*
X196358686Y-115625445D01*
X195996788Y-115475172D01*
X195604931Y-115474830D01*
X195242771Y-115624471D01*
X194965445Y-115901314D01*
X194815172Y-116263212D01*
X194814830Y-116655069D01*
X173127000Y-116655069D01*
X173127000Y-114630111D01*
X173201314Y-114704555D01*
X173563212Y-114854828D01*
X173955069Y-114855170D01*
X174317229Y-114705529D01*
X174548091Y-114475069D01*
X203844830Y-114475069D01*
X203994471Y-114837229D01*
X204271314Y-115114555D01*
X204633212Y-115264828D01*
X205025069Y-115265170D01*
X205387229Y-115115529D01*
X205664555Y-114838686D01*
X205814828Y-114476788D01*
X205815170Y-114084931D01*
X205665529Y-113722771D01*
X205388686Y-113445445D01*
X205026788Y-113295172D01*
X204634931Y-113294830D01*
X204272771Y-113444471D01*
X203995445Y-113721314D01*
X203845172Y-114083212D01*
X203844830Y-114475069D01*
X174548091Y-114475069D01*
X174594555Y-114428686D01*
X174744828Y-114066788D01*
X174745170Y-113674931D01*
X174595529Y-113312771D01*
X174318686Y-113035445D01*
X173956788Y-112885172D01*
X173564931Y-112884830D01*
X173202771Y-113034471D01*
X173127000Y-113110110D01*
X173127000Y-111815069D01*
X191714830Y-111815069D01*
X191864471Y-112177229D01*
X192141314Y-112454555D01*
X192503212Y-112604828D01*
X192895069Y-112605170D01*
X193257229Y-112455529D01*
X193534555Y-112178686D01*
X193684828Y-111816788D01*
X193685170Y-111424931D01*
X193535529Y-111062771D01*
X193258686Y-110785445D01*
X193209616Y-110765069D01*
X197004830Y-110765069D01*
X197154471Y-111127229D01*
X197431314Y-111404555D01*
X197793212Y-111554828D01*
X198185069Y-111555170D01*
X198547229Y-111405529D01*
X198824555Y-111128686D01*
X198974828Y-110766788D01*
X198975170Y-110374931D01*
X198825529Y-110012771D01*
X198548686Y-109735445D01*
X198186788Y-109585172D01*
X197794931Y-109584830D01*
X197432771Y-109734471D01*
X197155445Y-110011314D01*
X197005172Y-110373212D01*
X197004830Y-110765069D01*
X193209616Y-110765069D01*
X192896788Y-110635172D01*
X192504931Y-110634830D01*
X192142771Y-110784471D01*
X191865445Y-111061314D01*
X191715172Y-111423212D01*
X191714830Y-111815069D01*
X173127000Y-111815069D01*
X173127000Y-109615069D01*
X189414830Y-109615069D01*
X189564471Y-109977229D01*
X189841314Y-110254555D01*
X190203212Y-110404828D01*
X190595069Y-110405170D01*
X190957229Y-110255529D01*
X191234555Y-109978686D01*
X191319104Y-109775069D01*
X192774830Y-109775069D01*
X192924471Y-110137229D01*
X193201314Y-110414555D01*
X193563212Y-110564828D01*
X193955069Y-110565170D01*
X194317229Y-110415529D01*
X194594555Y-110138686D01*
X194744828Y-109776788D01*
X194745170Y-109384931D01*
X194595529Y-109022771D01*
X194318686Y-108745445D01*
X193956788Y-108595172D01*
X193564931Y-108594830D01*
X193202771Y-108744471D01*
X192925445Y-109021314D01*
X192775172Y-109383212D01*
X192774830Y-109775069D01*
X191319104Y-109775069D01*
X191384828Y-109616788D01*
X191385170Y-109224931D01*
X191235529Y-108862771D01*
X190958686Y-108585445D01*
X190596788Y-108435172D01*
X190204931Y-108434830D01*
X189842771Y-108584471D01*
X189565445Y-108861314D01*
X189415172Y-109223212D01*
X189414830Y-109615069D01*
X173127000Y-109615069D01*
X173127000Y-108655069D01*
X183354830Y-108655069D01*
X183504471Y-109017229D01*
X183781314Y-109294555D01*
X184143212Y-109444828D01*
X184535069Y-109445170D01*
X184897229Y-109295529D01*
X185174555Y-109018686D01*
X185324828Y-108656788D01*
X185325170Y-108264931D01*
X185175529Y-107902771D01*
X184918276Y-107645069D01*
X190424830Y-107645069D01*
X190574471Y-108007229D01*
X190851314Y-108284555D01*
X191213212Y-108434828D01*
X191605069Y-108435170D01*
X191967229Y-108285529D01*
X192244555Y-108008686D01*
X192394828Y-107646788D01*
X192395170Y-107254931D01*
X192245529Y-106892771D01*
X191968686Y-106615445D01*
X191606788Y-106465172D01*
X191214931Y-106464830D01*
X190852771Y-106614471D01*
X190575445Y-106891314D01*
X190425172Y-107253212D01*
X190424830Y-107645069D01*
X184918276Y-107645069D01*
X184898686Y-107625445D01*
X184536788Y-107475172D01*
X184144931Y-107474830D01*
X183782771Y-107624471D01*
X183505445Y-107901314D01*
X183355172Y-108263212D01*
X183354830Y-108655069D01*
X173127000Y-108655069D01*
X173127000Y-107135069D01*
X178484830Y-107135069D01*
X178634471Y-107497229D01*
X178911314Y-107774555D01*
X179273212Y-107924828D01*
X179665069Y-107925170D01*
X180027229Y-107775529D01*
X180304555Y-107498686D01*
X180454828Y-107136788D01*
X180455170Y-106744931D01*
X180305529Y-106382771D01*
X180028686Y-106105445D01*
X179666788Y-105955172D01*
X179274931Y-105954830D01*
X178912771Y-106104471D01*
X178635445Y-106381314D01*
X178485172Y-106743212D01*
X178484830Y-107135069D01*
X173127000Y-107135069D01*
X173127000Y-95915069D01*
X201914830Y-95915069D01*
X202064471Y-96277229D01*
X202341314Y-96554555D01*
X202703212Y-96704828D01*
X203095069Y-96705170D01*
X203457229Y-96555529D01*
X203734555Y-96278686D01*
X203884828Y-95916788D01*
X203885170Y-95524931D01*
X203735529Y-95162771D01*
X203458686Y-94885445D01*
X203096788Y-94735172D01*
X202704931Y-94734830D01*
X202342771Y-94884471D01*
X202065445Y-95161314D01*
X201915172Y-95523212D01*
X201914830Y-95915069D01*
X173127000Y-95915069D01*
X173127000Y-94565069D01*
X191974830Y-94565069D01*
X192124471Y-94927229D01*
X192401314Y-95204555D01*
X192763212Y-95354828D01*
X193155069Y-95355170D01*
X193517229Y-95205529D01*
X193794555Y-94928686D01*
X193944828Y-94566788D01*
X193945170Y-94174931D01*
X193820741Y-93873789D01*
X193899154Y-93684948D01*
X193974471Y-93867229D01*
X194251314Y-94144555D01*
X194613212Y-94294828D01*
X195005069Y-94295170D01*
X195367229Y-94145529D01*
X195644555Y-93868686D01*
X195794828Y-93506788D01*
X195795170Y-93114931D01*
X195645529Y-92752771D01*
X195368686Y-92475445D01*
X195006788Y-92325172D01*
X194614931Y-92324830D01*
X194252771Y-92474471D01*
X193975445Y-92751314D01*
X193890846Y-92955052D01*
X193815529Y-92772771D01*
X193538686Y-92495445D01*
X193176788Y-92345172D01*
X192784931Y-92344830D01*
X192422771Y-92494471D01*
X192145445Y-92771314D01*
X191995172Y-93133212D01*
X191994830Y-93525069D01*
X192119259Y-93826211D01*
X191975172Y-94173212D01*
X191974830Y-94565069D01*
X173127000Y-94565069D01*
X173127000Y-90215069D01*
X188514830Y-90215069D01*
X188664471Y-90577229D01*
X188941314Y-90854555D01*
X189303212Y-91004828D01*
X189594052Y-91005082D01*
X189495172Y-91243212D01*
X189494830Y-91635069D01*
X189644471Y-91997229D01*
X189921314Y-92274555D01*
X190283212Y-92424828D01*
X190675069Y-92425170D01*
X191037229Y-92275529D01*
X191314555Y-91998686D01*
X191464828Y-91636788D01*
X191465170Y-91244931D01*
X191315529Y-90882771D01*
X191038686Y-90605445D01*
X190676788Y-90455172D01*
X190385948Y-90454918D01*
X190484828Y-90216788D01*
X190485170Y-89824931D01*
X190335529Y-89462771D01*
X190267945Y-89395069D01*
X200394830Y-89395069D01*
X200544471Y-89757229D01*
X200821314Y-90034555D01*
X201183212Y-90184828D01*
X201575069Y-90185170D01*
X201937229Y-90035529D01*
X202214555Y-89758686D01*
X202364828Y-89396788D01*
X202365170Y-89004931D01*
X202215529Y-88642771D01*
X201938686Y-88365445D01*
X201576788Y-88215172D01*
X201184931Y-88214830D01*
X200822771Y-88364471D01*
X200545445Y-88641314D01*
X200395172Y-89003212D01*
X200394830Y-89395069D01*
X190267945Y-89395069D01*
X190058686Y-89185445D01*
X189696788Y-89035172D01*
X189304931Y-89034830D01*
X188942771Y-89184471D01*
X188665445Y-89461314D01*
X188515172Y-89823212D01*
X188514830Y-90215069D01*
X173127000Y-90215069D01*
X173127000Y-89000000D01*
X173116994Y-88950590D01*
X173088553Y-88908965D01*
X173046159Y-88881685D01*
X173000000Y-88873000D01*
X144000000Y-88873000D01*
X143950590Y-88883006D01*
X143908965Y-88911447D01*
X143881685Y-88953841D01*
X143873000Y-89000000D01*
X143873000Y-103519864D01*
X143805172Y-103683212D01*
X143804830Y-104075069D01*
X143873000Y-104240053D01*
X143873000Y-104401700D01*
X143785172Y-104613212D01*
X143784830Y-105005069D01*
X143873000Y-105218457D01*
X143873000Y-110254924D01*
X143764931Y-110254830D01*
X143402771Y-110404471D01*
X143125445Y-110681314D01*
X142975172Y-111043212D01*
X142974830Y-111435069D01*
X143124471Y-111797229D01*
X143401314Y-112074555D01*
X143763212Y-112224828D01*
X143873000Y-112224924D01*
X143873000Y-117822155D01*
X143552771Y-117954471D01*
X143275445Y-118231314D01*
X143125172Y-118593212D01*
X143124830Y-118985069D01*
X143274471Y-119347229D01*
X143551314Y-119624555D01*
X143873000Y-119758131D01*
X143873000Y-121873000D01*
X142819937Y-121873000D01*
X142994555Y-121698686D01*
X143144828Y-121336788D01*
X143145170Y-120944931D01*
X142995529Y-120582771D01*
X142718686Y-120305445D01*
X142356788Y-120155172D01*
X141964931Y-120154830D01*
X141602771Y-120304471D01*
X141325445Y-120581314D01*
X141175172Y-120943212D01*
X141174830Y-121335069D01*
X141324471Y-121697229D01*
X141499936Y-121873000D01*
X135000000Y-121873000D01*
X134950590Y-121883006D01*
X134908965Y-121911447D01*
X134881685Y-121953841D01*
X134873000Y-122000000D01*
X134873000Y-129615368D01*
X134745172Y-129923212D01*
X134744830Y-130315069D01*
X134873000Y-130625265D01*
X134873000Y-133873000D01*
X101127000Y-133873000D01*
X101127000Y-131795069D01*
X110774830Y-131795069D01*
X110924471Y-132157229D01*
X111201314Y-132434555D01*
X111563212Y-132584828D01*
X111955069Y-132585170D01*
X112317229Y-132435529D01*
X112594555Y-132158686D01*
X112744828Y-131796788D01*
X112745170Y-131404931D01*
X112595529Y-131042771D01*
X112318686Y-130765445D01*
X111956788Y-130615172D01*
X111564931Y-130614830D01*
X111202771Y-130764471D01*
X110925445Y-131041314D01*
X110775172Y-131403212D01*
X110774830Y-131795069D01*
X101127000Y-131795069D01*
X101127000Y-130473795D01*
X118244716Y-130473795D01*
X118493106Y-131074943D01*
X118952637Y-131535278D01*
X119553352Y-131784716D01*
X120203795Y-131785284D01*
X120804943Y-131536894D01*
X120867197Y-131474749D01*
X120881673Y-131509698D01*
X121060301Y-131688327D01*
X121293690Y-131785000D01*
X122134250Y-131785000D01*
X122293000Y-131626250D01*
X122293000Y-130277000D01*
X122547000Y-130277000D01*
X122547000Y-131626250D01*
X122705750Y-131785000D01*
X123546310Y-131785000D01*
X123779699Y-131688327D01*
X123958327Y-131509698D01*
X124055000Y-131276309D01*
X124055000Y-130435750D01*
X123896250Y-130277000D01*
X122547000Y-130277000D01*
X122293000Y-130277000D01*
X122273000Y-130277000D01*
X122273000Y-130023000D01*
X122293000Y-130023000D01*
X122293000Y-128673750D01*
X122547000Y-128673750D01*
X122547000Y-130023000D01*
X123896250Y-130023000D01*
X124055000Y-129864250D01*
X124055000Y-129023691D01*
X123958327Y-128790302D01*
X123779699Y-128611673D01*
X123546310Y-128515000D01*
X122705750Y-128515000D01*
X122547000Y-128673750D01*
X122293000Y-128673750D01*
X122134250Y-128515000D01*
X121293690Y-128515000D01*
X121060301Y-128611673D01*
X120881673Y-128790302D01*
X120867370Y-128824834D01*
X120807363Y-128764722D01*
X120206648Y-128515284D01*
X119556205Y-128514716D01*
X118955057Y-128763106D01*
X118494722Y-129222637D01*
X118245284Y-129823352D01*
X118244716Y-130473795D01*
X101127000Y-130473795D01*
X101127000Y-122563795D01*
X118244716Y-122563795D01*
X118493106Y-123164943D01*
X118952637Y-123625278D01*
X119553352Y-123874716D01*
X120203795Y-123875284D01*
X120804943Y-123626894D01*
X120867197Y-123564749D01*
X120881673Y-123599698D01*
X121060301Y-123778327D01*
X121293690Y-123875000D01*
X122134250Y-123875000D01*
X122293000Y-123716250D01*
X122293000Y-122367000D01*
X122547000Y-122367000D01*
X122547000Y-123716250D01*
X122705750Y-123875000D01*
X123546310Y-123875000D01*
X123779699Y-123778327D01*
X123958327Y-123599698D01*
X124055000Y-123366309D01*
X124055000Y-122525750D01*
X123896250Y-122367000D01*
X122547000Y-122367000D01*
X122293000Y-122367000D01*
X122273000Y-122367000D01*
X122273000Y-122113000D01*
X122293000Y-122113000D01*
X122293000Y-120763750D01*
X122547000Y-120763750D01*
X122547000Y-122113000D01*
X123896250Y-122113000D01*
X124055000Y-121954250D01*
X124055000Y-121113691D01*
X123958327Y-120880302D01*
X123779699Y-120701673D01*
X123546310Y-120605000D01*
X122705750Y-120605000D01*
X122547000Y-120763750D01*
X122293000Y-120763750D01*
X122134250Y-120605000D01*
X121293690Y-120605000D01*
X121060301Y-120701673D01*
X120881673Y-120880302D01*
X120867370Y-120914834D01*
X120807363Y-120854722D01*
X120206648Y-120605284D01*
X119556205Y-120604716D01*
X118955057Y-120853106D01*
X118494722Y-121312637D01*
X118245284Y-121913352D01*
X118244716Y-122563795D01*
X101127000Y-122563795D01*
X101127000Y-119075069D01*
X138914830Y-119075069D01*
X139064471Y-119437229D01*
X139341314Y-119714555D01*
X139703212Y-119864828D01*
X140095069Y-119865170D01*
X140457229Y-119715529D01*
X140734555Y-119438686D01*
X140884828Y-119076788D01*
X140885170Y-118684931D01*
X140735529Y-118322771D01*
X140458686Y-118045445D01*
X140096788Y-117895172D01*
X139704931Y-117894830D01*
X139342771Y-118044471D01*
X139065445Y-118321314D01*
X138915172Y-118683212D01*
X138914830Y-119075069D01*
X101127000Y-119075069D01*
X101127000Y-117865069D01*
X112464830Y-117865069D01*
X112614471Y-118227229D01*
X112891314Y-118504555D01*
X113253212Y-118654828D01*
X113645069Y-118655170D01*
X114007229Y-118505529D01*
X114284555Y-118228686D01*
X114298513Y-118195069D01*
X116744830Y-118195069D01*
X116894471Y-118557229D01*
X117171314Y-118834555D01*
X117533212Y-118984828D01*
X117925069Y-118985170D01*
X118287229Y-118835529D01*
X118564555Y-118558686D01*
X118714828Y-118196788D01*
X118715170Y-117804931D01*
X118581566Y-117481583D01*
X118634555Y-117428686D01*
X118784828Y-117066788D01*
X118785170Y-116674931D01*
X118635529Y-116312771D01*
X118358686Y-116035445D01*
X117996788Y-115885172D01*
X117604931Y-115884830D01*
X117242771Y-116034471D01*
X116965445Y-116311314D01*
X116815172Y-116673212D01*
X116814830Y-117065069D01*
X116948434Y-117388417D01*
X116895445Y-117441314D01*
X116745172Y-117803212D01*
X116744830Y-118195069D01*
X114298513Y-118195069D01*
X114434828Y-117866788D01*
X114435170Y-117474931D01*
X114285529Y-117112771D01*
X114008686Y-116835445D01*
X113646788Y-116685172D01*
X113254931Y-116684830D01*
X112892771Y-116834471D01*
X112615445Y-117111314D01*
X112465172Y-117473212D01*
X112464830Y-117865069D01*
X101127000Y-117865069D01*
X101127000Y-115675069D01*
X123174830Y-115675069D01*
X123324471Y-116037229D01*
X123601314Y-116314555D01*
X123963212Y-116464828D01*
X124355069Y-116465170D01*
X124717229Y-116315529D01*
X124994555Y-116038686D01*
X125144828Y-115676788D01*
X125144890Y-115605069D01*
X126324830Y-115605069D01*
X126474471Y-115967229D01*
X126751314Y-116244555D01*
X127113212Y-116394828D01*
X127505069Y-116395170D01*
X127867229Y-116245529D01*
X128144555Y-115968686D01*
X128294828Y-115606788D01*
X128295170Y-115214931D01*
X128291096Y-115205069D01*
X132864830Y-115205069D01*
X133014471Y-115567229D01*
X133291314Y-115844555D01*
X133653212Y-115994828D01*
X134045069Y-115995170D01*
X134407229Y-115845529D01*
X134684555Y-115568686D01*
X134834828Y-115206788D01*
X134835170Y-114814931D01*
X134685529Y-114452771D01*
X134408686Y-114175445D01*
X134046788Y-114025172D01*
X133654931Y-114024830D01*
X133292771Y-114174471D01*
X133015445Y-114451314D01*
X132865172Y-114813212D01*
X132864830Y-115205069D01*
X128291096Y-115205069D01*
X128145529Y-114852771D01*
X127868686Y-114575445D01*
X127506788Y-114425172D01*
X127114931Y-114424830D01*
X126752771Y-114574471D01*
X126475445Y-114851314D01*
X126325172Y-115213212D01*
X126324830Y-115605069D01*
X125144890Y-115605069D01*
X125145170Y-115284931D01*
X125012928Y-114964880D01*
X125345069Y-114965170D01*
X125707229Y-114815529D01*
X125984555Y-114538686D01*
X126134828Y-114176788D01*
X126135170Y-113784931D01*
X125985529Y-113422771D01*
X125708686Y-113145445D01*
X125346788Y-112995172D01*
X124954931Y-112994830D01*
X124592771Y-113144471D01*
X124315445Y-113421314D01*
X124165172Y-113783212D01*
X124164830Y-114175069D01*
X124297072Y-114495120D01*
X123964931Y-114494830D01*
X123602771Y-114644471D01*
X123325445Y-114921314D01*
X123175172Y-115283212D01*
X123174830Y-115675069D01*
X101127000Y-115675069D01*
X101127000Y-114765069D01*
X107264830Y-114765069D01*
X107414471Y-115127229D01*
X107691314Y-115404555D01*
X108053212Y-115554828D01*
X108445069Y-115555170D01*
X108807229Y-115405529D01*
X109084555Y-115128686D01*
X109234828Y-114766788D01*
X109235170Y-114374931D01*
X109085529Y-114012771D01*
X108808686Y-113735445D01*
X108446788Y-113585172D01*
X108054931Y-113584830D01*
X107692771Y-113734471D01*
X107415445Y-114011314D01*
X107265172Y-114373212D01*
X107264830Y-114765069D01*
X101127000Y-114765069D01*
X101127000Y-113000000D01*
X101116994Y-112950590D01*
X101088553Y-112908965D01*
X101046159Y-112881685D01*
X101000000Y-112873000D01*
X98878997Y-112873000D01*
X98606427Y-112465069D01*
X117294830Y-112465069D01*
X117444471Y-112827229D01*
X117721314Y-113104555D01*
X118083212Y-113254828D01*
X118475069Y-113255170D01*
X118837229Y-113105529D01*
X119114555Y-112828686D01*
X119154842Y-112731665D01*
X119154830Y-112745069D01*
X119304471Y-113107229D01*
X119581314Y-113384555D01*
X119943212Y-113534828D01*
X120335069Y-113535170D01*
X120697229Y-113385529D01*
X120974555Y-113108686D01*
X121124828Y-112746788D01*
X121125170Y-112354931D01*
X121003287Y-112059951D01*
X121004555Y-112058686D01*
X121154828Y-111696788D01*
X121155170Y-111304931D01*
X121005529Y-110942771D01*
X120728686Y-110665445D01*
X120366788Y-110515172D01*
X119974931Y-110514830D01*
X119612771Y-110664471D01*
X119335445Y-110941314D01*
X119185172Y-111303212D01*
X119184830Y-111695069D01*
X119306713Y-111990049D01*
X119305445Y-111991314D01*
X119265158Y-112088335D01*
X119265170Y-112074931D01*
X119115529Y-111712771D01*
X118838686Y-111435445D01*
X118476788Y-111285172D01*
X118084931Y-111284830D01*
X117722771Y-111434471D01*
X117445445Y-111711314D01*
X117295172Y-112073212D01*
X117294830Y-112465069D01*
X98606427Y-112465069D01*
X98595670Y-112448971D01*
X98324828Y-112268000D01*
X98595670Y-112087029D01*
X98920526Y-111600848D01*
X99034600Y-111027359D01*
X99034600Y-110968641D01*
X98920526Y-110395152D01*
X98595670Y-109908971D01*
X98324828Y-109728000D01*
X98595670Y-109547029D01*
X98920526Y-109060848D01*
X99033066Y-108495069D01*
X107184830Y-108495069D01*
X107334471Y-108857229D01*
X107611314Y-109134555D01*
X107973212Y-109284828D01*
X108365069Y-109285170D01*
X108727229Y-109135529D01*
X108887968Y-108975069D01*
X119254830Y-108975069D01*
X119404471Y-109337229D01*
X119681314Y-109614555D01*
X120043212Y-109764828D01*
X120435069Y-109765170D01*
X120758368Y-109631586D01*
X120771314Y-109644555D01*
X121133212Y-109794828D01*
X121525069Y-109795170D01*
X121887229Y-109645529D01*
X122164555Y-109368686D01*
X122178513Y-109335069D01*
X123174830Y-109335069D01*
X123324471Y-109697229D01*
X123601314Y-109974555D01*
X123963212Y-110124828D01*
X124355069Y-110125170D01*
X124667363Y-109996133D01*
X124953212Y-110114828D01*
X125345069Y-110115170D01*
X125707229Y-109965529D01*
X125984555Y-109688686D01*
X126089865Y-109435069D01*
X132864830Y-109435069D01*
X133014471Y-109797229D01*
X133291314Y-110074555D01*
X133653212Y-110224828D01*
X134045069Y-110225170D01*
X134407229Y-110075529D01*
X134684555Y-109798686D01*
X134834828Y-109436788D01*
X134835170Y-109044931D01*
X134685529Y-108682771D01*
X134408686Y-108405445D01*
X134046788Y-108255172D01*
X133654931Y-108254830D01*
X133292771Y-108404471D01*
X133015445Y-108681314D01*
X132865172Y-109043212D01*
X132864830Y-109435069D01*
X126089865Y-109435069D01*
X126134828Y-109326788D01*
X126135170Y-108934931D01*
X125985529Y-108572771D01*
X125708686Y-108295445D01*
X125346788Y-108145172D01*
X124954931Y-108144830D01*
X124642637Y-108273867D01*
X124356788Y-108155172D01*
X123964931Y-108154830D01*
X123602771Y-108304471D01*
X123325445Y-108581314D01*
X123175172Y-108943212D01*
X123174830Y-109335069D01*
X122178513Y-109335069D01*
X122314828Y-109006788D01*
X122315170Y-108614931D01*
X122165529Y-108252771D01*
X121888686Y-107975445D01*
X121526788Y-107825172D01*
X121134931Y-107824830D01*
X120811632Y-107958414D01*
X120798686Y-107945445D01*
X120436788Y-107795172D01*
X120044931Y-107794830D01*
X119682771Y-107944471D01*
X119405445Y-108221314D01*
X119255172Y-108583212D01*
X119254830Y-108975069D01*
X108887968Y-108975069D01*
X109004555Y-108858686D01*
X109154828Y-108496788D01*
X109155170Y-108104931D01*
X109005529Y-107742771D01*
X108728686Y-107465445D01*
X108366788Y-107315172D01*
X107974931Y-107314830D01*
X107612771Y-107464471D01*
X107335445Y-107741314D01*
X107185172Y-108103212D01*
X107184830Y-108495069D01*
X99033066Y-108495069D01*
X99034600Y-108487359D01*
X99034600Y-108428641D01*
X98920526Y-107855152D01*
X98595670Y-107368971D01*
X98324828Y-107188000D01*
X98595670Y-107007029D01*
X98920526Y-106520848D01*
X99034600Y-105947359D01*
X99034600Y-105945069D01*
X113494830Y-105945069D01*
X113644471Y-106307229D01*
X113921314Y-106584555D01*
X114283212Y-106734828D01*
X114675069Y-106735170D01*
X115037229Y-106585529D01*
X115314555Y-106308686D01*
X115428170Y-106035069D01*
X116394830Y-106035069D01*
X116544471Y-106397229D01*
X116821314Y-106674555D01*
X117183212Y-106824828D01*
X117575069Y-106825170D01*
X117937229Y-106675529D01*
X118214555Y-106398686D01*
X118245158Y-106324987D01*
X118455069Y-106325170D01*
X118817229Y-106175529D01*
X119094555Y-105898686D01*
X119244828Y-105536788D01*
X119245170Y-105144931D01*
X119095529Y-104782771D01*
X118978032Y-104665069D01*
X119264830Y-104665069D01*
X119414471Y-105027229D01*
X119691314Y-105304555D01*
X120053212Y-105454828D01*
X120344926Y-105455083D01*
X120344830Y-105565069D01*
X120494471Y-105927229D01*
X120771314Y-106204555D01*
X121133212Y-106354828D01*
X121525069Y-106355170D01*
X121887229Y-106205529D01*
X122164555Y-105928686D01*
X122244951Y-105735069D01*
X140654830Y-105735069D01*
X140804471Y-106097229D01*
X141081314Y-106374555D01*
X141443212Y-106524828D01*
X141835069Y-106525170D01*
X142197229Y-106375529D01*
X142474555Y-106098686D01*
X142624828Y-105736788D01*
X142625170Y-105344931D01*
X142475529Y-104982771D01*
X142198686Y-104705445D01*
X141836788Y-104555172D01*
X141444931Y-104554830D01*
X141082771Y-104704471D01*
X140805445Y-104981314D01*
X140655172Y-105343212D01*
X140654830Y-105735069D01*
X122244951Y-105735069D01*
X122314828Y-105566788D01*
X122315170Y-105174931D01*
X122165529Y-104812771D01*
X121888686Y-104535445D01*
X121526788Y-104385172D01*
X121235074Y-104384917D01*
X121235170Y-104274931D01*
X121085529Y-103912771D01*
X120808686Y-103635445D01*
X120446788Y-103485172D01*
X120054931Y-103484830D01*
X119692771Y-103634471D01*
X119415445Y-103911314D01*
X119265172Y-104273212D01*
X119264830Y-104665069D01*
X118978032Y-104665069D01*
X118818686Y-104505445D01*
X118456788Y-104355172D01*
X118064931Y-104354830D01*
X117702771Y-104504471D01*
X117425445Y-104781314D01*
X117394842Y-104855013D01*
X117184931Y-104854830D01*
X116822771Y-105004471D01*
X116545445Y-105281314D01*
X116395172Y-105643212D01*
X116394830Y-106035069D01*
X115428170Y-106035069D01*
X115464828Y-105946788D01*
X115465170Y-105554931D01*
X115315529Y-105192771D01*
X115038686Y-104915445D01*
X114676788Y-104765172D01*
X114284931Y-104764830D01*
X113922771Y-104914471D01*
X113645445Y-105191314D01*
X113495172Y-105553212D01*
X113494830Y-105945069D01*
X99034600Y-105945069D01*
X99034600Y-105888641D01*
X98920526Y-105315152D01*
X98595670Y-104828971D01*
X98324828Y-104648000D01*
X98595670Y-104467029D01*
X98717251Y-104285069D01*
X103254830Y-104285069D01*
X103404471Y-104647229D01*
X103681314Y-104924555D01*
X104043212Y-105074828D01*
X104435069Y-105075170D01*
X104797229Y-104925529D01*
X105074555Y-104648686D01*
X105224828Y-104286788D01*
X105225170Y-103894931D01*
X105075529Y-103532771D01*
X104798686Y-103255445D01*
X104436788Y-103105172D01*
X104044931Y-103104830D01*
X103682771Y-103254471D01*
X103405445Y-103531314D01*
X103255172Y-103893212D01*
X103254830Y-104285069D01*
X98717251Y-104285069D01*
X98920526Y-103980848D01*
X99034600Y-103407359D01*
X99034600Y-103348641D01*
X98920526Y-102775152D01*
X98920471Y-102775069D01*
X107184830Y-102775069D01*
X107334471Y-103137229D01*
X107611314Y-103414555D01*
X107973212Y-103564828D01*
X108365069Y-103565170D01*
X108727229Y-103415529D01*
X109004555Y-103138686D01*
X109047580Y-103035069D01*
X113514830Y-103035069D01*
X113664471Y-103397229D01*
X113941314Y-103674555D01*
X114303212Y-103824828D01*
X114695069Y-103825170D01*
X115057229Y-103675529D01*
X115334555Y-103398686D01*
X115484828Y-103036788D01*
X115485170Y-102644931D01*
X115427381Y-102505069D01*
X141254830Y-102505069D01*
X141404471Y-102867229D01*
X141681314Y-103144555D01*
X142043212Y-103294828D01*
X142435069Y-103295170D01*
X142797229Y-103145529D01*
X143074555Y-102868686D01*
X143224828Y-102506788D01*
X143225170Y-102114931D01*
X143075529Y-101752771D01*
X142798686Y-101475445D01*
X142436788Y-101325172D01*
X142044931Y-101324830D01*
X141682771Y-101474471D01*
X141405445Y-101751314D01*
X141255172Y-102113212D01*
X141254830Y-102505069D01*
X115427381Y-102505069D01*
X115335529Y-102282771D01*
X115058686Y-102005445D01*
X114696788Y-101855172D01*
X114304931Y-101854830D01*
X113942771Y-102004471D01*
X113665445Y-102281314D01*
X113515172Y-102643212D01*
X113514830Y-103035069D01*
X109047580Y-103035069D01*
X109154828Y-102776788D01*
X109155170Y-102384931D01*
X109005529Y-102022771D01*
X108728686Y-101745445D01*
X108366788Y-101595172D01*
X107974931Y-101594830D01*
X107612771Y-101744471D01*
X107335445Y-102021314D01*
X107185172Y-102383212D01*
X107184830Y-102775069D01*
X98920471Y-102775069D01*
X98595670Y-102288971D01*
X98324828Y-102108000D01*
X98595670Y-101927029D01*
X98920526Y-101440848D01*
X98937588Y-101355069D01*
X115064830Y-101355069D01*
X115214471Y-101717229D01*
X115491314Y-101994555D01*
X115853212Y-102144828D01*
X116245069Y-102145170D01*
X116607229Y-101995529D01*
X116884555Y-101718686D01*
X117034828Y-101356788D01*
X117035170Y-100964931D01*
X116885529Y-100602771D01*
X116608686Y-100325445D01*
X116246788Y-100175172D01*
X115854931Y-100174830D01*
X115492771Y-100324471D01*
X115215445Y-100601314D01*
X115065172Y-100963212D01*
X115064830Y-101355069D01*
X98937588Y-101355069D01*
X99034600Y-100867359D01*
X99034600Y-100808641D01*
X98920526Y-100235152D01*
X98595670Y-99748971D01*
X98324828Y-99568000D01*
X98595670Y-99387029D01*
X98920526Y-98900848D01*
X98949523Y-98755069D01*
X130534830Y-98755069D01*
X130684471Y-99117229D01*
X130961314Y-99394555D01*
X131323212Y-99544828D01*
X131715069Y-99545170D01*
X132077229Y-99395529D01*
X132354555Y-99118686D01*
X132504828Y-98756788D01*
X132505170Y-98364931D01*
X132355529Y-98002771D01*
X132078686Y-97725445D01*
X131957367Y-97675069D01*
X132884830Y-97675069D01*
X133034471Y-98037229D01*
X133311314Y-98314555D01*
X133673212Y-98464828D01*
X134065069Y-98465170D01*
X134427229Y-98315529D01*
X134704555Y-98038686D01*
X134854828Y-97676788D01*
X134855170Y-97284931D01*
X134705529Y-96922771D01*
X134428686Y-96645445D01*
X134066788Y-96495172D01*
X133674931Y-96494830D01*
X133312771Y-96644471D01*
X133035445Y-96921314D01*
X132885172Y-97283212D01*
X132884830Y-97675069D01*
X131957367Y-97675069D01*
X131716788Y-97575172D01*
X131324931Y-97574830D01*
X130962771Y-97724471D01*
X130685445Y-98001314D01*
X130535172Y-98363212D01*
X130534830Y-98755069D01*
X98949523Y-98755069D01*
X99034600Y-98327359D01*
X99034600Y-98268641D01*
X98920526Y-97695152D01*
X98873699Y-97625069D01*
X102134830Y-97625069D01*
X102284471Y-97987229D01*
X102561314Y-98264555D01*
X102923212Y-98414828D01*
X103315069Y-98415170D01*
X103677229Y-98265529D01*
X103954555Y-97988686D01*
X104084780Y-97675069D01*
X117364830Y-97675069D01*
X117514471Y-98037229D01*
X117791314Y-98314555D01*
X118153212Y-98464828D01*
X118545069Y-98465170D01*
X118907229Y-98315529D01*
X119184555Y-98038686D01*
X119334828Y-97676788D01*
X119334993Y-97488083D01*
X119421314Y-97574555D01*
X119783212Y-97724828D01*
X120175069Y-97725170D01*
X120537229Y-97575529D01*
X120814555Y-97298686D01*
X120964828Y-96936788D01*
X120965170Y-96544931D01*
X120815529Y-96182771D01*
X120538686Y-95905445D01*
X120176788Y-95755172D01*
X119784931Y-95754830D01*
X119422771Y-95904471D01*
X119145445Y-96181314D01*
X118995172Y-96543212D01*
X118995007Y-96731917D01*
X118908686Y-96645445D01*
X118546788Y-96495172D01*
X118154931Y-96494830D01*
X117792771Y-96644471D01*
X117515445Y-96921314D01*
X117365172Y-97283212D01*
X117364830Y-97675069D01*
X104084780Y-97675069D01*
X104104828Y-97626788D01*
X104105170Y-97234931D01*
X103955529Y-96872771D01*
X103708259Y-96625069D01*
X107044830Y-96625069D01*
X107194471Y-96987229D01*
X107471314Y-97264555D01*
X107833212Y-97414828D01*
X108225069Y-97415170D01*
X108587229Y-97265529D01*
X108864555Y-96988686D01*
X109014828Y-96626788D01*
X109015170Y-96234931D01*
X108865529Y-95872771D01*
X108588686Y-95595445D01*
X108226788Y-95445172D01*
X107834931Y-95444830D01*
X107472771Y-95594471D01*
X107195445Y-95871314D01*
X107045172Y-96233212D01*
X107044830Y-96625069D01*
X103708259Y-96625069D01*
X103678686Y-96595445D01*
X103316788Y-96445172D01*
X102924931Y-96444830D01*
X102562771Y-96594471D01*
X102285445Y-96871314D01*
X102135172Y-97233212D01*
X102134830Y-97625069D01*
X98873699Y-97625069D01*
X98595670Y-97208971D01*
X98324828Y-97028000D01*
X98595670Y-96847029D01*
X98920526Y-96360848D01*
X99034600Y-95787359D01*
X99034600Y-95728641D01*
X98920526Y-95155152D01*
X98720017Y-94855069D01*
X116464830Y-94855069D01*
X116614471Y-95217229D01*
X116891314Y-95494555D01*
X117253212Y-95644828D01*
X117645069Y-95645170D01*
X118007229Y-95495529D01*
X118284555Y-95218686D01*
X118360853Y-95034939D01*
X118625069Y-95035170D01*
X118987229Y-94885529D01*
X119264555Y-94608686D01*
X119414828Y-94246788D01*
X119415170Y-93854931D01*
X119288584Y-93548569D01*
X119352766Y-93394000D01*
X132216560Y-93394000D01*
X132216560Y-95426000D01*
X132260838Y-95661317D01*
X132399910Y-95877441D01*
X132612110Y-96022431D01*
X132864000Y-96073440D01*
X134896000Y-96073440D01*
X135131317Y-96029162D01*
X135347441Y-95890090D01*
X135454233Y-95733794D01*
X135755845Y-95935325D01*
X136387655Y-96061000D01*
X136452345Y-96061000D01*
X137084155Y-95935325D01*
X137619778Y-95577433D01*
X137977670Y-95041810D01*
X138103345Y-94410000D01*
X137977670Y-93778190D01*
X137619778Y-93242567D01*
X137084155Y-92884675D01*
X136452345Y-92759000D01*
X136387655Y-92759000D01*
X135755845Y-92884675D01*
X135453038Y-93087004D01*
X135360090Y-92942559D01*
X135147890Y-92797569D01*
X134896000Y-92746560D01*
X132864000Y-92746560D01*
X132628683Y-92790838D01*
X132412559Y-92929910D01*
X132267569Y-93142110D01*
X132216560Y-93394000D01*
X119352766Y-93394000D01*
X119384828Y-93316788D01*
X119385170Y-92924931D01*
X119235529Y-92562771D01*
X118958686Y-92285445D01*
X118596788Y-92135172D01*
X118204931Y-92134830D01*
X117842771Y-92284471D01*
X117565445Y-92561314D01*
X117415172Y-92923212D01*
X117414830Y-93315069D01*
X117541416Y-93621431D01*
X117519147Y-93675061D01*
X117254931Y-93674830D01*
X116892771Y-93824471D01*
X116615445Y-94101314D01*
X116465172Y-94463212D01*
X116464830Y-94855069D01*
X98720017Y-94855069D01*
X98609426Y-94689558D01*
X98634917Y-94684762D01*
X98851041Y-94545690D01*
X98996031Y-94333490D01*
X99047040Y-94081600D01*
X99047040Y-92354400D01*
X99002762Y-92119083D01*
X98863690Y-91902959D01*
X98651490Y-91757969D01*
X98439644Y-91715069D01*
X109194830Y-91715069D01*
X109344471Y-92077229D01*
X109621314Y-92354555D01*
X109983212Y-92504828D01*
X110375069Y-92505170D01*
X110737229Y-92355529D01*
X111014555Y-92078686D01*
X111164828Y-91716788D01*
X111165170Y-91324931D01*
X111015529Y-90962771D01*
X110738686Y-90685445D01*
X110376788Y-90535172D01*
X109984931Y-90534830D01*
X109622771Y-90684471D01*
X109345445Y-90961314D01*
X109195172Y-91323212D01*
X109194830Y-91715069D01*
X98439644Y-91715069D01*
X98399600Y-91706960D01*
X96672400Y-91706960D01*
X96437083Y-91751238D01*
X96220959Y-91890310D01*
X96075969Y-92102510D01*
X96067136Y-92146131D01*
X96055670Y-92128971D01*
X95569489Y-91804115D01*
X94996000Y-91690041D01*
X94422511Y-91804115D01*
X93936330Y-92128971D01*
X93611474Y-92615152D01*
X93497400Y-93188641D01*
X93497400Y-93247359D01*
X93611474Y-93820848D01*
X93936330Y-94307029D01*
X94207172Y-94488000D01*
X93936330Y-94668971D01*
X93611474Y-95155152D01*
X93497400Y-95728641D01*
X93497400Y-95787359D01*
X93611474Y-96360848D01*
X93936330Y-96847029D01*
X94207172Y-97028000D01*
X93936330Y-97208971D01*
X93611474Y-97695152D01*
X93497400Y-98268641D01*
X93497400Y-98327359D01*
X93611474Y-98900848D01*
X93936330Y-99387029D01*
X94207172Y-99568000D01*
X93936330Y-99748971D01*
X93611474Y-100235152D01*
X93497400Y-100808641D01*
X93497400Y-100867359D01*
X93611474Y-101440848D01*
X93936330Y-101927029D01*
X94207172Y-102108000D01*
X93936330Y-102288971D01*
X93611474Y-102775152D01*
X93497400Y-103348641D01*
X93497400Y-103407359D01*
X93611474Y-103980848D01*
X93936330Y-104467029D01*
X94207172Y-104648000D01*
X93936330Y-104828971D01*
X93611474Y-105315152D01*
X93497400Y-105888641D01*
X93497400Y-105947359D01*
X93611474Y-106520848D01*
X93936330Y-107007029D01*
X94207172Y-107188000D01*
X93936330Y-107368971D01*
X93611474Y-107855152D01*
X93497400Y-108428641D01*
X93497400Y-108487359D01*
X93611474Y-109060848D01*
X93936330Y-109547029D01*
X94207172Y-109728000D01*
X93936330Y-109908971D01*
X93611474Y-110395152D01*
X93497400Y-110968641D01*
X93497400Y-111027359D01*
X93611474Y-111600848D01*
X93936330Y-112087029D01*
X94207172Y-112268000D01*
X93936330Y-112448971D01*
X93653003Y-112873000D01*
X91000000Y-112873000D01*
X90950590Y-112883006D01*
X90908965Y-112911447D01*
X90881685Y-112953841D01*
X90873000Y-113000000D01*
X90873000Y-115873000D01*
X80127000Y-115873000D01*
X80127000Y-114865069D01*
X84034830Y-114865069D01*
X84184471Y-115227229D01*
X84461314Y-115504555D01*
X84823212Y-115654828D01*
X85215069Y-115655170D01*
X85577229Y-115505529D01*
X85854555Y-115228686D01*
X86004828Y-114866788D01*
X86005170Y-114474931D01*
X85855529Y-114112771D01*
X85578686Y-113835445D01*
X85216788Y-113685172D01*
X84824931Y-113684830D01*
X84462771Y-113834471D01*
X84185445Y-114111314D01*
X84035172Y-114473212D01*
X84034830Y-114865069D01*
X80127000Y-114865069D01*
X80127000Y-110225069D01*
X91574830Y-110225069D01*
X91724471Y-110587229D01*
X92001314Y-110864555D01*
X92363212Y-111014828D01*
X92755069Y-111015170D01*
X93117229Y-110865529D01*
X93394555Y-110588686D01*
X93544828Y-110226788D01*
X93545170Y-109834931D01*
X93395529Y-109472771D01*
X93118686Y-109195445D01*
X92756788Y-109045172D01*
X92364931Y-109044830D01*
X92002771Y-109194471D01*
X91725445Y-109471314D01*
X91575172Y-109833212D01*
X91574830Y-110225069D01*
X80127000Y-110225069D01*
X80127000Y-108695069D01*
X84024830Y-108695069D01*
X84174471Y-109057229D01*
X84451314Y-109334555D01*
X84813212Y-109484828D01*
X85205069Y-109485170D01*
X85567229Y-109335529D01*
X85844555Y-109058686D01*
X85994828Y-108696788D01*
X85995170Y-108304931D01*
X85845529Y-107942771D01*
X85568686Y-107665445D01*
X85206788Y-107515172D01*
X84814931Y-107514830D01*
X84452771Y-107664471D01*
X84175445Y-107941314D01*
X84025172Y-108303212D01*
X84024830Y-108695069D01*
X80127000Y-108695069D01*
X80127000Y-104035069D01*
X84014830Y-104035069D01*
X84164471Y-104397229D01*
X84441314Y-104674555D01*
X84803212Y-104824828D01*
X85195069Y-104825170D01*
X85557229Y-104675529D01*
X85834555Y-104398686D01*
X85984828Y-104036788D01*
X85985170Y-103644931D01*
X85835529Y-103282771D01*
X85732905Y-103179968D01*
X85944555Y-102968686D01*
X86094828Y-102606788D01*
X86095170Y-102214931D01*
X85945529Y-101852771D01*
X85668686Y-101575445D01*
X85306788Y-101425172D01*
X84914931Y-101424830D01*
X84552771Y-101574471D01*
X84275445Y-101851314D01*
X84125172Y-102213212D01*
X84124830Y-102605069D01*
X84274471Y-102967229D01*
X84377095Y-103070032D01*
X84165445Y-103281314D01*
X84015172Y-103643212D01*
X84014830Y-104035069D01*
X80127000Y-104035069D01*
X80127000Y-97495069D01*
X91494830Y-97495069D01*
X91644471Y-97857229D01*
X91921314Y-98134555D01*
X92283212Y-98284828D01*
X92675069Y-98285170D01*
X93037229Y-98135529D01*
X93314555Y-97858686D01*
X93464828Y-97496788D01*
X93465170Y-97104931D01*
X93315529Y-96742771D01*
X93038686Y-96465445D01*
X92676788Y-96315172D01*
X92284931Y-96314830D01*
X91922771Y-96464471D01*
X91645445Y-96741314D01*
X91495172Y-97103212D01*
X91494830Y-97495069D01*
X80127000Y-97495069D01*
X80127000Y-96545069D01*
X84124830Y-96545069D01*
X84274471Y-96907229D01*
X84551314Y-97184555D01*
X84913212Y-97334828D01*
X85305069Y-97335170D01*
X85667229Y-97185529D01*
X85944555Y-96908686D01*
X86094828Y-96546788D01*
X86095170Y-96154931D01*
X85945529Y-95792771D01*
X85668686Y-95515445D01*
X85306788Y-95365172D01*
X84914931Y-95364830D01*
X84552771Y-95514471D01*
X84275445Y-95791314D01*
X84125172Y-96153212D01*
X84124830Y-96545069D01*
X80127000Y-96545069D01*
X80127000Y-90315069D01*
X83954830Y-90315069D01*
X84104471Y-90677229D01*
X84381314Y-90954555D01*
X84743212Y-91104828D01*
X85135069Y-91105170D01*
X85497229Y-90955529D01*
X85774555Y-90678686D01*
X85924828Y-90316788D01*
X85925117Y-89985069D01*
X115554830Y-89985069D01*
X115704471Y-90347229D01*
X115981314Y-90624555D01*
X116343212Y-90774828D01*
X116735069Y-90775170D01*
X117097229Y-90625529D01*
X117374555Y-90348686D01*
X117524828Y-89986788D01*
X117524890Y-89915069D01*
X126564830Y-89915069D01*
X126714471Y-90277229D01*
X126991314Y-90554555D01*
X127353212Y-90704828D01*
X127745069Y-90705170D01*
X128107229Y-90555529D01*
X128384555Y-90278686D01*
X128534828Y-89916788D01*
X128535170Y-89524931D01*
X128385529Y-89162771D01*
X128108686Y-88885445D01*
X127746788Y-88735172D01*
X127354931Y-88734830D01*
X126992771Y-88884471D01*
X126715445Y-89161314D01*
X126565172Y-89523212D01*
X126564830Y-89915069D01*
X117524890Y-89915069D01*
X117525170Y-89594931D01*
X117375529Y-89232771D01*
X117098686Y-88955445D01*
X116736788Y-88805172D01*
X116344931Y-88804830D01*
X115982771Y-88954471D01*
X115705445Y-89231314D01*
X115555172Y-89593212D01*
X115554830Y-89985069D01*
X85925117Y-89985069D01*
X85925170Y-89924931D01*
X85775529Y-89562771D01*
X85498686Y-89285445D01*
X85136788Y-89135172D01*
X84744931Y-89134830D01*
X84382771Y-89284471D01*
X84105445Y-89561314D01*
X83955172Y-89923212D01*
X83954830Y-90315069D01*
X80127000Y-90315069D01*
X80127000Y-89127000D01*
X114000000Y-89127000D01*
X114049410Y-89116994D01*
X114091035Y-89088553D01*
X114118315Y-89046159D01*
X114127000Y-89000000D01*
X114127000Y-87305069D01*
X134794830Y-87305069D01*
X134944471Y-87667229D01*
X135221314Y-87944555D01*
X135583212Y-88094828D01*
X135975069Y-88095170D01*
X136314140Y-87955069D01*
X162104830Y-87955069D01*
X162254471Y-88317229D01*
X162531314Y-88594555D01*
X162893212Y-88744828D01*
X163285069Y-88745170D01*
X163647229Y-88595529D01*
X163924555Y-88318686D01*
X164074828Y-87956788D01*
X164075170Y-87564931D01*
X163925529Y-87202771D01*
X163837980Y-87115069D01*
X187694830Y-87115069D01*
X187844471Y-87477229D01*
X188121314Y-87754555D01*
X188483212Y-87904828D01*
X188875069Y-87905170D01*
X189237229Y-87755529D01*
X189514555Y-87478686D01*
X189664828Y-87116788D01*
X189665170Y-86724931D01*
X189515529Y-86362771D01*
X189238686Y-86085445D01*
X188876788Y-85935172D01*
X188484931Y-85934830D01*
X188122771Y-86084471D01*
X187845445Y-86361314D01*
X187695172Y-86723212D01*
X187694830Y-87115069D01*
X163837980Y-87115069D01*
X163648686Y-86925445D01*
X163286788Y-86775172D01*
X162894931Y-86774830D01*
X162532771Y-86924471D01*
X162255445Y-87201314D01*
X162105172Y-87563212D01*
X162104830Y-87955069D01*
X136314140Y-87955069D01*
X136337229Y-87945529D01*
X136614555Y-87668686D01*
X136764828Y-87306788D01*
X136765170Y-86914931D01*
X136615529Y-86552771D01*
X136338686Y-86275445D01*
X135976788Y-86125172D01*
X135584931Y-86124830D01*
X135222771Y-86274471D01*
X134945445Y-86551314D01*
X134795172Y-86913212D01*
X134794830Y-87305069D01*
X114127000Y-87305069D01*
X114127000Y-83815255D01*
X115181400Y-83815255D01*
X115181400Y-84184745D01*
X115295474Y-84758234D01*
X115620330Y-85244415D01*
X116106511Y-85569271D01*
X116680000Y-85683345D01*
X117253489Y-85569271D01*
X117739670Y-85244415D01*
X117950000Y-84929634D01*
X118160330Y-85244415D01*
X118646511Y-85569271D01*
X119220000Y-85683345D01*
X119793489Y-85569271D01*
X120279670Y-85244415D01*
X120486461Y-84934931D01*
X120857964Y-85350732D01*
X121385209Y-85604709D01*
X121400974Y-85607358D01*
X121633000Y-85486217D01*
X121633000Y-84127000D01*
X121613000Y-84127000D01*
X121613000Y-83873000D01*
X121633000Y-83873000D01*
X121633000Y-82513783D01*
X121887000Y-82513783D01*
X121887000Y-83873000D01*
X121907000Y-83873000D01*
X121907000Y-84127000D01*
X121887000Y-84127000D01*
X121887000Y-85486217D01*
X122119026Y-85607358D01*
X122134791Y-85604709D01*
X122662036Y-85350732D01*
X123033539Y-84934931D01*
X123240330Y-85244415D01*
X123726511Y-85569271D01*
X124300000Y-85683345D01*
X124873489Y-85569271D01*
X125359670Y-85244415D01*
X125570000Y-84929634D01*
X125780330Y-85244415D01*
X126266511Y-85569271D01*
X126840000Y-85683345D01*
X127413489Y-85569271D01*
X127899670Y-85244415D01*
X128110000Y-84929634D01*
X128320330Y-85244415D01*
X128806511Y-85569271D01*
X129380000Y-85683345D01*
X129953489Y-85569271D01*
X130439670Y-85244415D01*
X130650000Y-84929634D01*
X130860330Y-85244415D01*
X131346511Y-85569271D01*
X131920000Y-85683345D01*
X132493489Y-85569271D01*
X132979670Y-85244415D01*
X133190000Y-84929634D01*
X133400330Y-85244415D01*
X133886511Y-85569271D01*
X134460000Y-85683345D01*
X135033489Y-85569271D01*
X135519670Y-85244415D01*
X135529243Y-85230087D01*
X135533238Y-85251317D01*
X135672310Y-85467441D01*
X135884510Y-85612431D01*
X136136400Y-85663440D01*
X137863600Y-85663440D01*
X138098917Y-85619162D01*
X138315041Y-85480090D01*
X138460031Y-85267890D01*
X138511040Y-85016000D01*
X138511040Y-83815255D01*
X147101400Y-83815255D01*
X147101400Y-84184745D01*
X147215474Y-84758234D01*
X147540330Y-85244415D01*
X148026511Y-85569271D01*
X148600000Y-85683345D01*
X149173489Y-85569271D01*
X149659670Y-85244415D01*
X149870000Y-84929634D01*
X150080330Y-85244415D01*
X150566511Y-85569271D01*
X151140000Y-85683345D01*
X151713489Y-85569271D01*
X152199670Y-85244415D01*
X152410000Y-84929634D01*
X152620330Y-85244415D01*
X153106511Y-85569271D01*
X153680000Y-85683345D01*
X154253489Y-85569271D01*
X154739670Y-85244415D01*
X154950000Y-84929634D01*
X155160330Y-85244415D01*
X155646511Y-85569271D01*
X156220000Y-85683345D01*
X156793489Y-85569271D01*
X157279670Y-85244415D01*
X157490000Y-84929634D01*
X157700330Y-85244415D01*
X158186511Y-85569271D01*
X158760000Y-85683345D01*
X159333489Y-85569271D01*
X159819670Y-85244415D01*
X160030000Y-84929634D01*
X160240330Y-85244415D01*
X160726511Y-85569271D01*
X161300000Y-85683345D01*
X161873489Y-85569271D01*
X162359670Y-85244415D01*
X162570000Y-84929634D01*
X162780330Y-85244415D01*
X163266511Y-85569271D01*
X163840000Y-85683345D01*
X164413489Y-85569271D01*
X164899670Y-85244415D01*
X165110000Y-84929634D01*
X165320330Y-85244415D01*
X165806511Y-85569271D01*
X166380000Y-85683345D01*
X166953489Y-85569271D01*
X167439670Y-85244415D01*
X167650000Y-84929634D01*
X167860330Y-85244415D01*
X168346511Y-85569271D01*
X168920000Y-85683345D01*
X169493489Y-85569271D01*
X169979670Y-85244415D01*
X170190000Y-84929634D01*
X170400330Y-85244415D01*
X170886511Y-85569271D01*
X171460000Y-85683345D01*
X172033489Y-85569271D01*
X172519670Y-85244415D01*
X172534500Y-85222220D01*
X172598073Y-85375699D01*
X172776702Y-85554327D01*
X173010091Y-85651000D01*
X173714250Y-85651000D01*
X173873000Y-85492250D01*
X173873000Y-84127000D01*
X174127000Y-84127000D01*
X174127000Y-85492250D01*
X174285750Y-85651000D01*
X174989909Y-85651000D01*
X175223298Y-85554327D01*
X175401927Y-85375699D01*
X175498600Y-85142310D01*
X175498600Y-84285750D01*
X175339850Y-84127000D01*
X174127000Y-84127000D01*
X173873000Y-84127000D01*
X173853000Y-84127000D01*
X173853000Y-83873000D01*
X173873000Y-83873000D01*
X173873000Y-82507750D01*
X174127000Y-82507750D01*
X174127000Y-83873000D01*
X175339850Y-83873000D01*
X175498600Y-83714250D01*
X175498600Y-82904000D01*
X184628960Y-82904000D01*
X184628960Y-84936000D01*
X184673238Y-85171317D01*
X184812310Y-85387441D01*
X185024510Y-85532431D01*
X185276400Y-85583440D01*
X187003600Y-85583440D01*
X187238917Y-85539162D01*
X187455041Y-85400090D01*
X187600031Y-85187890D01*
X187608400Y-85146561D01*
X187620330Y-85164415D01*
X188106511Y-85489271D01*
X188680000Y-85603345D01*
X189253489Y-85489271D01*
X189739670Y-85164415D01*
X189946461Y-84854931D01*
X190317964Y-85270732D01*
X190845209Y-85524709D01*
X190860974Y-85527358D01*
X191093000Y-85406217D01*
X191093000Y-84047000D01*
X191073000Y-84047000D01*
X191073000Y-83793000D01*
X191093000Y-83793000D01*
X191093000Y-82433783D01*
X191347000Y-82433783D01*
X191347000Y-83793000D01*
X191367000Y-83793000D01*
X191367000Y-84047000D01*
X191347000Y-84047000D01*
X191347000Y-85406217D01*
X191579026Y-85527358D01*
X191594791Y-85524709D01*
X192122036Y-85270732D01*
X192493539Y-84854931D01*
X192700330Y-85164415D01*
X193186511Y-85489271D01*
X193760000Y-85603345D01*
X194333489Y-85489271D01*
X194819670Y-85164415D01*
X195030000Y-84849634D01*
X195240330Y-85164415D01*
X195726511Y-85489271D01*
X196300000Y-85603345D01*
X196873489Y-85489271D01*
X197359670Y-85164415D01*
X197570000Y-84849634D01*
X197780330Y-85164415D01*
X198159355Y-85417672D01*
X198005445Y-85571314D01*
X197855172Y-85933212D01*
X197854830Y-86325069D01*
X198004471Y-86687229D01*
X198281314Y-86964555D01*
X198643212Y-87114828D01*
X199035069Y-87115170D01*
X199397229Y-86965529D01*
X199674555Y-86688686D01*
X199824828Y-86326788D01*
X199825170Y-85934931D01*
X199675529Y-85572771D01*
X199520678Y-85417650D01*
X199899670Y-85164415D01*
X200110000Y-84849634D01*
X200320330Y-85164415D01*
X200806511Y-85489271D01*
X201380000Y-85603345D01*
X201953489Y-85489271D01*
X202439670Y-85164415D01*
X202764526Y-84678234D01*
X202878600Y-84104745D01*
X202878600Y-83735255D01*
X202764526Y-83161766D01*
X202439670Y-82675585D01*
X201953489Y-82350729D01*
X201380000Y-82236655D01*
X200806511Y-82350729D01*
X200320330Y-82675585D01*
X200110000Y-82990366D01*
X199899670Y-82675585D01*
X199413489Y-82350729D01*
X198840000Y-82236655D01*
X198266511Y-82350729D01*
X197780330Y-82675585D01*
X197570000Y-82990366D01*
X197359670Y-82675585D01*
X196873489Y-82350729D01*
X196300000Y-82236655D01*
X195726511Y-82350729D01*
X195240330Y-82675585D01*
X195030000Y-82990366D01*
X194819670Y-82675585D01*
X194333489Y-82350729D01*
X193760000Y-82236655D01*
X193186511Y-82350729D01*
X192700330Y-82675585D01*
X192493539Y-82985069D01*
X192122036Y-82569268D01*
X191594791Y-82315291D01*
X191579026Y-82312642D01*
X191347000Y-82433783D01*
X191093000Y-82433783D01*
X190860974Y-82312642D01*
X190845209Y-82315291D01*
X190317964Y-82569268D01*
X189946461Y-82985069D01*
X189739670Y-82675585D01*
X189253489Y-82350729D01*
X188680000Y-82236655D01*
X188106511Y-82350729D01*
X187620330Y-82675585D01*
X187610757Y-82689913D01*
X187606762Y-82668683D01*
X187467690Y-82452559D01*
X187255490Y-82307569D01*
X187003600Y-82256560D01*
X185276400Y-82256560D01*
X185041083Y-82300838D01*
X184824959Y-82439910D01*
X184679969Y-82652110D01*
X184628960Y-82904000D01*
X175498600Y-82904000D01*
X175498600Y-82857690D01*
X175401927Y-82624301D01*
X175223298Y-82445673D01*
X174989909Y-82349000D01*
X174285750Y-82349000D01*
X174127000Y-82507750D01*
X173873000Y-82507750D01*
X173714250Y-82349000D01*
X173010091Y-82349000D01*
X172776702Y-82445673D01*
X172598073Y-82624301D01*
X172534500Y-82777780D01*
X172519670Y-82755585D01*
X172033489Y-82430729D01*
X171460000Y-82316655D01*
X170886511Y-82430729D01*
X170400330Y-82755585D01*
X170190000Y-83070366D01*
X169979670Y-82755585D01*
X169493489Y-82430729D01*
X168920000Y-82316655D01*
X168346511Y-82430729D01*
X167860330Y-82755585D01*
X167650000Y-83070366D01*
X167439670Y-82755585D01*
X166953489Y-82430729D01*
X166380000Y-82316655D01*
X165806511Y-82430729D01*
X165320330Y-82755585D01*
X165110000Y-83070366D01*
X164899670Y-82755585D01*
X164413489Y-82430729D01*
X163840000Y-82316655D01*
X163266511Y-82430729D01*
X162780330Y-82755585D01*
X162570000Y-83070366D01*
X162359670Y-82755585D01*
X161873489Y-82430729D01*
X161300000Y-82316655D01*
X160726511Y-82430729D01*
X160240330Y-82755585D01*
X160030000Y-83070366D01*
X159819670Y-82755585D01*
X159333489Y-82430729D01*
X158760000Y-82316655D01*
X158186511Y-82430729D01*
X157700330Y-82755585D01*
X157490000Y-83070366D01*
X157279670Y-82755585D01*
X156793489Y-82430729D01*
X156220000Y-82316655D01*
X155646511Y-82430729D01*
X155160330Y-82755585D01*
X154950000Y-83070366D01*
X154739670Y-82755585D01*
X154253489Y-82430729D01*
X153680000Y-82316655D01*
X153106511Y-82430729D01*
X152620330Y-82755585D01*
X152410000Y-83070366D01*
X152199670Y-82755585D01*
X151713489Y-82430729D01*
X151140000Y-82316655D01*
X150566511Y-82430729D01*
X150080330Y-82755585D01*
X149870000Y-83070366D01*
X149659670Y-82755585D01*
X149173489Y-82430729D01*
X148600000Y-82316655D01*
X148026511Y-82430729D01*
X147540330Y-82755585D01*
X147215474Y-83241766D01*
X147101400Y-83815255D01*
X138511040Y-83815255D01*
X138511040Y-82984000D01*
X138466762Y-82748683D01*
X138327690Y-82532559D01*
X138115490Y-82387569D01*
X137863600Y-82336560D01*
X136136400Y-82336560D01*
X135901083Y-82380838D01*
X135684959Y-82519910D01*
X135539969Y-82732110D01*
X135531600Y-82773439D01*
X135519670Y-82755585D01*
X135033489Y-82430729D01*
X134460000Y-82316655D01*
X133886511Y-82430729D01*
X133400330Y-82755585D01*
X133190000Y-83070366D01*
X132979670Y-82755585D01*
X132493489Y-82430729D01*
X131920000Y-82316655D01*
X131346511Y-82430729D01*
X130860330Y-82755585D01*
X130650000Y-83070366D01*
X130439670Y-82755585D01*
X129953489Y-82430729D01*
X129380000Y-82316655D01*
X128806511Y-82430729D01*
X128320330Y-82755585D01*
X128110000Y-83070366D01*
X127899670Y-82755585D01*
X127413489Y-82430729D01*
X126840000Y-82316655D01*
X126266511Y-82430729D01*
X125780330Y-82755585D01*
X125570000Y-83070366D01*
X125359670Y-82755585D01*
X124873489Y-82430729D01*
X124300000Y-82316655D01*
X123726511Y-82430729D01*
X123240330Y-82755585D01*
X123033539Y-83065069D01*
X122662036Y-82649268D01*
X122134791Y-82395291D01*
X122119026Y-82392642D01*
X121887000Y-82513783D01*
X121633000Y-82513783D01*
X121400974Y-82392642D01*
X121385209Y-82395291D01*
X120857964Y-82649268D01*
X120486461Y-83065069D01*
X120279670Y-82755585D01*
X119793489Y-82430729D01*
X119220000Y-82316655D01*
X118646511Y-82430729D01*
X118160330Y-82755585D01*
X117950000Y-83070366D01*
X117739670Y-82755585D01*
X117253489Y-82430729D01*
X116680000Y-82316655D01*
X116106511Y-82430729D01*
X115620330Y-82755585D01*
X115295474Y-83241766D01*
X115181400Y-83815255D01*
X114127000Y-83815255D01*
X114127000Y-80323795D01*
X120824716Y-80323795D01*
X121073106Y-80924943D01*
X121532637Y-81385278D01*
X122133352Y-81634716D01*
X122783795Y-81635284D01*
X123384943Y-81386894D01*
X123447197Y-81324749D01*
X123461673Y-81359698D01*
X123640301Y-81538327D01*
X123873690Y-81635000D01*
X124714250Y-81635000D01*
X124873000Y-81476250D01*
X124873000Y-80127000D01*
X125127000Y-80127000D01*
X125127000Y-81476250D01*
X125285750Y-81635000D01*
X126126310Y-81635000D01*
X126359699Y-81538327D01*
X126538327Y-81359698D01*
X126635000Y-81126309D01*
X126635000Y-80323795D01*
X171824716Y-80323795D01*
X172073106Y-80924943D01*
X172532637Y-81385278D01*
X173133352Y-81634716D01*
X173783795Y-81635284D01*
X174384943Y-81386894D01*
X174447197Y-81324749D01*
X174461673Y-81359698D01*
X174640301Y-81538327D01*
X174873690Y-81635000D01*
X175714250Y-81635000D01*
X175873000Y-81476250D01*
X175873000Y-80127000D01*
X176127000Y-80127000D01*
X176127000Y-81476250D01*
X176285750Y-81635000D01*
X177126310Y-81635000D01*
X177359699Y-81538327D01*
X177538327Y-81359698D01*
X177635000Y-81126309D01*
X177635000Y-80285750D01*
X177555000Y-80205750D01*
X188505000Y-80205750D01*
X188505000Y-81046309D01*
X188601673Y-81279698D01*
X188780301Y-81458327D01*
X189013690Y-81555000D01*
X189854250Y-81555000D01*
X190013000Y-81396250D01*
X190013000Y-80047000D01*
X188663750Y-80047000D01*
X188505000Y-80205750D01*
X177555000Y-80205750D01*
X177476250Y-80127000D01*
X176127000Y-80127000D01*
X175873000Y-80127000D01*
X175853000Y-80127000D01*
X175853000Y-79873000D01*
X175873000Y-79873000D01*
X175873000Y-78523750D01*
X176127000Y-78523750D01*
X176127000Y-79873000D01*
X177476250Y-79873000D01*
X177635000Y-79714250D01*
X177635000Y-78873691D01*
X177601863Y-78793691D01*
X188505000Y-78793691D01*
X188505000Y-79634250D01*
X188663750Y-79793000D01*
X190013000Y-79793000D01*
X190013000Y-78443750D01*
X190267000Y-78443750D01*
X190267000Y-79793000D01*
X190287000Y-79793000D01*
X190287000Y-80047000D01*
X190267000Y-80047000D01*
X190267000Y-81396250D01*
X190425750Y-81555000D01*
X191266310Y-81555000D01*
X191499699Y-81458327D01*
X191678327Y-81279698D01*
X191692630Y-81245166D01*
X191752637Y-81305278D01*
X192353352Y-81554716D01*
X193003795Y-81555284D01*
X193604943Y-81306894D01*
X194065278Y-80847363D01*
X194314716Y-80246648D01*
X194315284Y-79596205D01*
X194066894Y-78995057D01*
X193607363Y-78534722D01*
X193006648Y-78285284D01*
X192356205Y-78284716D01*
X191755057Y-78533106D01*
X191692803Y-78595251D01*
X191678327Y-78560302D01*
X191499699Y-78381673D01*
X191266310Y-78285000D01*
X190425750Y-78285000D01*
X190267000Y-78443750D01*
X190013000Y-78443750D01*
X189854250Y-78285000D01*
X189013690Y-78285000D01*
X188780301Y-78381673D01*
X188601673Y-78560302D01*
X188505000Y-78793691D01*
X177601863Y-78793691D01*
X177538327Y-78640302D01*
X177359699Y-78461673D01*
X177126310Y-78365000D01*
X176285750Y-78365000D01*
X176127000Y-78523750D01*
X175873000Y-78523750D01*
X175714250Y-78365000D01*
X174873690Y-78365000D01*
X174640301Y-78461673D01*
X174461673Y-78640302D01*
X174447370Y-78674834D01*
X174387363Y-78614722D01*
X173786648Y-78365284D01*
X173136205Y-78364716D01*
X172535057Y-78613106D01*
X172074722Y-79072637D01*
X171825284Y-79673352D01*
X171824716Y-80323795D01*
X126635000Y-80323795D01*
X126635000Y-80285750D01*
X126476250Y-80127000D01*
X125127000Y-80127000D01*
X124873000Y-80127000D01*
X124853000Y-80127000D01*
X124853000Y-79873000D01*
X124873000Y-79873000D01*
X124873000Y-78523750D01*
X125127000Y-78523750D01*
X125127000Y-79873000D01*
X126476250Y-79873000D01*
X126635000Y-79714250D01*
X126635000Y-78873691D01*
X126538327Y-78640302D01*
X126359699Y-78461673D01*
X126126310Y-78365000D01*
X125285750Y-78365000D01*
X125127000Y-78523750D01*
X124873000Y-78523750D01*
X124714250Y-78365000D01*
X123873690Y-78365000D01*
X123640301Y-78461673D01*
X123461673Y-78640302D01*
X123447370Y-78674834D01*
X123387363Y-78614722D01*
X122786648Y-78365284D01*
X122136205Y-78364716D01*
X121535057Y-78613106D01*
X121074722Y-79072637D01*
X120825284Y-79673352D01*
X120824716Y-80323795D01*
X114127000Y-80323795D01*
X114127000Y-78127000D01*
X206873000Y-78127000D01*
X206873000Y-133873000D01*
M02*
