G04 #@! TF.FileFunction,Copper,L1,Top,Signal*
%FSLAX46Y46*%
G04 Gerber Fmt 4.6, Leading zero omitted, Abs format (unit mm)*
G04 Created by KiCad (PCBNEW 4.0.2-stable) date 7/12/2016 4:32:09 PM*
%MOMM*%
G01*
G04 APERTURE LIST*
%ADD10C,0.100000*%
%ADD11R,0.800000X0.750000*%
%ADD12R,1.000000X1.600000*%
%ADD13R,1.000000X1.250000*%
%ADD14R,0.600000X0.700000*%
%ADD15R,2.000000X2.000000*%
%ADD16C,2.000000*%
%ADD17R,0.500000X0.900000*%
%ADD18R,0.900000X0.500000*%
%ADD19C,1.397000*%
%ADD20R,2.032000X3.657600*%
%ADD21R,2.032000X1.016000*%
%ADD22R,1.060000X0.650000*%
%ADD23O,1.473200X0.609600*%
%ADD24R,1.727200X2.032000*%
%ADD25O,1.727200X2.032000*%
%ADD26R,6.000000X2.500000*%
%ADD27R,2.500000X1.000000*%
%ADD28R,2.000000X2.400000*%
%ADD29C,3.000000*%
%ADD30R,1.000000X0.230000*%
%ADD31R,0.230000X1.000000*%
%ADD32R,1.727200X1.727200*%
%ADD33O,1.727200X1.727200*%
%ADD34R,2.032000X2.032000*%
%ADD35O,2.032000X2.032000*%
%ADD36C,0.700000*%
%ADD37C,0.203200*%
%ADD38C,0.254000*%
G04 APERTURE END LIST*
D10*
D11*
X88430000Y-105350000D03*
X86930000Y-105350000D03*
X104210000Y-93260000D03*
X105710000Y-93260000D03*
X88880000Y-93320000D03*
X87380000Y-93320000D03*
X111190000Y-105340000D03*
X112690000Y-105340000D03*
X110970000Y-93220000D03*
X112470000Y-93220000D03*
X82050000Y-105440000D03*
X80550000Y-105440000D03*
X82150000Y-93280000D03*
X80650000Y-93280000D03*
X104130000Y-111400000D03*
X105630000Y-111400000D03*
X104910000Y-120390000D03*
X106410000Y-120390000D03*
X178190000Y-115650000D03*
X176690000Y-115650000D03*
X166080000Y-115850000D03*
X167580000Y-115850000D03*
X178200000Y-113110000D03*
X176700000Y-113110000D03*
X167370000Y-101300000D03*
X168870000Y-101300000D03*
X155040000Y-96990000D03*
X156540000Y-96990000D03*
D12*
X104920000Y-132270000D03*
X107920000Y-132270000D03*
D11*
X181270000Y-102380000D03*
X179770000Y-102380000D03*
X167370000Y-95250000D03*
X168870000Y-95250000D03*
D13*
X155030000Y-94750000D03*
X157030000Y-94750000D03*
D11*
X104210000Y-99370000D03*
X105710000Y-99370000D03*
X167370000Y-97340000D03*
X168870000Y-97340000D03*
D13*
X155030000Y-92210000D03*
X157030000Y-92210000D03*
D11*
X190910000Y-102360000D03*
X192410000Y-102360000D03*
X167360000Y-99360000D03*
X168860000Y-99360000D03*
X88500000Y-111390000D03*
X87000000Y-111390000D03*
X88520000Y-99140000D03*
X87020000Y-99140000D03*
X137080000Y-111300000D03*
X138580000Y-111300000D03*
X137080000Y-113210000D03*
X138580000Y-113210000D03*
X111170000Y-111470000D03*
X112670000Y-111470000D03*
X111080000Y-99270000D03*
X112580000Y-99270000D03*
X82020000Y-111420000D03*
X80520000Y-111420000D03*
X139660000Y-126230000D03*
X138160000Y-126230000D03*
X155750000Y-128200000D03*
X157250000Y-128200000D03*
X82260000Y-99230000D03*
X80760000Y-99230000D03*
X139670000Y-129310000D03*
X138170000Y-129310000D03*
X104260000Y-105350000D03*
X105760000Y-105350000D03*
X196950000Y-115200000D03*
X198450000Y-115200000D03*
D14*
X90080000Y-106970000D03*
X91480000Y-106970000D03*
X102660000Y-94760000D03*
X101260000Y-94760000D03*
X90340000Y-94830000D03*
X91740000Y-94830000D03*
X109570000Y-106950000D03*
X108170000Y-106950000D03*
X109430000Y-94760000D03*
X108030000Y-94760000D03*
X83610000Y-107030000D03*
X85010000Y-107030000D03*
D15*
X122420000Y-122240000D03*
D16*
X119880000Y-122240000D03*
D14*
X83710000Y-94790000D03*
X85110000Y-94790000D03*
X102630000Y-112970000D03*
X101230000Y-112970000D03*
D15*
X122420000Y-130150000D03*
D16*
X119880000Y-130150000D03*
D14*
X102860000Y-100920000D03*
X101460000Y-100920000D03*
X90020000Y-112980000D03*
X91420000Y-112980000D03*
X90040000Y-100770000D03*
X91440000Y-100770000D03*
X109650000Y-113150000D03*
X108250000Y-113150000D03*
X109570000Y-100870000D03*
X108170000Y-100870000D03*
X83620000Y-113010000D03*
X85020000Y-113010000D03*
X83710000Y-100840000D03*
X85110000Y-100840000D03*
X102700000Y-106990000D03*
X101300000Y-106990000D03*
D15*
X190140000Y-79920000D03*
D16*
X192680000Y-79920000D03*
D15*
X125000000Y-80000000D03*
D16*
X122460000Y-80000000D03*
D15*
X176000000Y-80000000D03*
D16*
X173460000Y-80000000D03*
D17*
X88430000Y-107200000D03*
X86930000Y-107200000D03*
X104210000Y-95010000D03*
X105710000Y-95010000D03*
X91440000Y-105350000D03*
X89940000Y-105350000D03*
X101210000Y-93260000D03*
X102710000Y-93260000D03*
X88950000Y-94980000D03*
X87450000Y-94980000D03*
X111180000Y-107070000D03*
X112680000Y-107070000D03*
X91740000Y-93320000D03*
X90240000Y-93320000D03*
X108170000Y-105310000D03*
X109670000Y-105310000D03*
X110990000Y-94900000D03*
X112490000Y-94900000D03*
X82050000Y-107190000D03*
X80550000Y-107190000D03*
X108000000Y-93240000D03*
X109500000Y-93240000D03*
X85020000Y-105440000D03*
X83520000Y-105440000D03*
X82280000Y-95010000D03*
X80780000Y-95010000D03*
X116360000Y-122210000D03*
X117860000Y-122210000D03*
X85100000Y-93280000D03*
X83600000Y-93280000D03*
X104130000Y-113090000D03*
X105630000Y-113090000D03*
X101220000Y-111400000D03*
X102720000Y-111400000D03*
X162220000Y-118980000D03*
X163720000Y-118980000D03*
X167580000Y-118980000D03*
X166080000Y-118980000D03*
X116360000Y-130150000D03*
X117860000Y-130150000D03*
X104210000Y-101040000D03*
X105710000Y-101040000D03*
X187970000Y-97570000D03*
X186470000Y-97570000D03*
X101370000Y-99370000D03*
X102870000Y-99370000D03*
X127310000Y-113260000D03*
X128810000Y-113260000D03*
X88540000Y-113180000D03*
X87040000Y-113180000D03*
X91420000Y-111390000D03*
X89920000Y-111390000D03*
X88520000Y-100960000D03*
X87020000Y-100960000D03*
X91450000Y-99170000D03*
X89950000Y-99170000D03*
X111140000Y-113210000D03*
X112640000Y-113210000D03*
X108250000Y-111440000D03*
X109750000Y-111440000D03*
X157290000Y-125500000D03*
X158790000Y-125500000D03*
X154200000Y-125500000D03*
X155700000Y-125500000D03*
X111120000Y-101000000D03*
X112620000Y-101000000D03*
X108180000Y-99280000D03*
X109680000Y-99280000D03*
X82040000Y-113250000D03*
X80540000Y-113250000D03*
X85010000Y-111440000D03*
X83510000Y-111440000D03*
X142940000Y-126230000D03*
X141440000Y-126230000D03*
X142930000Y-129320000D03*
X141430000Y-129320000D03*
X82260000Y-101020000D03*
X80760000Y-101020000D03*
X85100000Y-99210000D03*
X83600000Y-99210000D03*
X197940000Y-87750000D03*
X199440000Y-87750000D03*
X104290000Y-107070000D03*
X105790000Y-107070000D03*
X101300000Y-105370000D03*
X102800000Y-105370000D03*
D18*
X196140000Y-79170000D03*
X196140000Y-80670000D03*
D17*
X132770000Y-87130000D03*
X131270000Y-87130000D03*
D18*
X119000000Y-79250000D03*
X119000000Y-80750000D03*
D17*
X196930000Y-119790000D03*
X198430000Y-119790000D03*
X198440000Y-117620000D03*
X196940000Y-117620000D03*
D18*
X171000000Y-80750000D03*
X171000000Y-79250000D03*
D19*
X179910000Y-124490000D03*
X179910000Y-129570000D03*
X172290000Y-124490000D03*
X172290000Y-129570000D03*
D20*
X111502000Y-125970000D03*
D21*
X104898000Y-125970000D03*
X104898000Y-128256000D03*
X104898000Y-123684000D03*
D22*
X131650000Y-111310000D03*
X131650000Y-112260000D03*
X131650000Y-113210000D03*
X133850000Y-113210000D03*
X133850000Y-111310000D03*
X133850000Y-112260000D03*
D23*
X151564000Y-129735000D03*
X151564000Y-128465000D03*
X151564000Y-127195000D03*
X151564000Y-125925000D03*
X145976000Y-125925000D03*
X145976000Y-127195000D03*
X145976000Y-128465000D03*
X145976000Y-129735000D03*
D24*
X186140000Y-83920000D03*
D25*
X188680000Y-83920000D03*
X191220000Y-83920000D03*
X193760000Y-83920000D03*
X196300000Y-83920000D03*
X198840000Y-83920000D03*
X201380000Y-83920000D03*
D24*
X137000000Y-84000000D03*
D25*
X134460000Y-84000000D03*
X131920000Y-84000000D03*
X129380000Y-84000000D03*
X126840000Y-84000000D03*
X124300000Y-84000000D03*
X121760000Y-84000000D03*
X119220000Y-84000000D03*
X116680000Y-84000000D03*
D24*
X174000000Y-84000000D03*
D25*
X171460000Y-84000000D03*
X168920000Y-84000000D03*
X166380000Y-84000000D03*
X163840000Y-84000000D03*
X161300000Y-84000000D03*
X158760000Y-84000000D03*
X156220000Y-84000000D03*
X153680000Y-84000000D03*
X151140000Y-84000000D03*
X148600000Y-84000000D03*
D26*
X187710000Y-114390000D03*
D27*
X181710000Y-113120000D03*
X181710000Y-115660000D03*
D28*
X183940000Y-102370000D03*
X187940000Y-102370000D03*
D29*
X107140000Y-80920000D03*
X83140000Y-130920000D03*
X213140000Y-130920000D03*
X213140000Y-80920000D03*
D30*
X148330000Y-102330000D03*
X148330000Y-102730000D03*
X148330000Y-103130000D03*
X148330000Y-103530000D03*
X148330000Y-103930000D03*
X148330000Y-104330000D03*
X148330000Y-104730000D03*
X148330000Y-105130000D03*
X148330000Y-105530000D03*
X148330000Y-105930000D03*
X148330000Y-106330000D03*
X148330000Y-106730000D03*
X148330000Y-107130000D03*
X148330000Y-107530000D03*
X148330000Y-107930000D03*
X148330000Y-108330000D03*
X148330000Y-108730000D03*
X148330000Y-109130000D03*
X148330000Y-109530000D03*
X148330000Y-109930000D03*
X148330000Y-110330000D03*
X148330000Y-110730000D03*
X148330000Y-111130000D03*
X148330000Y-111530000D03*
X148330000Y-111930000D03*
X148330000Y-112330000D03*
X148330000Y-112730000D03*
X148330000Y-113130000D03*
X148330000Y-113530000D03*
X148330000Y-113930000D03*
X148330000Y-114330000D03*
X148330000Y-114730000D03*
D31*
X149830000Y-116230000D03*
X150230000Y-116230000D03*
X150630000Y-116230000D03*
X151030000Y-116230000D03*
X151430000Y-116230000D03*
X151830000Y-116230000D03*
X152230000Y-116230000D03*
X152630000Y-116230000D03*
X153030000Y-116230000D03*
X153430000Y-116230000D03*
X153830000Y-116230000D03*
X154230000Y-116230000D03*
X154630000Y-116230000D03*
X155030000Y-116230000D03*
X155430000Y-116230000D03*
X155830000Y-116230000D03*
X156230000Y-116230000D03*
X156630000Y-116230000D03*
X157030000Y-116230000D03*
X157430000Y-116230000D03*
X157830000Y-116230000D03*
X158230000Y-116230000D03*
X158630000Y-116230000D03*
X159030000Y-116230000D03*
X159430000Y-116230000D03*
X159830000Y-116230000D03*
X160230000Y-116230000D03*
X160630000Y-116230000D03*
X161030000Y-116230000D03*
X161430000Y-116230000D03*
X161830000Y-116230000D03*
X162230000Y-116230000D03*
D30*
X163730000Y-114730000D03*
X163730000Y-114330000D03*
X163730000Y-113930000D03*
X163730000Y-113530000D03*
X163730000Y-113130000D03*
X163730000Y-112730000D03*
X163730000Y-112330000D03*
X163730000Y-111930000D03*
X163730000Y-111530000D03*
X163730000Y-111130000D03*
X163730000Y-110730000D03*
X163730000Y-110330000D03*
X163730000Y-109930000D03*
X163730000Y-109530000D03*
X163730000Y-109130000D03*
X163730000Y-108730000D03*
X163730000Y-108330000D03*
X163730000Y-107930000D03*
X163730000Y-107530000D03*
X163730000Y-107130000D03*
X163730000Y-106730000D03*
X163730000Y-106330000D03*
X163730000Y-105930000D03*
X163730000Y-105530000D03*
X163730000Y-105130000D03*
X163730000Y-104730000D03*
X163730000Y-104330000D03*
X163730000Y-103930000D03*
X163730000Y-103530000D03*
X163730000Y-103130000D03*
X163730000Y-102730000D03*
X163730000Y-102330000D03*
D31*
X162230000Y-100830000D03*
X161830000Y-100830000D03*
X161430000Y-100830000D03*
X161030000Y-100830000D03*
X160630000Y-100830000D03*
X160230000Y-100830000D03*
X159830000Y-100830000D03*
X159430000Y-100830000D03*
X159030000Y-100830000D03*
X158630000Y-100830000D03*
X158230000Y-100830000D03*
X157830000Y-100830000D03*
X157430000Y-100830000D03*
X157030000Y-100830000D03*
X156630000Y-100830000D03*
X156230000Y-100830000D03*
X155830000Y-100830000D03*
X155430000Y-100830000D03*
X155030000Y-100830000D03*
X154630000Y-100830000D03*
X154230000Y-100830000D03*
X153830000Y-100830000D03*
X153430000Y-100830000D03*
X153030000Y-100830000D03*
X152630000Y-100830000D03*
X152230000Y-100830000D03*
X151830000Y-100830000D03*
X151430000Y-100830000D03*
X151030000Y-100830000D03*
X150630000Y-100830000D03*
X150230000Y-100830000D03*
X149830000Y-100830000D03*
D11*
X167440000Y-105930000D03*
X168940000Y-105930000D03*
D32*
X97536000Y-93218000D03*
D33*
X94996000Y-93218000D03*
X97536000Y-95758000D03*
X94996000Y-95758000D03*
X97536000Y-98298000D03*
X94996000Y-98298000D03*
X97536000Y-100838000D03*
X94996000Y-100838000D03*
X97536000Y-103378000D03*
X94996000Y-103378000D03*
X97536000Y-105918000D03*
X94996000Y-105918000D03*
X97536000Y-108458000D03*
X94996000Y-108458000D03*
X97536000Y-110998000D03*
X94996000Y-110998000D03*
X97536000Y-113538000D03*
X94996000Y-113538000D03*
X97536000Y-116078000D03*
X94996000Y-116078000D03*
X97536000Y-118618000D03*
X94996000Y-118618000D03*
X97536000Y-121158000D03*
X94996000Y-121158000D03*
X97536000Y-123698000D03*
X94996000Y-123698000D03*
D14*
X139580000Y-132210000D03*
X140980000Y-132210000D03*
X147370000Y-123890000D03*
X145970000Y-123890000D03*
D15*
X165500000Y-129500000D03*
D16*
X162960000Y-129500000D03*
D17*
X159250000Y-129500000D03*
X160750000Y-129500000D03*
D32*
X188270000Y-127260000D03*
D33*
X188270000Y-124720000D03*
X190810000Y-127260000D03*
X190810000Y-124720000D03*
X193350000Y-127260000D03*
X193350000Y-124720000D03*
X195890000Y-127260000D03*
X195890000Y-124720000D03*
X198430000Y-127260000D03*
X198430000Y-124720000D03*
D17*
X167850000Y-110870000D03*
X169350000Y-110870000D03*
D34*
X133880000Y-94410000D03*
D35*
X136420000Y-94410000D03*
D17*
X181300000Y-106310000D03*
X182800000Y-106310000D03*
X185030000Y-106940000D03*
X186530000Y-106940000D03*
X205690000Y-110570000D03*
X204190000Y-110570000D03*
D36*
X118260000Y-105340000D03*
X114500000Y-102840000D03*
X169350000Y-109140000D03*
X189730000Y-129760000D03*
X90910000Y-128930000D03*
X181480000Y-132930000D03*
X148910000Y-124430000D03*
X137530000Y-131290000D03*
X100480000Y-128160000D03*
X102630000Y-125970000D03*
X147750000Y-120160000D03*
X86110000Y-108490000D03*
X86050000Y-114160000D03*
X145980000Y-131330000D03*
X83620000Y-114340000D03*
X109570000Y-108630000D03*
X152260000Y-108730000D03*
X129490000Y-111310000D03*
X138580000Y-115090000D03*
X200060000Y-115200000D03*
X170340000Y-105930000D03*
X169240000Y-115850000D03*
X81230000Y-109520000D03*
X80550000Y-103680000D03*
X80760000Y-97520000D03*
X90810000Y-102170000D03*
X80650000Y-91680000D03*
X87380000Y-91680000D03*
X114200000Y-113210000D03*
X106920000Y-114520000D03*
X114370000Y-107070000D03*
X107110000Y-104440000D03*
X106990000Y-98210000D03*
X114210000Y-99270000D03*
X112470000Y-91280000D03*
X105710000Y-91530000D03*
X160380000Y-125500000D03*
X138620000Y-124560000D03*
X114240000Y-125970000D03*
X108050000Y-120390000D03*
X109890000Y-132270000D03*
X162120000Y-108330000D03*
X168870000Y-104120000D03*
X155940000Y-103510000D03*
X158890000Y-92210000D03*
X159830000Y-114760000D03*
X118400000Y-93120000D03*
X116540000Y-89790000D03*
X150330000Y-103970000D03*
X144770000Y-104810000D03*
X121330000Y-108810000D03*
X121330000Y-105370000D03*
X118430000Y-94050000D03*
X110180000Y-91520000D03*
X144790000Y-103880000D03*
X149600000Y-103300000D03*
X85000000Y-103840000D03*
X114480000Y-105750000D03*
X120240000Y-108780000D03*
X120250000Y-104470000D03*
X84940000Y-90120000D03*
X117450000Y-94660000D03*
X149750000Y-127200000D03*
X149280000Y-130980000D03*
X164810000Y-117390000D03*
X168410000Y-117390000D03*
X165200000Y-114410000D03*
X173760000Y-113870000D03*
X179470000Y-106940000D03*
X184340000Y-108460000D03*
X204830000Y-114280000D03*
X188270000Y-129360000D03*
X135730000Y-130120000D03*
X178100000Y-132120000D03*
X111760000Y-131600000D03*
X147710000Y-117960000D03*
X133850000Y-115010000D03*
X150040000Y-107820000D03*
X127310000Y-115410000D03*
X166790000Y-93770000D03*
X162380000Y-92830000D03*
X200010000Y-117620000D03*
X163720000Y-120510000D03*
X161320000Y-104730000D03*
X161970000Y-113130000D03*
X158210000Y-114040000D03*
X152230000Y-105040000D03*
X153390000Y-105050000D03*
X119980000Y-96740000D03*
X143960000Y-111240000D03*
X120140000Y-112550000D03*
X118280000Y-112270000D03*
X92560000Y-110030000D03*
X103120000Y-97430000D03*
X118350000Y-97480000D03*
X142240000Y-102310000D03*
X154400000Y-105060000D03*
X133850000Y-109240000D03*
X141640000Y-105540000D03*
X120170000Y-111500000D03*
X144960000Y-110340000D03*
X92480000Y-97300000D03*
X116050000Y-101160000D03*
X104240000Y-104090000D03*
X117380000Y-105840000D03*
X108170000Y-108300000D03*
X108030000Y-96430000D03*
X85010000Y-108500000D03*
X85110000Y-96350000D03*
X108250000Y-114570000D03*
X108170000Y-102580000D03*
X85020000Y-114670000D03*
X85110000Y-102410000D03*
X170020000Y-103340000D03*
X167850000Y-103340000D03*
X117800000Y-116870000D03*
X144110000Y-118790000D03*
X113450000Y-117670000D03*
X117730000Y-118000000D03*
X142830000Y-127650000D03*
X139900000Y-118880000D03*
X142160000Y-121140000D03*
X201380000Y-89200000D03*
X151550000Y-120590000D03*
X193760000Y-109580000D03*
X153030000Y-121390000D03*
X165680000Y-120510000D03*
X191820000Y-120480000D03*
X193990000Y-120480000D03*
X198840000Y-86130000D03*
X158190000Y-119680000D03*
X188680000Y-86920000D03*
X158740000Y-111980000D03*
X161070000Y-91140000D03*
X163090000Y-87760000D03*
X159740000Y-111940000D03*
X166830000Y-103380000D03*
X167620000Y-90340000D03*
X197990000Y-110570000D03*
X192960000Y-94370000D03*
X195800000Y-116460000D03*
X202900000Y-95720000D03*
X194810000Y-93310000D03*
X192980000Y-93330000D03*
X190400000Y-109420000D03*
X191600000Y-117650000D03*
X190480000Y-91440000D03*
X191410000Y-107450000D03*
X189500000Y-90020000D03*
X192700000Y-111620000D03*
X135780000Y-87110000D03*
X127550000Y-89720000D03*
X166010000Y-110860000D03*
X160900000Y-118630000D03*
X145350000Y-115760000D03*
X133870000Y-97480000D03*
X125150000Y-109130000D03*
X125150000Y-113980000D03*
X145090000Y-116770000D03*
X131520000Y-98560000D03*
X124160000Y-109140000D03*
X124160000Y-115480000D03*
X157610000Y-104780000D03*
X156180000Y-123540000D03*
X157770000Y-103330000D03*
X153230000Y-130530000D03*
D37*
X89940000Y-105350000D02*
X89940000Y-104270000D01*
X146240000Y-106730000D02*
X148330000Y-106730000D01*
X119650000Y-106730000D02*
X146240000Y-106730000D01*
X118260000Y-105340000D02*
X119650000Y-106730000D01*
X114100000Y-103240000D02*
X114500000Y-102840000D01*
X100640000Y-103240000D02*
X114100000Y-103240000D01*
X99460000Y-102060000D02*
X100640000Y-103240000D01*
X93750000Y-102060000D02*
X99460000Y-102060000D01*
X92150000Y-103660000D02*
X93750000Y-102060000D01*
X90550000Y-103660000D02*
X92150000Y-103660000D01*
X89940000Y-104270000D02*
X90550000Y-103660000D01*
X88430000Y-107200000D02*
X88430000Y-105350000D01*
X89940000Y-105350000D02*
X88430000Y-105350000D01*
D38*
X169350000Y-110870000D02*
X169350000Y-109140000D01*
X191510000Y-129760000D02*
X189730000Y-129760000D01*
X193350000Y-127260000D02*
X193350000Y-129180000D01*
X193350000Y-129180000D02*
X193930000Y-129760000D01*
X190810000Y-127260000D02*
X190810000Y-129060000D01*
X198430000Y-129100000D02*
X198430000Y-127260000D01*
X197770000Y-129760000D02*
X198430000Y-129100000D01*
X191510000Y-129760000D02*
X193930000Y-129760000D01*
X193930000Y-129760000D02*
X197770000Y-129760000D01*
X190810000Y-129060000D02*
X191510000Y-129760000D01*
X90370000Y-127330000D02*
X90370000Y-128390000D01*
X90370000Y-128390000D02*
X90910000Y-128930000D01*
X147370000Y-123890000D02*
X148370000Y-123890000D01*
X148370000Y-123890000D02*
X148910000Y-124430000D01*
X139580000Y-132210000D02*
X138450000Y-132210000D01*
X138450000Y-132210000D02*
X137530000Y-131290000D01*
X90370000Y-119180000D02*
X90370000Y-127330000D01*
X90370000Y-127330000D02*
X91200000Y-128160000D01*
X91200000Y-128160000D02*
X100480000Y-128160000D01*
X104898000Y-125970000D02*
X102630000Y-125970000D01*
X90892000Y-118618000D02*
X94996000Y-118618000D01*
X90370000Y-119140000D02*
X90892000Y-118618000D01*
X87200000Y-108490000D02*
X86110000Y-108490000D01*
X90080000Y-106970000D02*
X90080000Y-107970000D01*
X86930000Y-108220000D02*
X86930000Y-107200000D01*
X87200000Y-108490000D02*
X86930000Y-108220000D01*
X89560000Y-108490000D02*
X87200000Y-108490000D01*
X90080000Y-107970000D02*
X89560000Y-108490000D01*
X87440000Y-114600000D02*
X86490000Y-114600000D01*
X86490000Y-114600000D02*
X86050000Y-114160000D01*
X145976000Y-129735000D02*
X145976000Y-131326000D01*
X145976000Y-131326000D02*
X145980000Y-131330000D01*
D37*
X83620000Y-113010000D02*
X83620000Y-114340000D01*
D38*
X109570000Y-108630000D02*
X109570000Y-107830000D01*
X109570000Y-107830000D02*
X109570000Y-106950000D01*
X150970000Y-108730000D02*
X152260000Y-108730000D01*
X149540000Y-108730000D02*
X150970000Y-108730000D01*
X148330000Y-108730000D02*
X149540000Y-108730000D01*
X149560000Y-105930000D02*
X148330000Y-105930000D01*
X151260000Y-105930000D02*
X149560000Y-105930000D01*
X151650000Y-106320000D02*
X151260000Y-105930000D01*
X151650000Y-108050000D02*
X151650000Y-106320000D01*
X150970000Y-108730000D02*
X151650000Y-108050000D01*
X131650000Y-112260000D02*
X130440000Y-112260000D01*
X129490000Y-111310000D02*
X131650000Y-111310000D01*
X130440000Y-112260000D02*
X129490000Y-111310000D01*
X138580000Y-113210000D02*
X138580000Y-115090000D01*
X138580000Y-111300000D02*
X138580000Y-113210000D01*
X198450000Y-115200000D02*
X200060000Y-115200000D01*
X179770000Y-102380000D02*
X179770000Y-104120000D01*
X192410000Y-104120000D02*
X192410000Y-102360000D01*
X191520000Y-105010000D02*
X192410000Y-104120000D01*
X180660000Y-105010000D02*
X191520000Y-105010000D01*
X179770000Y-104120000D02*
X180660000Y-105010000D01*
X179770000Y-102380000D02*
X176590000Y-102380000D01*
X170340000Y-105930000D02*
X168940000Y-105930000D01*
X175360000Y-105930000D02*
X170340000Y-105930000D01*
X175950000Y-105340000D02*
X175360000Y-105930000D01*
X175950000Y-103020000D02*
X175950000Y-105340000D01*
X176590000Y-102380000D02*
X175950000Y-103020000D01*
X176690000Y-115650000D02*
X170870000Y-115650000D01*
X169240000Y-115850000D02*
X167580000Y-115850000D01*
X170670000Y-115850000D02*
X169240000Y-115850000D01*
X170870000Y-115650000D02*
X170670000Y-115850000D01*
X176690000Y-115650000D02*
X176690000Y-113120000D01*
X176690000Y-113120000D02*
X176700000Y-113110000D01*
X80520000Y-111420000D02*
X80520000Y-110230000D01*
X80520000Y-110230000D02*
X81230000Y-109520000D01*
X80520000Y-111420000D02*
X80520000Y-113230000D01*
X80520000Y-113230000D02*
X80540000Y-113250000D01*
X87000000Y-111390000D02*
X87000000Y-113140000D01*
X87000000Y-113140000D02*
X87040000Y-113180000D01*
X87040000Y-113180000D02*
X87040000Y-114200000D01*
X90020000Y-114210000D02*
X90020000Y-112980000D01*
X89630000Y-114600000D02*
X90020000Y-114210000D01*
X87440000Y-114600000D02*
X89630000Y-114600000D01*
X87040000Y-114200000D02*
X87440000Y-114600000D01*
X80550000Y-105440000D02*
X80550000Y-103680000D01*
X80550000Y-105440000D02*
X80550000Y-107190000D01*
X83610000Y-107030000D02*
X83610000Y-108080000D01*
X80550000Y-108100000D02*
X80550000Y-107190000D01*
X80900000Y-108450000D02*
X80550000Y-108100000D01*
X83240000Y-108450000D02*
X80900000Y-108450000D01*
X83610000Y-108080000D02*
X83240000Y-108450000D01*
X86930000Y-105350000D02*
X86930000Y-107200000D01*
X80760000Y-99230000D02*
X80760000Y-97520000D01*
X80760000Y-99230000D02*
X80760000Y-101020000D01*
X83710000Y-100840000D02*
X83710000Y-101850000D01*
X80760000Y-102050000D02*
X80760000Y-101020000D01*
X80920000Y-102210000D02*
X80760000Y-102050000D01*
X83350000Y-102210000D02*
X80920000Y-102210000D01*
X83710000Y-101850000D02*
X83350000Y-102210000D01*
X89390000Y-102170000D02*
X90810000Y-102170000D01*
X87020000Y-99140000D02*
X87020000Y-100960000D01*
X90040000Y-100770000D02*
X90040000Y-101520000D01*
X87020000Y-101780000D02*
X87020000Y-100960000D01*
X87410000Y-102170000D02*
X87020000Y-101780000D01*
X89390000Y-102170000D02*
X87410000Y-102170000D01*
X90040000Y-101520000D02*
X89390000Y-102170000D01*
X80650000Y-93280000D02*
X80650000Y-91680000D01*
X87380000Y-93320000D02*
X87380000Y-91680000D01*
X87380000Y-93320000D02*
X87380000Y-94910000D01*
X87380000Y-94910000D02*
X87450000Y-94980000D01*
X90340000Y-94830000D02*
X90340000Y-95720000D01*
X87450000Y-95980000D02*
X87450000Y-94980000D01*
X87610000Y-96140000D02*
X87450000Y-95980000D01*
X89920000Y-96140000D02*
X87610000Y-96140000D01*
X90340000Y-95720000D02*
X89920000Y-96140000D01*
X112640000Y-113210000D02*
X114200000Y-113210000D01*
X109650000Y-113150000D02*
X109650000Y-114030000D01*
X112640000Y-114190000D02*
X112640000Y-113210000D01*
X112290000Y-114540000D02*
X112640000Y-114190000D01*
X110160000Y-114540000D02*
X112290000Y-114540000D01*
X109650000Y-114030000D02*
X110160000Y-114540000D01*
X112670000Y-111470000D02*
X112670000Y-113180000D01*
X112670000Y-113180000D02*
X112640000Y-113210000D01*
X105400000Y-114520000D02*
X106920000Y-114520000D01*
X102630000Y-112970000D02*
X102630000Y-114180000D01*
X105630000Y-114290000D02*
X105630000Y-113090000D01*
X105400000Y-114520000D02*
X105630000Y-114290000D01*
X102970000Y-114520000D02*
X105400000Y-114520000D01*
X102630000Y-114180000D02*
X102970000Y-114520000D01*
X105630000Y-111400000D02*
X105630000Y-113090000D01*
X112680000Y-107070000D02*
X114370000Y-107070000D01*
X112690000Y-105340000D02*
X112690000Y-107060000D01*
X112690000Y-107060000D02*
X112680000Y-107070000D01*
X105760000Y-105350000D02*
X106800000Y-105350000D01*
X107110000Y-105040000D02*
X107110000Y-104440000D01*
X106800000Y-105350000D02*
X107110000Y-105040000D01*
X102700000Y-106990000D02*
X102700000Y-107970000D01*
X105790000Y-108050000D02*
X105790000Y-107070000D01*
X105380000Y-108460000D02*
X105790000Y-108050000D01*
X103190000Y-108460000D02*
X105380000Y-108460000D01*
X102700000Y-107970000D02*
X103190000Y-108460000D01*
X105760000Y-105350000D02*
X105760000Y-107040000D01*
X105760000Y-107040000D02*
X105790000Y-107070000D01*
X105710000Y-99370000D02*
X106690000Y-99370000D01*
X106990000Y-99070000D02*
X106990000Y-98210000D01*
X106690000Y-99370000D02*
X106990000Y-99070000D01*
X112580000Y-99270000D02*
X114210000Y-99270000D01*
X109570000Y-100870000D02*
X109570000Y-102000000D01*
X112620000Y-102150000D02*
X112620000Y-101000000D01*
X112430000Y-102340000D02*
X112620000Y-102150000D01*
X109910000Y-102340000D02*
X112430000Y-102340000D01*
X109570000Y-102000000D02*
X109910000Y-102340000D01*
X112580000Y-99270000D02*
X112580000Y-100960000D01*
X112580000Y-100960000D02*
X112620000Y-101000000D01*
X112470000Y-93220000D02*
X112470000Y-91280000D01*
X105710000Y-93260000D02*
X105710000Y-91530000D01*
X105710000Y-99370000D02*
X105710000Y-101040000D01*
X102860000Y-100920000D02*
X102860000Y-101930000D01*
X105710000Y-102170000D02*
X105710000Y-101040000D01*
X105510000Y-102370000D02*
X105710000Y-102170000D01*
X103300000Y-102370000D02*
X105510000Y-102370000D01*
X102860000Y-101930000D02*
X103300000Y-102370000D01*
X109430000Y-94760000D02*
X109430000Y-95610000D01*
X112490000Y-95800000D02*
X112490000Y-94900000D01*
X112210000Y-96080000D02*
X112490000Y-95800000D01*
X109900000Y-96080000D02*
X112210000Y-96080000D01*
X109430000Y-95610000D02*
X109900000Y-96080000D01*
X112470000Y-93220000D02*
X112470000Y-94880000D01*
X112470000Y-94880000D02*
X112490000Y-94900000D01*
X102660000Y-94760000D02*
X102660000Y-95820000D01*
X105710000Y-95940000D02*
X105710000Y-95010000D01*
X105410000Y-96240000D02*
X105710000Y-95940000D01*
X103080000Y-96240000D02*
X105410000Y-96240000D01*
X102660000Y-95820000D02*
X103080000Y-96240000D01*
X105710000Y-93260000D02*
X105710000Y-94000000D01*
X105710000Y-94000000D02*
X105710000Y-95010000D01*
X80780000Y-95010000D02*
X80780000Y-95860000D01*
X83710000Y-95900000D02*
X83710000Y-94790000D01*
X83400000Y-96210000D02*
X83710000Y-95900000D01*
X81130000Y-96210000D02*
X83400000Y-96210000D01*
X80780000Y-95860000D02*
X81130000Y-96210000D01*
X80650000Y-93280000D02*
X80650000Y-93950000D01*
X80780000Y-94080000D02*
X80780000Y-95010000D01*
X80650000Y-93950000D02*
X80780000Y-94080000D01*
X158790000Y-125500000D02*
X160380000Y-125500000D01*
X138160000Y-126230000D02*
X138160000Y-125020000D01*
X138160000Y-125020000D02*
X138620000Y-124560000D01*
X138160000Y-126230000D02*
X138160000Y-129300000D01*
X138160000Y-129300000D02*
X138170000Y-129310000D01*
X145976000Y-129735000D02*
X148245000Y-129735000D01*
X149515000Y-128465000D02*
X151564000Y-128465000D01*
X148245000Y-129735000D02*
X149515000Y-128465000D01*
X151564000Y-128465000D02*
X152995000Y-128465000D01*
X155910000Y-129540000D02*
X157250000Y-128200000D01*
X154070000Y-129540000D02*
X155910000Y-129540000D01*
X152995000Y-128465000D02*
X154070000Y-129540000D01*
X111502000Y-125970000D02*
X114240000Y-125970000D01*
X106410000Y-120390000D02*
X108050000Y-120390000D01*
X107920000Y-132270000D02*
X109890000Y-132270000D01*
X168870000Y-101300000D02*
X168870000Y-104120000D01*
X162520000Y-108730000D02*
X162120000Y-108330000D01*
X162520000Y-108730000D02*
X163730000Y-108730000D01*
X168870000Y-97340000D02*
X168870000Y-99350000D01*
X168870000Y-99350000D02*
X168860000Y-99360000D01*
X155430000Y-100830000D02*
X155430000Y-103000000D01*
X155430000Y-103000000D02*
X155940000Y-103510000D01*
X157030000Y-92210000D02*
X158890000Y-92210000D01*
X156540000Y-96990000D02*
X156540000Y-96510000D01*
X157030000Y-96020000D02*
X157030000Y-94750000D01*
X156540000Y-96510000D02*
X157030000Y-96020000D01*
X157030000Y-92210000D02*
X157030000Y-94750000D01*
X168860000Y-99360000D02*
X168860000Y-101290000D01*
X168860000Y-101290000D02*
X168870000Y-101300000D01*
X168870000Y-95250000D02*
X168870000Y-97340000D01*
X168870000Y-97340000D02*
X168860000Y-97350000D01*
X168860000Y-101290000D02*
X168870000Y-101300000D01*
X159830000Y-116230000D02*
X159830000Y-114760000D01*
X158630000Y-116230000D02*
X158630000Y-117880000D01*
X158630000Y-117880000D02*
X158960000Y-118210000D01*
X155830000Y-116230000D02*
X155830000Y-117430000D01*
X159830000Y-117960000D02*
X159830000Y-116230000D01*
X159580000Y-118210000D02*
X159830000Y-117960000D01*
X156610000Y-118210000D02*
X158960000Y-118210000D01*
X158960000Y-118210000D02*
X159580000Y-118210000D01*
X155830000Y-117430000D02*
X156610000Y-118210000D01*
D37*
X102710000Y-93260000D02*
X102710000Y-91530000D01*
X147360000Y-102330000D02*
X148330000Y-102330000D01*
X146570000Y-101540000D02*
X147360000Y-102330000D01*
X146570000Y-99970000D02*
X146570000Y-101540000D01*
X145810000Y-99210000D02*
X146570000Y-99970000D01*
X125140000Y-99210000D02*
X145810000Y-99210000D01*
X123650000Y-97720000D02*
X125140000Y-99210000D01*
X123650000Y-93280000D02*
X123650000Y-97720000D01*
X122710000Y-92340000D02*
X123650000Y-93280000D01*
X118210000Y-92340000D02*
X122710000Y-92340000D01*
X116500000Y-90630000D02*
X118210000Y-92340000D01*
X103610000Y-90630000D02*
X116500000Y-90630000D01*
X102710000Y-91530000D02*
X103610000Y-90630000D01*
X104210000Y-95010000D02*
X104210000Y-93260000D01*
X102710000Y-93260000D02*
X104210000Y-93260000D01*
X88880000Y-93320000D02*
X88880000Y-91450000D01*
X146870000Y-102730000D02*
X148330000Y-102730000D01*
X146070000Y-101930000D02*
X146870000Y-102730000D01*
X146070000Y-100750000D02*
X146070000Y-101930000D01*
X145260000Y-99940000D02*
X146070000Y-100750000D01*
X124890000Y-99940000D02*
X145260000Y-99940000D01*
X122990000Y-98040000D02*
X124890000Y-99940000D01*
X122990000Y-93960000D02*
X122990000Y-98040000D01*
X122150000Y-93120000D02*
X122990000Y-93960000D01*
X118400000Y-93120000D02*
X122150000Y-93120000D01*
X90540000Y-89790000D02*
X116540000Y-89790000D01*
X88880000Y-91450000D02*
X90540000Y-89790000D01*
X88950000Y-94980000D02*
X88950000Y-93390000D01*
X88950000Y-93390000D02*
X88880000Y-93320000D01*
X90240000Y-93320000D02*
X88880000Y-93320000D01*
X144770000Y-104810000D02*
X121890000Y-104810000D01*
X151830000Y-103360000D02*
X151220000Y-103970000D01*
X151220000Y-103970000D02*
X150330000Y-103970000D01*
X151830000Y-100830000D02*
X151830000Y-103360000D01*
X111180000Y-107920000D02*
X111180000Y-107070000D01*
X111560000Y-108300000D02*
X111180000Y-107920000D01*
X114950000Y-108300000D02*
X111560000Y-108300000D01*
X116540000Y-109890000D02*
X114950000Y-108300000D01*
X120250000Y-109890000D02*
X116540000Y-109890000D01*
X121330000Y-108810000D02*
X120250000Y-109890000D01*
X121890000Y-104810000D02*
X121330000Y-105370000D01*
X111180000Y-107070000D02*
X111180000Y-105350000D01*
X111180000Y-105350000D02*
X111190000Y-105340000D01*
X111190000Y-105340000D02*
X109700000Y-105340000D01*
X109700000Y-105340000D02*
X109670000Y-105310000D01*
X109500000Y-93240000D02*
X109500000Y-92200000D01*
X146270000Y-103130000D02*
X148330000Y-103130000D01*
X145430000Y-102290000D02*
X146270000Y-103130000D01*
X145430000Y-101290000D02*
X145430000Y-102290000D01*
X144720000Y-100580000D02*
X145430000Y-101290000D01*
X124440000Y-100580000D02*
X144720000Y-100580000D01*
X122470000Y-98610000D02*
X124440000Y-100580000D01*
X122470000Y-94860000D02*
X122470000Y-98610000D01*
X121660000Y-94050000D02*
X122470000Y-94860000D01*
X118430000Y-94050000D02*
X121660000Y-94050000D01*
X109500000Y-92200000D02*
X110180000Y-91520000D01*
X110990000Y-94900000D02*
X110990000Y-93240000D01*
X110990000Y-93240000D02*
X110970000Y-93220000D01*
X109500000Y-93240000D02*
X110950000Y-93240000D01*
X110950000Y-93240000D02*
X110970000Y-93220000D01*
X144790000Y-103880000D02*
X120840000Y-103880000D01*
X151430000Y-100830000D02*
X151430000Y-103200000D01*
X151330000Y-103300000D02*
X149600000Y-103300000D01*
X151430000Y-103200000D02*
X151330000Y-103300000D01*
X83520000Y-104200000D02*
X83520000Y-105440000D01*
X83880000Y-103840000D02*
X83520000Y-104200000D01*
X85000000Y-103840000D02*
X83880000Y-103840000D01*
X116130000Y-107400000D02*
X114480000Y-105750000D01*
X116130000Y-108790000D02*
X116130000Y-107400000D01*
X116700000Y-109360000D02*
X116130000Y-108790000D01*
X119660000Y-109360000D02*
X116700000Y-109360000D01*
X120240000Y-108780000D02*
X119660000Y-109360000D01*
X120840000Y-103880000D02*
X120250000Y-104470000D01*
X82050000Y-105440000D02*
X82050000Y-107190000D01*
X83520000Y-105440000D02*
X82050000Y-105440000D01*
X146170000Y-103530000D02*
X145920000Y-103530000D01*
X148330000Y-103530000D02*
X146170000Y-103530000D01*
X83600000Y-91460000D02*
X83600000Y-93280000D01*
X84940000Y-90120000D02*
X83600000Y-91460000D01*
X121260000Y-94660000D02*
X117450000Y-94660000D01*
X121840000Y-95240000D02*
X121260000Y-94660000D01*
X121840000Y-98870000D02*
X121840000Y-95240000D01*
X124280000Y-101310000D02*
X121840000Y-98870000D01*
X144590000Y-101310000D02*
X124280000Y-101310000D01*
X144920000Y-101640000D02*
X144590000Y-101310000D01*
X144920000Y-102530000D02*
X144920000Y-101640000D01*
X145920000Y-103530000D02*
X144920000Y-102530000D01*
X82150000Y-93280000D02*
X82150000Y-94010000D01*
X82280000Y-94140000D02*
X82280000Y-95010000D01*
X82150000Y-94010000D02*
X82280000Y-94140000D01*
X82150000Y-93280000D02*
X83600000Y-93280000D01*
X146310000Y-109130000D02*
X145870000Y-109130000D01*
X104130000Y-110200000D02*
X104830000Y-109500000D01*
X104830000Y-109500000D02*
X115080000Y-109500000D01*
X115080000Y-109500000D02*
X116330000Y-110750000D01*
X116330000Y-110750000D02*
X120480000Y-110750000D01*
X120480000Y-110750000D02*
X122100000Y-109130000D01*
X148330000Y-109130000D02*
X146310000Y-109130000D01*
X104130000Y-110200000D02*
X104130000Y-111400000D01*
X122946798Y-108283202D02*
X122100000Y-109130000D01*
X145023202Y-108283202D02*
X122946798Y-108283202D01*
X145870000Y-109130000D02*
X145023202Y-108283202D01*
X104130000Y-113090000D02*
X104130000Y-111400000D01*
X102720000Y-111400000D02*
X104130000Y-111400000D01*
D38*
X100668000Y-123698000D02*
X97536000Y-123698000D01*
X101500000Y-124530000D02*
X100668000Y-123698000D01*
X155750000Y-128200000D02*
X155750000Y-127320000D01*
X159250000Y-127680000D02*
X159250000Y-129500000D01*
X158680000Y-127110000D02*
X159250000Y-127680000D01*
X155960000Y-127110000D02*
X158680000Y-127110000D01*
X155750000Y-127320000D02*
X155960000Y-127110000D01*
X104910000Y-119080000D02*
X104910000Y-118490000D01*
X104910000Y-120390000D02*
X104910000Y-119080000D01*
X99052000Y-118618000D02*
X97536000Y-118618000D01*
X99830000Y-117840000D02*
X99052000Y-118618000D01*
X104260000Y-117840000D02*
X99830000Y-117840000D01*
X104910000Y-118490000D02*
X104260000Y-117840000D01*
X101500000Y-132780000D02*
X101500000Y-124530000D01*
X149750000Y-127200000D02*
X149755000Y-127195000D01*
X151564000Y-127195000D02*
X149755000Y-127195000D01*
X146320000Y-133940000D02*
X149280000Y-130980000D01*
X102660000Y-133940000D02*
X146320000Y-133940000D01*
X101500000Y-132780000D02*
X102660000Y-133940000D01*
X104898000Y-123684000D02*
X109466000Y-123684000D01*
X110940000Y-122210000D02*
X116360000Y-122210000D01*
X109466000Y-123684000D02*
X110940000Y-122210000D01*
X155750000Y-128200000D02*
X154730000Y-128200000D01*
X153725000Y-127195000D02*
X151564000Y-127195000D01*
X154730000Y-128200000D02*
X153725000Y-127195000D01*
X104884000Y-123670000D02*
X104898000Y-123684000D01*
X104898000Y-123684000D02*
X104898000Y-120402000D01*
X104898000Y-120402000D02*
X104910000Y-120390000D01*
X131270000Y-87130000D02*
X122350000Y-87130000D01*
X122350000Y-87130000D02*
X119220000Y-84000000D01*
X119000000Y-80750000D02*
X119000000Y-81890000D01*
X119000000Y-81890000D02*
X119220000Y-82110000D01*
X119220000Y-82110000D02*
X119220000Y-84000000D01*
D37*
X178190000Y-115650000D02*
X178190000Y-117000000D01*
X162570000Y-114330000D02*
X163730000Y-114330000D01*
X162420000Y-114480000D02*
X162570000Y-114330000D01*
X162420000Y-115000000D02*
X162420000Y-114480000D01*
X164810000Y-117390000D02*
X162420000Y-115000000D01*
X177800000Y-117390000D02*
X168410000Y-117390000D01*
X178190000Y-117000000D02*
X177800000Y-117390000D01*
X181710000Y-115660000D02*
X178200000Y-115660000D01*
X178200000Y-115660000D02*
X178190000Y-115650000D01*
X166080000Y-115850000D02*
X166080000Y-114080000D01*
X165530000Y-113530000D02*
X163730000Y-113530000D01*
X166080000Y-114080000D02*
X165530000Y-113530000D01*
X167580000Y-118980000D02*
X167580000Y-117910000D01*
X166080000Y-117160000D02*
X166080000Y-115850000D01*
X166330000Y-117410000D02*
X166080000Y-117160000D01*
X167080000Y-117410000D02*
X166330000Y-117410000D01*
X167580000Y-117910000D02*
X167080000Y-117410000D01*
X178200000Y-113110000D02*
X178200000Y-112140000D01*
X164720000Y-113930000D02*
X163730000Y-113930000D01*
X165200000Y-114410000D02*
X164720000Y-113930000D01*
X174870000Y-113870000D02*
X173760000Y-113870000D01*
X175360000Y-113380000D02*
X174870000Y-113870000D01*
X175360000Y-112310000D02*
X175360000Y-113380000D01*
X175970000Y-111700000D02*
X175360000Y-112310000D01*
X177760000Y-111700000D02*
X175970000Y-111700000D01*
X178200000Y-112140000D02*
X177760000Y-111700000D01*
X181710000Y-113120000D02*
X178210000Y-113120000D01*
X178210000Y-113120000D02*
X178200000Y-113110000D01*
D38*
X181300000Y-106310000D02*
X180100000Y-106310000D01*
X180100000Y-106310000D02*
X179470000Y-106940000D01*
X185030000Y-106940000D02*
X185030000Y-107770000D01*
X185030000Y-107770000D02*
X184340000Y-108460000D01*
X205690000Y-110570000D02*
X205690000Y-113420000D01*
X205690000Y-113420000D02*
X204830000Y-114280000D01*
X188270000Y-127260000D02*
X188270000Y-129360000D01*
X110190000Y-130030000D02*
X112620000Y-130030000D01*
X134330000Y-130120000D02*
X135730000Y-130120000D01*
X132170000Y-132280000D02*
X134330000Y-130120000D01*
X114870000Y-132280000D02*
X132170000Y-132280000D01*
X112620000Y-130030000D02*
X114870000Y-132280000D01*
X104920000Y-130030000D02*
X110190000Y-130030000D01*
X110190000Y-130030000D02*
X111760000Y-131600000D01*
X116460000Y-126960000D02*
X124410000Y-126960000D01*
X114070000Y-129350000D02*
X116460000Y-126960000D01*
X136400000Y-120900000D02*
X139340000Y-117960000D01*
X139340000Y-117960000D02*
X147710000Y-117960000D01*
X136400000Y-122490000D02*
X136400000Y-120900000D01*
X133860000Y-125030000D02*
X136400000Y-122490000D01*
X126340000Y-125030000D02*
X133860000Y-125030000D01*
X124410000Y-126960000D02*
X126340000Y-125030000D01*
D37*
X148330000Y-113130000D02*
X150790000Y-113130000D01*
X150790000Y-113130000D02*
X151590000Y-112330000D01*
D38*
X133850000Y-113210000D02*
X133850000Y-115010000D01*
D37*
X148330000Y-112330000D02*
X151590000Y-112330000D01*
X151590000Y-112330000D02*
X151890000Y-112630000D01*
X151890000Y-112630000D02*
X153300000Y-114040000D01*
X148330000Y-108330000D02*
X149530000Y-108330000D01*
X149530000Y-108330000D02*
X150040000Y-107820000D01*
D38*
X127310000Y-113260000D02*
X127310000Y-115410000D01*
X133850000Y-113210000D02*
X137080000Y-113210000D01*
X116360000Y-130150000D02*
X114870000Y-130150000D01*
X114870000Y-130150000D02*
X114070000Y-129350000D01*
D37*
X158560000Y-93480000D02*
X158560000Y-93410000D01*
X155830000Y-98470000D02*
X156150000Y-98150000D01*
X156150000Y-98150000D02*
X157210000Y-98150000D01*
X157210000Y-98150000D02*
X158560000Y-96800000D01*
X158560000Y-96800000D02*
X158560000Y-93480000D01*
D38*
X167370000Y-95250000D02*
X167370000Y-94350000D01*
X167370000Y-94350000D02*
X166790000Y-93770000D01*
D37*
X155830000Y-98470000D02*
X155830000Y-100830000D01*
X159140000Y-92830000D02*
X162380000Y-92830000D01*
X158560000Y-93410000D02*
X159140000Y-92830000D01*
D38*
X167360000Y-97350000D02*
X167370000Y-97340000D01*
X198440000Y-117620000D02*
X200010000Y-117620000D01*
X197940000Y-87750000D02*
X196650000Y-87750000D01*
X196300000Y-87400000D02*
X196300000Y-83920000D01*
X196650000Y-87750000D02*
X196300000Y-87400000D01*
X196140000Y-80670000D02*
X196140000Y-83760000D01*
X196140000Y-83760000D02*
X196300000Y-83920000D01*
X171000000Y-80750000D02*
X171000000Y-81770000D01*
X171460000Y-82230000D02*
X171460000Y-84000000D01*
X171000000Y-81770000D02*
X171460000Y-82230000D01*
X104898000Y-128256000D02*
X107796000Y-128256000D01*
X108890000Y-129350000D02*
X114070000Y-129350000D01*
X107796000Y-128256000D02*
X108890000Y-129350000D01*
X163720000Y-118980000D02*
X163720000Y-120510000D01*
X104920000Y-132270000D02*
X104920000Y-130030000D01*
X104920000Y-130030000D02*
X104920000Y-128278000D01*
X104920000Y-128278000D02*
X104898000Y-128256000D01*
D37*
X155830000Y-100830000D02*
X155830000Y-101960000D01*
X160630000Y-102170000D02*
X160630000Y-100830000D01*
X160310000Y-102490000D02*
X160630000Y-102170000D01*
X156360000Y-102490000D02*
X160310000Y-102490000D01*
X155830000Y-101960000D02*
X156360000Y-102490000D01*
D38*
X167370000Y-97340000D02*
X167370000Y-99350000D01*
X167370000Y-99350000D02*
X167360000Y-99360000D01*
X167360000Y-99360000D02*
X167360000Y-101290000D01*
X167360000Y-101290000D02*
X167370000Y-101300000D01*
X167370000Y-95250000D02*
X167370000Y-97340000D01*
D37*
X167360000Y-101290000D02*
X167370000Y-101300000D01*
X163730000Y-109130000D02*
X162490000Y-109130000D01*
X161970000Y-109650000D02*
X161970000Y-113130000D01*
X162490000Y-109130000D02*
X161970000Y-109650000D01*
D38*
X163730000Y-113130000D02*
X161970000Y-113130000D01*
X161320000Y-104730000D02*
X163730000Y-104730000D01*
X157210000Y-114040000D02*
X158210000Y-114040000D01*
D37*
X155430000Y-116230000D02*
X155430000Y-114640000D01*
X155430000Y-114640000D02*
X154830000Y-114040000D01*
D38*
X157430000Y-116230000D02*
X157430000Y-114260000D01*
X157210000Y-114040000D02*
X156370000Y-114040000D01*
X157430000Y-114260000D02*
X157210000Y-114040000D01*
X152230000Y-116230000D02*
X152230000Y-115110000D01*
X157030000Y-114700000D02*
X157030000Y-116230000D01*
X156370000Y-114040000D02*
X157030000Y-114700000D01*
X153300000Y-114040000D02*
X154830000Y-114040000D01*
X154830000Y-114040000D02*
X156370000Y-114040000D01*
X152230000Y-115110000D02*
X153300000Y-114040000D01*
X152230000Y-103890000D02*
X152230000Y-105040000D01*
X148330000Y-104730000D02*
X150560000Y-104730000D01*
X150560000Y-104730000D02*
X150960000Y-105130000D01*
X148330000Y-105130000D02*
X150960000Y-105130000D01*
X150960000Y-105130000D02*
X150990000Y-105130000D01*
X152230000Y-103890000D02*
X152230000Y-100830000D01*
X150990000Y-105130000D02*
X152230000Y-103890000D01*
X163720000Y-118980000D02*
X166080000Y-118980000D01*
D37*
X155030000Y-92210000D02*
X155030000Y-94750000D01*
X155030000Y-94750000D02*
X155030000Y-96980000D01*
X155030000Y-96980000D02*
X155040000Y-96990000D01*
X155030000Y-100830000D02*
X155030000Y-97000000D01*
X155030000Y-97000000D02*
X155040000Y-96990000D01*
X155030000Y-100830000D02*
X155030000Y-104780000D01*
X156180000Y-105930000D02*
X163730000Y-105930000D01*
X155030000Y-104780000D02*
X156180000Y-105930000D01*
X167440000Y-105930000D02*
X163730000Y-105930000D01*
X164990000Y-105530000D02*
X166240000Y-105530000D01*
X181270000Y-101530000D02*
X180910000Y-101170000D01*
X180910000Y-101170000D02*
X176000000Y-101170000D01*
X176000000Y-101170000D02*
X174990000Y-102180000D01*
X174990000Y-102180000D02*
X174990000Y-103900000D01*
X174990000Y-103900000D02*
X174070000Y-104820000D01*
X163730000Y-105530000D02*
X164990000Y-105530000D01*
X181270000Y-101530000D02*
X181270000Y-102380000D01*
X166950000Y-104820000D02*
X174070000Y-104820000D01*
X166240000Y-105530000D02*
X166950000Y-104820000D01*
X181270000Y-102380000D02*
X183930000Y-102380000D01*
X183930000Y-102380000D02*
X183940000Y-102370000D01*
X152630000Y-100830000D02*
X152630000Y-102840000D01*
X153390000Y-103600000D02*
X153390000Y-105050000D01*
X152630000Y-102840000D02*
X153390000Y-103600000D01*
X104210000Y-99370000D02*
X104210000Y-97650000D01*
X109210000Y-96740000D02*
X119980000Y-96740000D01*
X108780000Y-97170000D02*
X109210000Y-96740000D01*
X104690000Y-97170000D02*
X108780000Y-97170000D01*
X104210000Y-97650000D02*
X104690000Y-97170000D01*
X104210000Y-101040000D02*
X104210000Y-99370000D01*
X102870000Y-99370000D02*
X104210000Y-99370000D01*
X187970000Y-97570000D02*
X189920000Y-97570000D01*
X190910000Y-98560000D02*
X190910000Y-102360000D01*
X189920000Y-97570000D02*
X190910000Y-98560000D01*
X187940000Y-102370000D02*
X190900000Y-102370000D01*
X190900000Y-102370000D02*
X190910000Y-102360000D01*
X146330000Y-109530000D02*
X144710000Y-109530000D01*
X148330000Y-109530000D02*
X146330000Y-109530000D01*
X143960000Y-110280000D02*
X143960000Y-111240000D01*
X144710000Y-109530000D02*
X143960000Y-110280000D01*
X88500000Y-111390000D02*
X88500000Y-110460000D01*
X118560000Y-112550000D02*
X120140000Y-112550000D01*
X118280000Y-112270000D02*
X118560000Y-112550000D01*
X88930000Y-110030000D02*
X92560000Y-110030000D01*
X88500000Y-110460000D02*
X88930000Y-110030000D01*
X88500000Y-111390000D02*
X88500000Y-113140000D01*
X88500000Y-113140000D02*
X88540000Y-113180000D01*
X88500000Y-111390000D02*
X89920000Y-111390000D01*
X90310000Y-98040000D02*
X92990000Y-98040000D01*
X89950000Y-98400000D02*
X90310000Y-98040000D01*
X118350000Y-97480000D02*
X119140000Y-97480000D01*
X119140000Y-97480000D02*
X119830000Y-97480000D01*
X119830000Y-97480000D02*
X124240000Y-101890000D01*
X124240000Y-101890000D02*
X141820000Y-101890000D01*
X141820000Y-101890000D02*
X142240000Y-102310000D01*
X153030000Y-100830000D02*
X153030000Y-102540000D01*
X154400000Y-103910000D02*
X154400000Y-105060000D01*
X153030000Y-102540000D02*
X154400000Y-103910000D01*
X89950000Y-98400000D02*
X89950000Y-99170000D01*
X101380000Y-97430000D02*
X103120000Y-97430000D01*
X101100000Y-97150000D02*
X101380000Y-97430000D01*
X101100000Y-96410000D02*
X101100000Y-97150000D01*
X99150000Y-94460000D02*
X101100000Y-96410000D01*
X94080000Y-94460000D02*
X99150000Y-94460000D01*
X93510000Y-95030000D02*
X94080000Y-94460000D01*
X93510000Y-97520000D02*
X93510000Y-95030000D01*
X92990000Y-98040000D02*
X93510000Y-97520000D01*
X88520000Y-99140000D02*
X88520000Y-100960000D01*
X89950000Y-99170000D02*
X88550000Y-99170000D01*
X88550000Y-99170000D02*
X88520000Y-99140000D01*
X141640000Y-105540000D02*
X141650000Y-105530000D01*
X148330000Y-105530000D02*
X141650000Y-105530000D01*
X133850000Y-109240000D02*
X133850000Y-111310000D01*
X148330000Y-105508602D02*
X148330000Y-105530000D01*
D38*
X133850000Y-112260000D02*
X136120000Y-112260000D01*
X136120000Y-112260000D02*
X137080000Y-111300000D01*
X133850000Y-111310000D02*
X137070000Y-111310000D01*
X137070000Y-111310000D02*
X137080000Y-111300000D01*
D37*
X146310000Y-109930000D02*
X145370000Y-109930000D01*
X148330000Y-109930000D02*
X146310000Y-109930000D01*
X109750000Y-110510000D02*
X109750000Y-111440000D01*
X110250000Y-110010000D02*
X109750000Y-110510000D01*
X113760000Y-110010000D02*
X110250000Y-110010000D01*
X115250000Y-111500000D02*
X113760000Y-110010000D01*
X120170000Y-111500000D02*
X115250000Y-111500000D01*
X145370000Y-109930000D02*
X144960000Y-110340000D01*
X111170000Y-111470000D02*
X111170000Y-113180000D01*
X111170000Y-113180000D02*
X111140000Y-113210000D01*
X109750000Y-111440000D02*
X111140000Y-111440000D01*
X111140000Y-111440000D02*
X111170000Y-111470000D01*
X137880000Y-107930000D02*
X117480000Y-107930000D01*
X137880000Y-107930000D02*
X146270000Y-107930000D01*
X148330000Y-107930000D02*
X146270000Y-107930000D01*
X111080000Y-98270000D02*
X111080000Y-99270000D01*
X115250000Y-105700000D02*
X117470000Y-107920000D01*
X115250000Y-98580000D02*
X115250000Y-105700000D01*
X114630000Y-97960000D02*
X115250000Y-98580000D01*
X111390000Y-97960000D02*
X114630000Y-97960000D01*
X111080000Y-98270000D02*
X111390000Y-97960000D01*
X117480000Y-107930000D02*
X117470000Y-107920000D01*
X111080000Y-99270000D02*
X111080000Y-100960000D01*
X111080000Y-100960000D02*
X111120000Y-101000000D01*
X109680000Y-99280000D02*
X111070000Y-99280000D01*
X111070000Y-99280000D02*
X111080000Y-99270000D01*
X146060000Y-110330000D02*
X145280000Y-111110000D01*
X138890000Y-116120000D02*
X101550000Y-116120000D01*
X101550000Y-116120000D02*
X99670000Y-114240000D01*
X99670000Y-114240000D02*
X99670000Y-112650000D01*
X99670000Y-112650000D02*
X99260000Y-112240000D01*
X99260000Y-112240000D02*
X98470000Y-112240000D01*
X91770000Y-116250000D02*
X92110000Y-116250000D01*
X82040000Y-115290000D02*
X83000000Y-116250000D01*
X83000000Y-116250000D02*
X91770000Y-116250000D01*
X82040000Y-113250000D02*
X82040000Y-115290000D01*
X93970000Y-112240000D02*
X98470000Y-112240000D01*
X93330000Y-112880000D02*
X93970000Y-112240000D01*
X93330000Y-115030000D02*
X93330000Y-112880000D01*
X92110000Y-116250000D02*
X93330000Y-115030000D01*
X146280000Y-110330000D02*
X148330000Y-110330000D01*
X146280000Y-110330000D02*
X146060000Y-110330000D01*
X143210000Y-116120000D02*
X138890000Y-116120000D01*
X145280000Y-114050000D02*
X143210000Y-116120000D01*
X145280000Y-111110000D02*
X145280000Y-114050000D01*
X82040000Y-113250000D02*
X82040000Y-111440000D01*
X82040000Y-111440000D02*
X82020000Y-111420000D01*
X83510000Y-111440000D02*
X82040000Y-111440000D01*
X82040000Y-111440000D02*
X82020000Y-111420000D01*
X139660000Y-126230000D02*
X141440000Y-126230000D01*
X120110000Y-107530000D02*
X117910000Y-107530000D01*
X83600000Y-99210000D02*
X83600000Y-98310000D01*
X84610000Y-97300000D02*
X92480000Y-97300000D01*
X83600000Y-98310000D02*
X84610000Y-97300000D01*
X116050000Y-105670000D02*
X117550000Y-107170000D01*
X116050000Y-104260000D02*
X116050000Y-105670000D01*
X116050000Y-101160000D02*
X116050000Y-104260000D01*
X139090000Y-107530000D02*
X146260000Y-107530000D01*
X146260000Y-107530000D02*
X148330000Y-107530000D01*
X120110000Y-107530000D02*
X139090000Y-107530000D01*
X117910000Y-107530000D02*
X117550000Y-107170000D01*
X82260000Y-99230000D02*
X82260000Y-101020000D01*
X83600000Y-99210000D02*
X82280000Y-99210000D01*
X82280000Y-99210000D02*
X82260000Y-99230000D01*
X139670000Y-129310000D02*
X141420000Y-129310000D01*
X141420000Y-129310000D02*
X141430000Y-129320000D01*
X146240000Y-107130000D02*
X118670000Y-107130000D01*
X148330000Y-107130000D02*
X146240000Y-107130000D01*
X104260000Y-104110000D02*
X104260000Y-105350000D01*
X104240000Y-104090000D02*
X104260000Y-104110000D01*
X118670000Y-107130000D02*
X117380000Y-105840000D01*
X104260000Y-105350000D02*
X104260000Y-107040000D01*
X104260000Y-107040000D02*
X104290000Y-107070000D01*
X102800000Y-105370000D02*
X104240000Y-105370000D01*
X104240000Y-105370000D02*
X104260000Y-105350000D01*
X91480000Y-106970000D02*
X91480000Y-105390000D01*
X91480000Y-105390000D02*
X91440000Y-105350000D01*
X91440000Y-105350000D02*
X92360000Y-105350000D01*
X93230000Y-103350000D02*
X95060000Y-103350000D01*
X92770000Y-103810000D02*
X93230000Y-103350000D01*
X92770000Y-104940000D02*
X92770000Y-103810000D01*
X92360000Y-105350000D02*
X92770000Y-104940000D01*
X101260000Y-94760000D02*
X101260000Y-93310000D01*
X101260000Y-93310000D02*
X101210000Y-93260000D01*
X101210000Y-93260000D02*
X99440000Y-93260000D01*
X99370000Y-93190000D02*
X97600000Y-93190000D01*
X99440000Y-93260000D02*
X99370000Y-93190000D01*
X101260000Y-93310000D02*
X101210000Y-93260000D01*
X91740000Y-94830000D02*
X91740000Y-93320000D01*
X91740000Y-93320000D02*
X93000000Y-93320000D01*
X93130000Y-93190000D02*
X95060000Y-93190000D01*
X93000000Y-93320000D02*
X93130000Y-93190000D01*
X108170000Y-106950000D02*
X108170000Y-108300000D01*
X108170000Y-105310000D02*
X108170000Y-106950000D01*
X108030000Y-94760000D02*
X108030000Y-96430000D01*
X108030000Y-94760000D02*
X108030000Y-93270000D01*
X108030000Y-93270000D02*
X108000000Y-93240000D01*
X85010000Y-107030000D02*
X85010000Y-108500000D01*
X85020000Y-105440000D02*
X85020000Y-107020000D01*
X85020000Y-107020000D02*
X85010000Y-107030000D01*
X117860000Y-122210000D02*
X119850000Y-122210000D01*
X119850000Y-122210000D02*
X119880000Y-122240000D01*
X85110000Y-94790000D02*
X85110000Y-96350000D01*
X85110000Y-94790000D02*
X85110000Y-93290000D01*
X85110000Y-93290000D02*
X85100000Y-93280000D01*
X101220000Y-111400000D02*
X101220000Y-112960000D01*
X101220000Y-112960000D02*
X101230000Y-112970000D01*
X101220000Y-111400000D02*
X100350000Y-111400000D01*
X99490000Y-108430000D02*
X97600000Y-108430000D01*
X99870000Y-108810000D02*
X99490000Y-108430000D01*
X99870000Y-110920000D02*
X99870000Y-108810000D01*
X100350000Y-111400000D02*
X99870000Y-110920000D01*
X117860000Y-130150000D02*
X119880000Y-130150000D01*
X101460000Y-100920000D02*
X101460000Y-99460000D01*
X101460000Y-99460000D02*
X101370000Y-99370000D01*
X101370000Y-99370000D02*
X100390000Y-99370000D01*
X99290000Y-98270000D02*
X97600000Y-98270000D01*
X100390000Y-99370000D02*
X99290000Y-98270000D01*
X91420000Y-111390000D02*
X91420000Y-112980000D01*
X91420000Y-111390000D02*
X92500000Y-111390000D01*
X93650000Y-108430000D02*
X95060000Y-108430000D01*
X93330000Y-108750000D02*
X93650000Y-108430000D01*
X93330000Y-110560000D02*
X93330000Y-108750000D01*
X92500000Y-111390000D02*
X93330000Y-110560000D01*
X91450000Y-99170000D02*
X92580000Y-99170000D01*
X93480000Y-98270000D02*
X95060000Y-98270000D01*
X92580000Y-99170000D02*
X93480000Y-98270000D01*
X91450000Y-99170000D02*
X91450000Y-100760000D01*
X91450000Y-100760000D02*
X91440000Y-100770000D01*
X108250000Y-113150000D02*
X108250000Y-114570000D01*
X108250000Y-111440000D02*
X108250000Y-113150000D01*
X108170000Y-100870000D02*
X108170000Y-102580000D01*
X108180000Y-99280000D02*
X108180000Y-100860000D01*
X108180000Y-100860000D02*
X108170000Y-100870000D01*
X85020000Y-113010000D02*
X85020000Y-114670000D01*
X85010000Y-111440000D02*
X85010000Y-113000000D01*
X85010000Y-113000000D02*
X85020000Y-113010000D01*
X85110000Y-100840000D02*
X85110000Y-102410000D01*
X85100000Y-99210000D02*
X85100000Y-100830000D01*
X85100000Y-100830000D02*
X85110000Y-100840000D01*
X101300000Y-105370000D02*
X101300000Y-106990000D01*
X101300000Y-105370000D02*
X100390000Y-105370000D01*
X99450000Y-103350000D02*
X97600000Y-103350000D01*
X99720000Y-103620000D02*
X99450000Y-103350000D01*
X99720000Y-104700000D02*
X99720000Y-103620000D01*
X100390000Y-105370000D02*
X99720000Y-104700000D01*
X192680000Y-79920000D02*
X193860000Y-79920000D01*
X194610000Y-79170000D02*
X196140000Y-79170000D01*
X193860000Y-79920000D02*
X194610000Y-79170000D01*
X119000000Y-79250000D02*
X120040000Y-79250000D01*
X120790000Y-80000000D02*
X122460000Y-80000000D01*
X120040000Y-79250000D02*
X120790000Y-80000000D01*
X171000000Y-79250000D02*
X172710000Y-79250000D01*
X172710000Y-79250000D02*
X173460000Y-80000000D01*
X162230000Y-116230000D02*
X162230000Y-118970000D01*
X162230000Y-118970000D02*
X162220000Y-118980000D01*
X167850000Y-103340000D02*
X167850000Y-103416798D01*
X185270000Y-97570000D02*
X184680000Y-98160000D01*
X184680000Y-98160000D02*
X184680000Y-99470000D01*
X184680000Y-99470000D02*
X183930000Y-100220000D01*
X183930000Y-100220000D02*
X175500000Y-100220000D01*
X175500000Y-100220000D02*
X174150000Y-101570000D01*
X174150000Y-101570000D02*
X174150000Y-103040000D01*
X174150000Y-103040000D02*
X173850000Y-103340000D01*
X173850000Y-103340000D02*
X170020000Y-103340000D01*
X186470000Y-97570000D02*
X185270000Y-97570000D01*
X166136798Y-105130000D02*
X163730000Y-105130000D01*
X167850000Y-103416798D02*
X166136798Y-105130000D01*
X128810000Y-113260000D02*
X131600000Y-113260000D01*
X131600000Y-113260000D02*
X131650000Y-113210000D01*
X154200000Y-125500000D02*
X153280000Y-125500000D01*
X152855000Y-125925000D02*
X151564000Y-125925000D01*
X153280000Y-125500000D02*
X152855000Y-125925000D01*
X151569000Y-125930000D02*
X151564000Y-125925000D01*
X95060000Y-113510000D02*
X96330000Y-114780000D01*
X98630000Y-114780000D02*
X96330000Y-114780000D01*
X100730000Y-116880000D02*
X98630000Y-114780000D01*
X117790000Y-116880000D02*
X100730000Y-116880000D01*
X117800000Y-116870000D02*
X117790000Y-116880000D01*
X145970000Y-123890000D02*
X144560000Y-123890000D01*
X144560000Y-123890000D02*
X144110000Y-124340000D01*
X144110000Y-126230000D02*
X144110000Y-124340000D01*
X144110000Y-124340000D02*
X144110000Y-118790000D01*
X145976000Y-127195000D02*
X145075000Y-127195000D01*
X144110000Y-126230000D02*
X142940000Y-126230000D01*
X145075000Y-127195000D02*
X144110000Y-126230000D01*
X142930000Y-131280000D02*
X142930000Y-129320000D01*
X142000000Y-132210000D02*
X142930000Y-131280000D01*
X140980000Y-132210000D02*
X142000000Y-132210000D01*
X145105000Y-128465000D02*
X145105000Y-128005000D01*
X115190000Y-117670000D02*
X113450000Y-117670000D01*
X115520000Y-118000000D02*
X115190000Y-117670000D01*
X117730000Y-118000000D02*
X115520000Y-118000000D01*
X144750000Y-127650000D02*
X142830000Y-127650000D01*
X145105000Y-128005000D02*
X144750000Y-127650000D01*
X142160000Y-121140000D02*
X139900000Y-118880000D01*
X145976000Y-128465000D02*
X145105000Y-128465000D01*
X144250000Y-129320000D02*
X142930000Y-129320000D01*
X145105000Y-128465000D02*
X144250000Y-129320000D01*
X151030000Y-116230000D02*
X151030000Y-120070000D01*
X201380000Y-89200000D02*
X201380000Y-87040000D01*
X151030000Y-120070000D02*
X151550000Y-120590000D01*
X199440000Y-87750000D02*
X200670000Y-87750000D01*
X201380000Y-87040000D02*
X201380000Y-83920000D01*
X200670000Y-87750000D02*
X201380000Y-87040000D01*
X134460000Y-84000000D02*
X134460000Y-86500000D01*
X133830000Y-87130000D02*
X132770000Y-87130000D01*
X134460000Y-86500000D02*
X133830000Y-87130000D01*
X172290000Y-124490000D02*
X179910000Y-124490000D01*
X200050000Y-131650000D02*
X183530000Y-131650000D01*
X200050000Y-131650000D02*
X200890000Y-130810000D01*
X200890000Y-130810000D02*
X200890000Y-125230000D01*
X200890000Y-125230000D02*
X200380000Y-124720000D01*
X198430000Y-124720000D02*
X200380000Y-124720000D01*
X181600000Y-124490000D02*
X179910000Y-124490000D01*
X182220000Y-125110000D02*
X181600000Y-124490000D01*
X182220000Y-130340000D02*
X182220000Y-125110000D01*
X183530000Y-131650000D02*
X182220000Y-130340000D01*
X198430000Y-119790000D02*
X198430000Y-124720000D01*
X150630000Y-119450000D02*
X150630000Y-120770000D01*
X150630000Y-118990000D02*
X150630000Y-119450000D01*
X150630000Y-116230000D02*
X150630000Y-118990000D01*
X193760000Y-109580000D02*
X193760000Y-83920000D01*
X151250000Y-121390000D02*
X153030000Y-121390000D01*
X150630000Y-120770000D02*
X151250000Y-121390000D01*
X193990000Y-120480000D02*
X191820000Y-120480000D01*
X165160000Y-120510000D02*
X163910000Y-121760000D01*
X163910000Y-121760000D02*
X155250000Y-121760000D01*
X155250000Y-121760000D02*
X153990000Y-120500000D01*
X153990000Y-120500000D02*
X152490000Y-120500000D01*
X152490000Y-120500000D02*
X151430000Y-119440000D01*
X151430000Y-119440000D02*
X151430000Y-116230000D01*
X165680000Y-120510000D02*
X165160000Y-120510000D01*
X198840000Y-83920000D02*
X198840000Y-86130000D01*
X193990000Y-120480000D02*
X193960000Y-120510000D01*
X188680000Y-83920000D02*
X188680000Y-86920000D01*
X151830000Y-119110000D02*
X151830000Y-116230000D01*
X152400000Y-119680000D02*
X151830000Y-119110000D01*
X152880000Y-119680000D02*
X152400000Y-119680000D01*
X153320000Y-119680000D02*
X152880000Y-119680000D01*
X158190000Y-119680000D02*
X153320000Y-119680000D01*
X161430000Y-114670000D02*
X161430000Y-116230000D01*
X158740000Y-111980000D02*
X161430000Y-114670000D01*
X161070000Y-89780000D02*
X161070000Y-91140000D01*
X163090000Y-87760000D02*
X161070000Y-89780000D01*
X161830000Y-114030000D02*
X161830000Y-116230000D01*
X159740000Y-111940000D02*
X161830000Y-114030000D01*
X165130000Y-87850000D02*
X167620000Y-90340000D01*
X148600000Y-85900000D02*
X149590000Y-86890000D01*
X149590000Y-86890000D02*
X164170000Y-86890000D01*
X164170000Y-86890000D02*
X165130000Y-87850000D01*
X148600000Y-84000000D02*
X148600000Y-85900000D01*
X165880000Y-104330000D02*
X163730000Y-104330000D01*
X166830000Y-103380000D02*
X165880000Y-104330000D01*
X197990000Y-110570000D02*
X204190000Y-110570000D01*
X193350000Y-124720000D02*
X194690000Y-123380000D01*
X162230000Y-97870000D02*
X162930000Y-97170000D01*
X162930000Y-97170000D02*
X165250000Y-97170000D01*
X165250000Y-97170000D02*
X165920000Y-96500000D01*
X165920000Y-96500000D02*
X165920000Y-93420000D01*
X165920000Y-93420000D02*
X166470000Y-92870000D01*
X166470000Y-92870000D02*
X168390000Y-92870000D01*
X162230000Y-97870000D02*
X162230000Y-100830000D01*
X191460000Y-92870000D02*
X168390000Y-92870000D01*
X192960000Y-94370000D02*
X191460000Y-92870000D01*
X195800000Y-122750000D02*
X195800000Y-116460000D01*
X195170000Y-123380000D02*
X195800000Y-122750000D01*
X194690000Y-123380000D02*
X195170000Y-123380000D01*
X202900000Y-95720000D02*
X202910000Y-95710000D01*
X202910000Y-95710000D02*
X202910000Y-94280000D01*
X202910000Y-94280000D02*
X201940000Y-93310000D01*
X201940000Y-93310000D02*
X194810000Y-93310000D01*
X192980000Y-93330000D02*
X192070000Y-92420000D01*
X192070000Y-92420000D02*
X168330000Y-92420000D01*
X161830000Y-100830000D02*
X161830000Y-97710000D01*
X166340000Y-92420000D02*
X168330000Y-92420000D01*
X165520000Y-93240000D02*
X166340000Y-92420000D01*
X165520000Y-96310000D02*
X165520000Y-93240000D01*
X165013202Y-96816798D02*
X165520000Y-96310000D01*
X162723202Y-96816798D02*
X165013202Y-96816798D01*
X161830000Y-97710000D02*
X162723202Y-96816798D01*
X182800000Y-108370000D02*
X183850000Y-109420000D01*
X183850000Y-109420000D02*
X190400000Y-109420000D01*
X182800000Y-108370000D02*
X182800000Y-106310000D01*
X188270000Y-124720000D02*
X188270000Y-120980000D01*
X191600000Y-117650000D02*
X188270000Y-120980000D01*
X168310000Y-91870000D02*
X186300000Y-91870000D01*
X161430000Y-97500000D02*
X162530000Y-96400000D01*
X162530000Y-96400000D02*
X164510000Y-96400000D01*
X164510000Y-96400000D02*
X165130000Y-95780000D01*
X165130000Y-95780000D02*
X165130000Y-92960000D01*
X165130000Y-92960000D02*
X166220000Y-91870000D01*
X166220000Y-91870000D02*
X168310000Y-91870000D01*
X161430000Y-100830000D02*
X161430000Y-97500000D01*
X186730000Y-91440000D02*
X190480000Y-91440000D01*
X186300000Y-91870000D02*
X186730000Y-91440000D01*
X186530000Y-106940000D02*
X190900000Y-106940000D01*
X190900000Y-106940000D02*
X191410000Y-107450000D01*
X190810000Y-124720000D02*
X190810000Y-119890000D01*
X161030000Y-97230000D02*
X162400000Y-95860000D01*
X162400000Y-95860000D02*
X164420000Y-95860000D01*
X164420000Y-95860000D02*
X164730000Y-95550000D01*
X164730000Y-95550000D02*
X164730000Y-92660000D01*
X164730000Y-92660000D02*
X166090000Y-91300000D01*
X166090000Y-91300000D02*
X168280000Y-91300000D01*
X161030000Y-97230000D02*
X161030000Y-100830000D01*
X169200000Y-91300000D02*
X168280000Y-91300000D01*
X170510000Y-89990000D02*
X169200000Y-91300000D01*
X189470000Y-89990000D02*
X170510000Y-89990000D01*
X189500000Y-90020000D02*
X189470000Y-89990000D01*
X192700000Y-118000000D02*
X192700000Y-111620000D01*
X190810000Y-119890000D02*
X192700000Y-118000000D01*
X135780000Y-87110000D02*
X135790000Y-87120000D01*
X135790000Y-87120000D02*
X148780000Y-87120000D01*
X148780000Y-87120000D02*
X149450000Y-87790000D01*
X149450000Y-87790000D02*
X152440000Y-87790000D01*
X152440000Y-87790000D02*
X153830000Y-89180000D01*
X153830000Y-100830000D02*
X153830000Y-89180000D01*
X153430000Y-91480000D02*
X153430000Y-100830000D01*
X151710000Y-89760000D02*
X153430000Y-91480000D01*
X127590000Y-89760000D02*
X151710000Y-89760000D01*
X127550000Y-89720000D02*
X127590000Y-89760000D01*
X163730000Y-112730000D02*
X174100000Y-112730000D01*
X195330000Y-115200000D02*
X196950000Y-115200000D01*
X194850000Y-114720000D02*
X195330000Y-115200000D01*
X194850000Y-111920000D02*
X194850000Y-114720000D01*
X193680000Y-110750000D02*
X194850000Y-111920000D01*
X176080000Y-110750000D02*
X193680000Y-110750000D01*
X174100000Y-112730000D02*
X176080000Y-110750000D01*
X196950000Y-115200000D02*
X196950000Y-117610000D01*
X196950000Y-117610000D02*
X196940000Y-117620000D01*
X196930000Y-119790000D02*
X196930000Y-117630000D01*
X196930000Y-117630000D02*
X196940000Y-117620000D01*
X160750000Y-129500000D02*
X162960000Y-129500000D01*
X167840000Y-110860000D02*
X166800000Y-110860000D01*
X166010000Y-110860000D02*
X166800000Y-110860000D01*
X160230000Y-117960000D02*
X160230000Y-116230000D01*
X160230000Y-117960000D02*
X160900000Y-118630000D01*
X167840000Y-110860000D02*
X167850000Y-110870000D01*
X145820000Y-116230000D02*
X145350000Y-115760000D01*
X149830000Y-116230000D02*
X146120000Y-116230000D01*
X146120000Y-116230000D02*
X145820000Y-116230000D01*
X133880000Y-97470000D02*
X133880000Y-94410000D01*
X133870000Y-97480000D02*
X133880000Y-97470000D01*
X125150000Y-109810000D02*
X125150000Y-109130000D01*
X125150000Y-113980000D02*
X125150000Y-109810000D01*
X150230000Y-116230000D02*
X150230000Y-116960000D01*
X147710000Y-116770000D02*
X145090000Y-116770000D01*
X148360000Y-117420000D02*
X147710000Y-116770000D01*
X149770000Y-117420000D02*
X148360000Y-117420000D01*
X150230000Y-116960000D02*
X149770000Y-117420000D01*
X136420000Y-97510000D02*
X135370000Y-98560000D01*
X135370000Y-98560000D02*
X131520000Y-98560000D01*
X124160000Y-109140000D02*
X124160000Y-115190000D01*
X136420000Y-97510000D02*
X136420000Y-94410000D01*
X124160000Y-115480000D02*
X124160000Y-115190000D01*
X162610000Y-102730000D02*
X161240000Y-104100000D01*
X161240000Y-104100000D02*
X158290000Y-104100000D01*
X158290000Y-104100000D02*
X157610000Y-104780000D01*
X163730000Y-102730000D02*
X162610000Y-102730000D01*
X157290000Y-124650000D02*
X157290000Y-125500000D01*
X156180000Y-123540000D02*
X157290000Y-124650000D01*
X155700000Y-125500000D02*
X157290000Y-125500000D01*
X161120000Y-102330000D02*
X160120000Y-103330000D01*
X160120000Y-103330000D02*
X157770000Y-103330000D01*
X153230000Y-130530000D02*
X151960000Y-130530000D01*
X151960000Y-130530000D02*
X151564000Y-130134000D01*
X151564000Y-129735000D02*
X151564000Y-130134000D01*
X161120000Y-102330000D02*
X163730000Y-102330000D01*
M02*
