M48
METRIC,TZ
T1C0.300
T2C0.813
T3C1.001
T4C1.016
T5C3.000
%
G90
G05
T1
X80550Y-103680
X80650Y-91680
X80760Y-97520
X81230Y-109520
X83620Y-114340
X84940Y-90120
X85000Y-103840
X85010Y-108500
X85020Y-114670
X85110Y-96350
X85110Y-102410
X86050Y-114160
X86110Y-108490
X87380Y-91680
X90810Y-102170
X90910Y-128930
X92480Y-97300
X92560Y-110030
X100480Y-128160
X102630Y-125970
X103120Y-97430
X104240Y-104090
X105710Y-91530
X106920Y-114520
X106990Y-98210
X107110Y-104440
X108030Y-96430
X108050Y-120390
X108170Y-102580
X108170Y-108300
X108250Y-114570
X109570Y-108630
X109890Y-132270
X110180Y-91520
X111760Y-131600
X112470Y-91280
X113450Y-117670
X114200Y-113210
X114210Y-99270
X114240Y-125970
X114370Y-107070
X114480Y-105750
X114500Y-102840
X116050Y-101160
X116540Y-89790
X117380Y-105840
X117450Y-94660
X117730Y-118000
X117800Y-116870
X118260Y-105340
X118280Y-112270
X118350Y-97480
X118400Y-93120
X118430Y-94050
X119980Y-96740
X120140Y-112550
X120170Y-111500
X120240Y-108780
X120250Y-104470
X121330Y-105370
X121330Y-108810
X124160Y-109140
X124160Y-115480
X125150Y-109130
X125150Y-113980
X127310Y-115410
X127550Y-89720
X129490Y-111310
X131520Y-98560
X133850Y-109240
X133850Y-115010
X133870Y-97480
X135730Y-130120
X135780Y-87110
X137530Y-131290
X138580Y-115090
X138620Y-124560
X139900Y-118880
X141640Y-105540
X142160Y-121140
X142240Y-102310
X142830Y-127650
X143960Y-111240
X144110Y-118790
X144770Y-104810
X144790Y-103880
X144960Y-110340
X145090Y-116770
X145350Y-115760
X145980Y-131330
X147710Y-117960
X147750Y-120160
X148910Y-124430
X149280Y-130980
X149600Y-103300
X149750Y-127200
X150040Y-107820
X150330Y-103970
X151550Y-120590
X152230Y-105040
X152260Y-108730
X153030Y-121390
X153230Y-130530
X153390Y-105050
X154400Y-105060
X155940Y-103510
X156180Y-123540
X157610Y-104780
X157770Y-103330
X158190Y-119680
X158210Y-114040
X158740Y-111980
X158890Y-92210
X159740Y-111940
X159830Y-114760
X160380Y-125500
X160900Y-118630
X161070Y-91140
X161320Y-104730
X161970Y-113130
X162120Y-108330
X162380Y-92830
X163090Y-87760
X163720Y-120510
X164810Y-117390
X165200Y-114410
X165680Y-120510
X166010Y-110860
X166790Y-93770
X166830Y-103380
X167620Y-90340
X167850Y-103340
X168410Y-117390
X168870Y-104120
X169240Y-115850
X169350Y-109140
X170020Y-103340
X170340Y-105930
X173760Y-113870
X178100Y-132120
X179470Y-106940
X181480Y-132930
X184340Y-108460
X188270Y-129360
X188680Y-86920
X189500Y-90020
X189730Y-129760
X190400Y-109420
X190480Y-91440
X191410Y-107450
X191600Y-117650
X191820Y-120480
X192700Y-111620
X192960Y-94370
X192980Y-93330
X193760Y-109580
X193990Y-120480
X194810Y-93310
X195800Y-116460
X197990Y-110570
X198840Y-86130
X200010Y-117620
X200060Y-115200
X201380Y-89200
X202900Y-95720
X204830Y-114280
T2
X172290Y-124490
X172290Y-129570
X179910Y-124490
X179910Y-129570
T3
X119880Y-122240
X119880Y-130150
X122420Y-122240
X122420Y-130150
X122460Y-80000
X125000Y-80000
X162960Y-129500
X165500Y-129500
X173460Y-80000
X176000Y-80000
X190140Y-79920
X192680Y-79920
T4
X94996Y-93218
X94996Y-95758
X94996Y-98298
X94996Y-100838
X94996Y-103378
X94996Y-105918
X94996Y-108458
X94996Y-110998
X94996Y-113538
X94996Y-116078
X94996Y-118618
X94996Y-121158
X94996Y-123698
X97536Y-93218
X97536Y-95758
X97536Y-98298
X97536Y-100838
X97536Y-103378
X97536Y-105918
X97536Y-108458
X97536Y-110998
X97536Y-113538
X97536Y-116078
X97536Y-118618
X97536Y-121158
X97536Y-123698
X116680Y-84000
X119220Y-84000
X121760Y-84000
X124300Y-84000
X126840Y-84000
X129380Y-84000
X131920Y-84000
X133880Y-94410
X134460Y-84000
X136420Y-94410
X137000Y-84000
X148600Y-84000
X151140Y-84000
X153680Y-84000
X156220Y-84000
X158760Y-84000
X161300Y-84000
X163840Y-84000
X166380Y-84000
X168920Y-84000
X171460Y-84000
X174000Y-84000
X186140Y-83920
X188270Y-124720
X188270Y-127260
X188680Y-83920
X190810Y-124720
X190810Y-127260
X191220Y-83920
X193350Y-124720
X193350Y-127260
X193760Y-83920
X195890Y-124720
X195890Y-127260
X196300Y-83920
X198430Y-124720
X198430Y-127260
X198840Y-83920
X201380Y-83920
T5
X83140Y-130920
X107140Y-80920
X213140Y-80920
X213140Y-130920
T0
M30
